<?xml version="1.0" standalone="no"?>
<!DOCTYPE svg PUBLIC "-//W3C//DTD SVG 20010904//EN"
 "http://www.w3.org/TR/2001/REC-SVG-20010904/DTD/svg10.dtd">
<svg version="1.0" xmlns="http://www.w3.org/2000/svg"
 width="1280.000000pt" height="1132.000000pt" viewBox="0 0 1280.000000 1132.000000"
 preserveAspectRatio="xMidYMid meet">
<metadata>
Created by potrace 1.15, written by Peter Selinger 2001-2017
</metadata>
<g transform="translate(0.000000,1132.000000) scale(0.100000,-0.100000)"
fill="#2196f3" stroke="none">
<path d="M5812 11008 c-15 -18 -169 -350 -199 -428 -46 -120 -64 -194 -70
-292 -10 -168 15 -248 166 -518 50 -91 94 -176 97 -190 8 -40 32 -133 39 -152
7 -17 4 -17 -31 -4 -78 28 -196 87 -252 125 -133 91 -209 196 -257 356 -15 50
-40 131 -56 180 -15 50 -42 144 -60 210 -48 186 -62 196 -79 60 -47 -363 -52
-682 -13 -809 9 -30 -111 68 -176 144 -80 93 -156 165 -318 301 -78 65 -157
141 -177 168 -65 88 -112 102 -186 52 -37 -24 -46 -27 -71 -18 -16 6 -30 21
-34 34 -6 25 -40 43 -78 43 -34 -1 -110 -62 -171 -139 -51 -64 -74 -81 -264
-199 -351 -218 -319 -203 -562 -260 -118 -28 -332 -76 -475 -107 -313 -69
-699 -154 -850 -189 -206 -47 -610 -78 -740 -56 -38 6 -95 14 -126 17 -55 5
-57 4 -82 -28 -14 -19 -31 -55 -37 -81 l-12 -48 -47 -1 c-138 -3 -175 -9 -227
-34 -30 -15 -59 -36 -66 -48 -27 -51 -2 -221 40 -270 11 -12 16 -40 17 -90 1
-40 7 -99 14 -132 7 -33 13 -69 13 -80 -1 -11 4 -57 10 -102 19 -141 -22 -256
-140 -391 -121 -137 -126 -146 -116 -195 l9 -42 67 -5 c77 -6 103 -20 36 -20
-34 0 -50 -6 -66 -23 -29 -31 -28 -41 12 -128 50 -109 63 -167 76 -339 20
-262 22 -333 12 -378 -9 -39 -8 -44 9 -51 18 -6 16 -10 -20 -50 -48 -52 -56
-82 -55 -221 0 -84 5 -123 28 -199 46 -158 96 -236 193 -301 79 -51 81 -41 18
85 -84 167 -92 289 -34 471 34 107 37 134 20 186 -9 28 -9 41 0 55 9 15 8 33
-4 84 -34 134 -50 302 -53 537 -2 139 -8 240 -14 252 -7 14 -7 20 0 20 5 0 19
9 30 20 17 17 20 33 20 125 0 80 5 120 21 170 12 36 25 65 29 65 12 0 36 -115
85 -404 25 -142 57 -311 71 -375 44 -199 287 -1126 614 -2343 61 -223 142
-509 180 -635 131 -420 184 -659 169 -754 -10 -66 1 -101 38 -120 27 -14 29
-17 17 -34 -23 -31 -16 -60 23 -107 75 -89 117 -194 367 -924 183 -533 197
-570 281 -728 89 -167 116 -244 114 -317 l-2 -58 81 -79 c76 -75 85 -89 165
-250 60 -120 86 -185 90 -219 9 -91 21 -115 98 -195 75 -77 120 -108 159 -108
33 0 37 29 7 53 -25 21 -64 98 -101 197 -9 25 -35 65 -57 89 -39 43 -214 374
-260 494 -11 29 -46 104 -79 167 -104 205 -210 468 -307 764 -52 160 -142 431
-199 602 -110 331 -164 522 -164 582 0 44 -22 79 -56 93 l-25 9 21 22 c27 29
25 54 -6 108 -35 60 -93 215 -143 380 -82 275 -370 1394 -521 2030 -50 212
-143 594 -205 850 -98 401 -207 907 -204 951 0 8 7 1 14 -16 212 -481 500
-1097 925 -1980 531 -1104 715 -1477 825 -1680 234 -430 345 -685 345 -791 0
-62 17 -110 49 -138 11 -11 21 -26 21 -35 0 -30 39 -75 92 -106 68 -40 143
-150 288 -417 57 -106 121 -221 142 -256 21 -34 59 -104 84 -155 77 -152 109
-195 278 -367 130 -132 165 -173 174 -207 16 -54 63 -96 100 -86 14 3 54 7 87
7 51 1 72 -5 145 -41 47 -23 117 -60 155 -82 47 -27 109 -50 188 -70 92 -24
127 -37 153 -61 42 -36 54 -37 91 -7 15 13 59 31 97 40 86 21 116 40 116 72 0
29 -27 40 -64 25 -37 -14 -129 -13 -160 2 -21 9 -33 8 -66 -7 -24 -11 -52 -16
-72 -12 -81 13 -443 198 -593 302 -27 19 -60 35 -72 35 -43 0 -242 208 -339
355 -19 28 -62 113 -97 190 -35 77 -111 228 -169 335 -153 283 -233 446 -258
529 -13 40 -35 87 -50 105 -15 17 -30 49 -34 71 -6 28 -21 52 -55 85 -91 88
-220 322 -450 817 -77 166 -168 357 -202 424 -92 185 -293 614 -566 1209 -135
294 -320 693 -411 885 -91 193 -206 440 -257 550 -51 110 -111 241 -135 290
-94 200 -87 195 39 -25 140 -247 307 -499 1066 -1610 99 -146 223 -330 276
-410 52 -80 159 -224 236 -320 150 -188 260 -346 269 -389 16 -81 28 -105 72
-148 58 -56 90 -73 134 -71 47 2 125 -42 296 -166 141 -103 237 -159 362 -211
36 -15 113 -49 171 -76 76 -34 132 -52 200 -64 122 -20 139 -28 183 -81 53
-63 80 -61 141 10 35 40 65 62 119 87 43 20 93 53 127 86 33 31 65 53 78 53
38 0 61 19 86 73 13 29 40 77 60 109 44 68 52 121 18 126 -16 2 -26 -5 -36
-25 -23 -43 -96 -122 -139 -149 -26 -17 -41 -34 -45 -55 -8 -40 -59 -81 -163
-132 -81 -39 -88 -41 -185 -41 -129 -1 -190 19 -470 155 -362 176 -612 345
-667 452 -26 52 -120 146 -177 177 -96 52 -253 269 -858 1185 -428 648 -508
772 -734 1135 -98 157 -232 371 -298 476 -66 106 -168 279 -226 385 -131 241
-165 326 -135 344 5 3 65 -48 134 -114 69 -66 244 -219 390 -340 145 -121 370
-311 498 -422 497 -431 657 -559 890 -713 199 -131 280 -200 306 -259 20 -44
50 -77 74 -80 7 -2 24 -10 36 -19 16 -11 36 -14 63 -11 50 7 134 -23 253 -90
115 -64 349 -176 454 -216 46 -18 128 -38 185 -47 129 -18 152 -26 187 -64 15
-16 36 -30 45 -30 10 0 41 25 71 55 32 34 74 65 107 80 31 13 78 44 106 69 32
28 61 46 76 46 25 0 65 31 65 49 0 6 23 36 50 67 53 61 70 98 52 116 -8 8 -29
-6 -75 -49 -35 -32 -78 -65 -95 -72 -19 -8 -35 -24 -41 -41 -5 -16 -29 -43
-53 -61 -54 -39 -205 -112 -218 -104 -5 3 -29 1 -53 -6 -102 -25 -285 37 -660
223 -281 140 -300 151 -361 213 -35 36 -70 65 -77 65 -7 0 -22 9 -34 20 -12
12 -40 23 -61 27 -119 18 -521 333 -1143 898 -333 302 -450 405 -601 533 -210
178 -433 377 -476 424 -57 62 -71 86 -79 137 -5 28 -17 53 -33 68 -14 13 -23
25 -21 26 2 2 35 18 72 35 88 41 227 74 692 166 319 63 625 130 698 152 11 3
17 0 17 -10 0 -29 36 -38 114 -27 113 16 228 56 376 132 121 62 157 74 350
125 273 71 319 89 635 244 203 100 272 129 314 134 30 3 59 10 65 16 5 5 31
10 57 10 68 0 164 -53 299 -166 184 -153 240 -214 310 -331 80 -135 114 -172
225 -246 136 -91 242 -175 264 -210 41 -63 89 -121 107 -127 21 -8 79 4 130
25 35 14 74 66 74 99 0 33 49 9 104 -51 28 -31 54 -61 58 -68 5 -8 -11 -29
-46 -59 -35 -30 -57 -57 -61 -77 -12 -52 12 -122 61 -179 24 -28 44 -57 44
-64 0 -45 66 -209 110 -274 50 -74 50 -75 50 -151 0 -42 4 -94 9 -116 6 -22
11 -57 11 -78 0 -21 6 -50 14 -65 7 -15 14 -49 14 -76 1 -58 25 -100 52 -93
15 4 22 -3 30 -29 14 -43 35 -64 63 -64 15 0 27 -11 37 -33 17 -36 65 -51 76
-23 8 21 50 21 58 0 11 -28 59 -13 76 23 10 22 22 33 37 33 28 0 49 21 63 64
8 26 15 33 30 29 27 -7 50 35 54 99 2 30 9 64 15 76 6 11 11 38 11 59 0 21 5
58 11 83 6 25 11 79 13 120 2 78 9 94 67 170 15 20 35 62 44 95 10 33 21 65
26 70 4 6 11 29 15 52 4 27 21 59 50 94 46 56 64 100 64 159 0 29 -9 42 -55
85 -30 29 -55 58 -55 66 1 24 110 130 141 136 26 5 29 3 29 -19 0 -29 31 -72
63 -90 41 -22 119 -37 138 -27 10 5 44 43 75 85 64 85 108 122 274 234 136 91
169 126 246 257 70 118 112 164 269 297 203 171 282 215 364 203 136 -20 149
-26 436 -187 249 -140 342 -175 668 -255 192 -47 236 -61 327 -107 148 -76
291 -118 397 -118 36 0 46 4 50 20 4 14 11 18 27 15 243 -57 562 -119 926
-180 234 -39 377 -73 455 -108 39 -17 72 -32 74 -34 3 -2 -5 -13 -17 -26 -17
-18 -22 -36 -22 -73 0 -77 -41 -134 -269 -384 -63 -69 -154 -165 -201 -215
-79 -84 -145 -157 -559 -625 -207 -233 -627 -657 -724 -731 -43 -32 -88 -59
-100 -59 -33 0 -136 -81 -161 -126 -23 -41 -97 -95 -296 -215 -203 -121 -292
-167 -387 -199 -84 -28 -103 -31 -162 -24 -75 7 -114 21 -186 66 -69 43 -94
68 -110 105 -7 17 -24 34 -37 38 -12 4 -51 34 -85 68 -52 51 -64 58 -77 48
-14 -12 -14 -16 0 -44 14 -27 53 -81 111 -155 10 -12 29 -25 42 -27 12 -2 43
-21 68 -42 24 -21 70 -53 101 -71 31 -19 78 -56 103 -83 52 -57 77 -61 111
-20 34 39 50 47 153 66 128 24 333 123 517 252 119 83 182 113 239 113 75 0
138 49 159 123 15 50 107 147 246 258 149 117 261 226 517 498 443 472 565
600 707 746 81 83 184 197 231 254 69 85 85 101 87 83 2 -13 -4 -46 -14 -75
-24 -73 -209 -453 -292 -599 -38 -68 -104 -188 -147 -268 -181 -337 -435 -785
-818 -1440 -505 -862 -646 -1077 -738 -1123 -23 -11 -49 -33 -59 -49 -10 -16
-27 -36 -39 -44 -12 -9 -35 -41 -50 -73 -18 -35 -54 -80 -93 -116 -136 -126
-578 -385 -791 -464 -84 -31 -101 -34 -192 -32 -94 1 -103 3 -183 42 -98 47
-157 97 -166 139 -4 23 -15 35 -38 45 -34 14 -95 73 -143 137 -28 38 -61 50
-71 24 -5 -14 31 -88 91 -186 55 -89 62 -97 95 -104 18 -3 57 -29 88 -57 33
-29 91 -66 135 -86 61 -29 85 -46 107 -78 54 -78 117 -82 156 -9 22 40 40 48
167 73 75 15 132 36 240 87 78 37 161 75 185 85 63 27 165 95 284 190 145 115
221 159 275 159 38 0 50 6 94 48 60 56 74 81 83 146 10 76 61 163 245 416 57
79 138 201 179 270 41 69 252 418 467 775 499 826 613 1021 748 1280 60 116
106 203 104 195 -11 -34 -187 -476 -312 -785 -73 -181 -178 -445 -233 -585
-55 -140 -189 -482 -297 -760 -109 -278 -252 -635 -318 -795 -66 -159 -181
-443 -257 -630 -213 -527 -298 -705 -381 -791 -28 -28 -42 -53 -46 -80 -3 -21
-13 -48 -23 -59 -26 -30 -37 -54 -50 -119 -15 -72 -61 -184 -197 -474 -58
-125 -134 -299 -169 -387 -62 -154 -107 -235 -200 -356 -60 -79 -161 -179
-179 -179 -24 0 -87 -35 -110 -60 -11 -12 -38 -31 -60 -42 -22 -11 -87 -49
-145 -83 -125 -75 -297 -155 -332 -155 -14 0 -42 7 -63 16 -31 12 -43 13 -66
4 -29 -12 -139 -10 -169 4 -9 3 -24 0 -35 -8 -16 -12 -18 -18 -9 -33 17 -27
65 -52 124 -63 30 -6 63 -19 74 -29 38 -34 61 -35 99 -2 25 23 63 38 148 61
63 17 132 42 154 54 22 13 76 44 120 70 116 67 162 80 237 67 84 -15 113 5
137 96 9 31 41 74 134 173 163 177 172 189 229 310 27 58 84 177 128 265 43
88 115 234 158 325 102 210 149 283 201 309 41 22 73 59 86 101 4 14 13 32 21
40 28 33 43 89 42 156 -2 115 78 331 282 764 185 391 1013 2400 1346 3264 93
239 169 434 171 432 10 -9 -77 -590 -136 -911 -39 -209 -104 -573 -146 -810
-113 -639 -164 -913 -285 -1516 -133 -664 -184 -874 -240 -984 -24 -47 -26
-92 -5 -122 14 -20 14 -22 -5 -28 -30 -9 -39 -34 -49 -132 -11 -104 -43 -251
-101 -458 -23 -82 -77 -289 -121 -460 -44 -170 -96 -365 -115 -432 -47 -165
-199 -578 -224 -608 -5 -6 -22 -51 -38 -100 -48 -144 -189 -454 -228 -502 -23
-28 -46 -75 -65 -134 -34 -105 -54 -148 -75 -156 -7 -3 -14 -14 -14 -24 0 -28
48 -24 95 7 22 15 66 58 97 96 50 61 57 75 62 126 10 91 23 136 83 276 63 148
90 192 168 270 l55 55 -6 58 c-8 76 8 132 92 321 70 159 99 246 199 607 36
132 95 344 130 472 103 370 138 466 209 572 41 61 43 70 18 97 -18 18 -18 19
9 36 36 22 44 55 31 124 -20 98 16 322 122 754 56 229 99 430 296 1400 275
1351 318 1578 350 1875 29 272 51 438 60 454 16 30 52 -99 60 -216 7 -113 15
-137 50 -148 16 -5 17 -10 8 -31 -8 -18 -8 -49 0 -118 21 -167 10 -528 -19
-675 -8 -41 -8 -59 1 -77 10 -18 10 -32 1 -66 -12 -41 -10 -51 33 -179 41
-122 46 -146 46 -227 0 -96 -22 -186 -66 -274 -41 -81 -28 -99 37 -50 91 69
137 152 169 302 19 85 22 123 17 214 -6 130 -14 157 -68 212 -32 33 -37 43
-25 47 19 7 20 35 5 86 -7 25 -8 116 -1 296 8 258 9 261 41 350 44 123 47 146
22 169 -11 10 -44 21 -73 25 -52 7 -52 8 -18 14 19 4 53 8 75 9 37 3 41 6 53
41 15 47 8 59 -117 192 -124 132 -184 276 -166 395 4 25 8 81 10 125 1 44 8
107 15 140 8 40 9 72 3 95 -7 26 -6 41 4 57 37 57 56 214 31 267 -19 43 -89
69 -208 77 -58 4 -112 10 -121 14 -9 3 -21 24 -28 46 -7 21 -26 55 -42 74 -35
40 -59 43 -135 20 -136 -43 -616 -23 -854 35 -92 23 -285 62 -663 135 -158 30
-391 78 -518 105 l-230 49 -147 87 c-389 231 -457 279 -560 402 -84 100 -171
126 -210 63 -9 -15 -22 -26 -29 -24 -7 2 -21 -1 -32 -6 -16 -9 -27 -6 -57 14
-66 45 -87 37 -189 -69 -49 -51 -142 -136 -205 -188 -64 -52 -167 -150 -230
-217 -121 -129 -246 -237 -237 -204 34 115 40 207 27 408 -11 176 -36 443 -45
483 -11 48 -31 11 -71 -134 -63 -230 -133 -454 -161 -512 -61 -129 -180 -231
-373 -318 -67 -31 -124 -54 -126 -51 -2 2 3 24 11 48 9 24 20 66 26 92 5 29
41 107 88 190 108 196 135 251 161 332 44 141 25 322 -55 518 -54 134 -192
421 -204 425 -15 5 -14 -67 3 -213 32 -267 38 -354 34 -446 -3 -87 -8 -104
-41 -170 -24 -50 -66 -107 -127 -174 -181 -199 -234 -282 -294 -461 -28 -82
-39 -103 -66 -121 -18 -13 -38 -23 -45 -23 -29 0 -79 46 -87 80 -23 89 -87
231 -139 310 -32 47 -103 134 -158 194 -115 127 -154 188 -176 271 -21 84 -19
154 15 455 16 146 30 273 30 283 0 20 -13 22 -28 5z m-1772 -942 c0 -7 -163
-106 -174 -106 -5 0 10 14 32 30 23 17 42 34 42 40 0 13 50 39 78 40 12 0 22
-2 22 -4z m4738 -40 c26 -24 84 -64 130 -90 45 -26 82 -50 82 -52 0 -16 -290
152 -306 177 -3 5 7 9 21 9 17 0 42 -15 73 -44z m-2748 -1458 c0 -18 -15 -25
-23 -10 -2 4 -7 20 -11 37 -7 29 -7 29 13 11 12 -11 21 -27 21 -38z m686 6
c-4 -14 -12 -24 -19 -21 -14 5 -10 35 6 56 15 17 21 -1 13 -35z m-399 -835 l2
-64 -14 45 c-18 56 -19 93 -2 88 7 -3 13 -28 14 -69z m99 29 c-4 -24 -8 -51
-10 -60 -6 -43 -16 -26 -16 29 0 59 4 73 23 73 6 0 7 -17 3 -42z"/>
</g>
</svg>
