<?xml version="1.0" standalone="no"?>
<!DOCTYPE svg PUBLIC "-//W3C//DTD SVG 20010904//EN"
 "http://www.w3.org/TR/2001/REC-SVG-20010904/DTD/svg10.dtd">
<svg version="1.0" xmlns="http://www.w3.org/2000/svg"
 width="1120.000000pt" height="1280.000000pt" viewBox="0 0 1120.000000 1280.000000"
 preserveAspectRatio="xMidYMid meet">
<metadata>
Created by potrace 1.15, written by Peter Selinger 2001-2017
</metadata>
<g transform="translate(0.000000,1280.000000) scale(0.100000,-0.100000)"
fill="#2196f3" stroke="none">
<path d="M7506 12754 c-16 -120 0 -238 45 -326 29 -56 110 -140 182 -188 33
-22 55 -40 50 -40 -62 0 -311 -27 -478 -51 -121 -18 -248 -31 -300 -31 -152 1
-267 50 -355 149 -22 26 -43 44 -45 41 -10 -9 15 -101 36 -135 39 -63 151
-131 303 -183 43 -15 74 -30 70 -33 -5 -2 -36 -10 -69 -17 -96 -19 -200 -48
-345 -95 -74 -24 -166 -49 -204 -56 -121 -21 -344 5 -523 60 -35 11 -63 17
-63 14 0 -17 47 -78 87 -113 63 -55 134 -74 381 -101 111 -12 202 -25 202 -28
0 -10 -670 -280 -787 -318 -143 -45 -330 -82 -464 -92 -60 -4 -111 -10 -114
-13 -10 -10 109 -37 210 -49 104 -11 280 -1 447 25 l78 13 -22 -24 c-31 -33
-248 -203 -391 -306 -185 -133 -340 -205 -577 -268 -45 -12 -45 -12 -15 -20
56 -13 225 -9 303 7 42 9 103 26 134 39 34 14 58 19 58 13 0 -16 -65 -131
-124 -218 -94 -141 -300 -334 -568 -535 -59 -44 -107 -83 -107 -86 -1 -10 123
11 189 33 76 24 158 64 236 114 31 20 57 34 59 32 7 -6 -31 -148 -59 -220 -28
-76 -88 -182 -136 -243 -100 -127 -327 -330 -496 -442 -46 -31 -84 -60 -84
-65 0 -25 194 9 282 51 37 18 100 56 140 86 40 29 75 52 77 50 7 -8 -23 -156
-49 -232 -49 -146 -126 -253 -369 -508 -42 -44 -94 -100 -116 -124 l-40 -44
43 6 c67 8 142 51 228 128 88 79 191 159 206 159 25 0 -46 -189 -116 -307 -58
-97 -148 -218 -260 -348 -47 -55 -86 -104 -86 -109 0 -12 76 2 113 21 17 9 67
50 112 92 94 90 158 141 175 141 10 0 11 -20 6 -82 -19 -237 -94 -445 -224
-627 -29 -40 -51 -76 -48 -78 10 -10 95 47 126 84 17 21 43 63 57 93 l26 55
20 -45 c15 -33 20 -67 20 -129 l0 -84 28 31 c51 57 60 111 69 412 8 278 26
441 101 930 109 707 348 1325 742 1915 250 374 445 587 734 804 308 230 785
482 1142 601 448 149 888 186 1384 114 60 -8 111 -14 113 -12 11 11 -480 162
-723 222 -78 19 -169 47 -204 60 -173 71 -311 204 -396 384 -24 50 -46 92 -47
92 -2 0 -6 -21 -10 -46z"/>
<path d="M9010 12728 c-112 -74 -151 -147 -159 -297 -5 -78 -10 -106 -21 -111
-8 -4 -37 -16 -65 -27 -54 -20 -98 -71 -93 -107 3 -17 17 -24 88 -38 103 -21
270 -69 363 -104 37 -14 73 -24 80 -21 7 3 21 33 31 68 9 35 37 105 61 155
122 252 321 400 645 479 75 18 75 19 40 28 -58 15 -295 2 -380 -21 -104 -28
-245 -90 -356 -158 -52 -31 -100 -54 -108 -51 -21 8 -46 96 -48 171 -1 37 -5
69 -9 72 -4 2 -35 -15 -69 -38z"/>
<path d="M10027 12349 c-7 -84 -56 -181 -110 -221 -23 -16 -71 -44 -106 -60
-112 -54 -171 -139 -171 -247 l0 -45 -34 33 c-38 37 -108 61 -178 61 -30 0
-65 8 -90 21 l-42 21 -24 -28 c-87 -107 -88 -208 -2 -379 80 -158 85 -262 19
-393 -19 -37 -29 -66 -23 -71 21 -19 136 -41 211 -41 159 0 322 65 488 195
162 126 284 289 438 582 141 269 228 376 375 462 85 49 149 70 248 79 l79 8
-40 21 c-77 40 -153 54 -324 60 -242 8 -318 -15 -486 -148 l-89 -71 -19 60
c-18 56 -79 151 -103 159 -7 2 -13 -19 -17 -58z"/>
<path d="M8120 11995 c-288 -36 -630 -108 -855 -182 -316 -103 -648 -286 -940
-519 -132 -105 -454 -425 -549 -544 -163 -206 -291 -406 -410 -640 -211 -414
-354 -785 -430 -1113 -33 -140 -42 -197 -32 -197 2 0 45 22 97 49 106 55 225
100 344 127 62 15 119 19 250 19 174 0 268 -13 385 -53 48 -17 43 -17 -253
-17 -294 -1 -305 -1 -398 -27 -117 -32 -221 -80 -317 -148 -115 -81 -153 -155
-202 -392 -43 -206 -54 -373 -44 -643 14 -378 16 -354 -54 -560 -62 -185 -107
-370 -118 -496 -7 -66 -11 -75 -54 -127 -132 -160 -207 -312 -421 -852 -49
-124 -111 -260 -137 -304 -28 -46 -93 -128 -161 -200 -62 -66 -131 -148 -154
-180 -143 -210 -276 -619 -322 -989 -21 -169 -20 -207 8 -248 34 -51 99 -72
222 -72 122 -1 213 22 255 65 30 30 31 34 50 183 16 129 64 323 106 429 74
185 175 327 371 523 203 202 500 405 888 605 l180 93 3 53 c2 29 -4 91 -13
139 -9 47 -14 87 -11 90 13 14 59 -83 73 -156 9 -45 19 -81 22 -81 3 0 78 29
166 64 103 42 161 70 163 80 5 23 -43 162 -73 215 -14 24 -24 46 -21 48 6 7
77 -92 126 -174 23 -40 48 -73 55 -73 7 0 41 9 76 19 35 11 97 29 137 41 39
11 72 25 72 31 0 18 -132 206 -244 348 -9 12 -7 12 13 2 44 -24 183 -166 244
-249 49 -67 65 -83 81 -79 12 3 77 17 146 31 150 31 190 44 190 59 0 27 -144
301 -201 382 -35 49 -115 140 -177 202 -62 62 -110 113 -107 113 21 0 166
-114 225 -177 76 -81 187 -243 276 -402 32 -56 63 -105 70 -108 6 -2 52 7 100
20 l89 24 -2 80 c0 46 -12 125 -27 186 -83 345 -279 681 -500 857 -31 25 -56
49 -56 54 0 5 23 44 50 88 57 88 76 128 132 278 l39 105 -5 -67 c-7 -86 -43
-189 -101 -290 -33 -57 -43 -83 -36 -92 26 -31 171 -126 193 -126 27 0 91 38
156 93 24 21 46 37 48 37 6 0 -16 -53 -36 -85 -11 -17 -37 -47 -60 -67 -42
-39 -46 -51 -30 -110 23 -80 121 -128 266 -128 101 0 181 23 288 85 44 25 81
44 82 42 1 -1 4 -76 6 -166 3 -186 5 -191 88 -191 53 1 78 13 114 57 15 18 63
50 108 72 l80 40 77 -78 c55 -57 95 -87 146 -112 67 -33 73 -34 190 -34 106 0
126 3 167 23 l47 24 -47 32 c-59 41 -104 100 -131 170 -44 118 -51 438 -14
671 26 166 8 318 -63 534 -65 199 -173 343 -322 431 -97 57 -154 117 -188 196
-28 65 -47 81 -91 72 -16 -3 -19 -17 -24 -115 -5 -100 -10 -120 -38 -178 -24
-48 -46 -76 -79 -100 -26 -19 -52 -35 -59 -35 -6 0 8 29 32 64 71 106 89 164
88 286 -1 123 -24 223 -76 326 -44 88 -113 174 -138 174 -12 0 -37 -24 -67
-62 -109 -143 -153 -178 -225 -178 l-34 0 87 88 c70 70 95 104 128 172 23 47
49 112 58 145 18 68 30 280 20 349 l-7 46 -66 -56 c-110 -94 -211 -128 -299
-104 -25 7 -41 16 -37 20 4 4 40 15 78 24 144 36 272 120 312 208 12 25 25 88
32 150 6 59 19 133 28 165 27 99 29 95 -64 114 -150 32 -240 93 -263 180 -6
23 -9 43 -7 45 2 3 16 -13 30 -35 48 -73 138 -120 271 -141 53 -8 73 -8 101 4
55 23 118 70 216 162 107 99 171 144 251 175 l58 22 -73 77 c-88 94 -127 166
-127 235 0 79 15 87 35 19 9 -33 27 -77 40 -99 28 -49 187 -205 208 -205 14 0
56 14 227 76 42 15 88 24 128 24 34 0 62 2 62 5 0 2 -11 38 -25 79 -43 128
-31 242 33 309 26 28 80 62 87 55 2 -2 -9 -23 -26 -47 -57 -86 -72 -183 -43
-282 28 -93 50 -126 124 -180 78 -56 121 -106 151 -174 17 -39 20 -63 17 -132
l-3 -85 39 7 c63 10 135 55 177 110 65 87 123 260 138 415 5 43 11 82 15 88 3
5 39 27 78 47 107 54 133 77 170 152 28 57 34 80 36 153 4 81 1 95 -47 241
-57 174 -63 231 -31 294 11 22 18 45 16 52 -11 28 -304 102 -488 122 -128 14
-446 12 -578 -4z"/>
<path d="M10114 11199 c-10 -12 -46 -42 -79 -68 -244 -192 -508 -255 -739
-177 l-79 27 -71 -42 c-137 -81 -136 -79 -136 -165 0 -178 -59 -332 -169 -445
-83 -84 -124 -103 -266 -123 -151 -20 -190 -34 -190 -66 0 -22 14 -32 97 -75
54 -27 101 -54 105 -58 4 -4 10 -41 14 -81 12 -127 86 -232 250 -358 187 -145
256 -267 293 -525 18 -118 56 -224 110 -306 73 -110 153 -152 289 -150 43 0
80 3 83 6 3 2 -13 31 -36 63 -48 69 -70 136 -70 219 0 83 -21 159 -72 256 -42
79 -43 83 -46 192 -3 116 -11 151 -45 201 -17 24 -18 30 -6 37 8 5 38 23 66
39 l53 31 47 -47 c63 -62 128 -91 233 -103 67 -8 105 -19 180 -54 107 -50 235
-96 360 -128 106 -27 163 -22 267 24 43 19 104 43 136 53 31 10 57 22 57 26 0
5 -22 46 -49 91 -88 145 -116 278 -88 412 8 39 13 73 11 76 -2 3 -29 11 -61
19 -85 19 -156 53 -207 100 -59 55 -78 113 -69 215 6 70 5 73 -20 90 -44 29
-67 17 -103 -53 -43 -85 -65 -107 -152 -150 -67 -33 -81 -36 -155 -35 -88 0
-141 17 -206 67 -53 40 -98 35 -157 -15 -27 -22 -66 -49 -88 -61 -49 -25 -131
-34 -171 -18 -30 12 -30 12 35 26 152 32 264 118 338 261 53 102 60 107 121
99 63 -8 75 -3 96 45 l18 39 53 -50 c30 -28 73 -60 96 -70 85 -39 182 -20 262
51 36 31 43 33 100 31 80 -4 184 28 233 71 38 33 72 97 73 133 l0 22 -57 -24
c-125 -51 -221 -25 -336 90 -101 101 -129 184 -92 274 20 48 12 82 -19 82 -12
0 -31 -9 -42 -21z"/>
<path d="M9815 10482 c-76 -17 -124 -136 -80 -199 18 -26 100 -53 157 -53 92
0 142 48 142 136 1 44 -3 58 -24 79 -14 13 -39 27 -56 31 -28 5 -32 3 -46 -33
l-16 -38 -12 33 c-13 36 -35 51 -65 44z"/>
<path d="M10729 9858 c-32 -63 -24 -183 19 -270 17 -35 42 -74 55 -86 l24 -23
49 25 c27 13 91 40 143 60 94 35 141 68 167 118 19 37 19 38 -19 38 -83 0
-178 43 -286 129 -85 68 -121 70 -152 9z"/>
<path d="M9434 9525 c-4 -9 15 -51 45 -100 70 -113 98 -186 127 -327 57 -274
157 -433 323 -513 31 -15 93 -51 137 -80 77 -50 84 -58 126 -136 44 -84 44
-84 83 -84 l40 0 -2 57 c-2 72 -18 128 -44 162 -12 15 -83 68 -158 118 -75 51
-160 117 -189 147 -100 104 -186 321 -212 536 -14 115 -35 141 -155 201 -75
37 -112 43 -121 19z"/>
<path d="M9987 9212 c5 -85 3 -104 -15 -145 l-21 -47 35 0 c42 0 101 23 132
53 51 47 75 140 44 175 -19 22 -119 62 -156 62 -24 0 -24 0 -19 -98z"/>
<path d="M1275 9205 c-17 -130 37 -276 139 -379 76 -78 221 -193 351 -281 55
-38 99 -70 98 -73 -1 -3 -62 -23 -135 -44 -188 -55 -416 -147 -608 -247 -305
-157 -355 -180 -444 -206 -188 -54 -361 -53 -569 1 -54 15 -100 24 -102 22
-10 -10 88 -106 133 -131 73 -39 131 -55 255 -66 159 -15 404 15 523 65 18 8
35 10 38 6 3 -5 -6 -73 -20 -153 -14 -79 -28 -194 -31 -255 -5 -96 -3 -121 16
-182 54 -178 288 -416 476 -483 103 -37 198 -37 350 2 113 28 147 33 260 33
156 0 216 -17 249 -73 19 -33 19 -36 2 -95 -50 -176 -49 -168 -37 -222 14 -62
57 -124 109 -159 37 -24 73 -33 215 -54 48 -7 79 -18 104 -37 55 -42 63 -73
61 -231 -3 -163 11 -210 89 -308 64 -80 136 -119 210 -112 28 3 63 12 78 20
27 14 27 14 -36 26 -110 22 -159 95 -159 238 0 72 1 74 78 218 61 112 -10 247
-171 324 -123 59 -179 154 -181 306 -1 74 2 86 39 160 40 79 40 81 39 190 0
90 -5 121 -24 170 -29 75 -102 150 -185 191 -54 26 -70 29 -155 29 -106 0
-126 -7 -220 -79 -128 -99 -340 -242 -400 -270 -61 -29 -72 -31 -180 -31 -95
0 -125 4 -171 23 -148 59 -230 195 -230 385 0 317 201 596 545 758 368 172
723 198 1065 77 166 -59 350 -162 506 -283 229 -179 367 -409 420 -700 46
-250 25 -765 -46 -1125 -72 -364 -146 -582 -360 -1056 -305 -678 -426 -1067
-471 -1509 -14 -140 -19 -890 -6 -936 l8 -26 952 -5 c823 -5 959 -4 1003 9 66
20 155 84 277 202 167 160 292 322 483 626 143 227 408 627 535 805 228 322
304 443 420 669 l75 146 61 -3 c149 -8 340 54 494 162 73 51 74 52 49 6 -13
-23 -50 -66 -81 -95 -101 -94 -217 -135 -379 -135 -113 0 -110 2 -158 -115
-85 -208 -200 -398 -449 -742 -64 -89 -187 -270 -272 -403 -169 -263 -388
-594 -505 -762 -86 -124 -103 -172 -86 -237 16 -60 67 -129 123 -167 75 -51
231 -69 275 -32 7 6 13 26 13 45 0 19 3 33 8 31 110 -55 146 -68 205 -79 99
-16 286 -5 308 19 52 56 74 233 45 365 -46 206 -152 303 -353 325 -76 8 -77 9
-48 22 48 21 126 24 167 7 43 -18 39 -22 92 84 110 223 494 649 846 939 556
459 574 476 644 610 32 63 53 119 76 207 10 41 12 42 89 68 207 69 304 202
329 451 l7 65 58 24 c109 44 148 89 178 208 7 27 29 75 51 108 21 33 38 61 38
63 0 3 -27 -2 -59 -10 -137 -31 -367 -74 -531 -98 -167 -24 -295 -37 -713 -71
-546 -45 -1073 -199 -1740 -511 -364 -170 -597 -326 -831 -553 -242 -236 -382
-438 -456 -661 -40 -118 -50 -171 -60 -320 -4 -70 -14 -141 -23 -161 -20 -49
-71 -86 -158 -115 -164 -56 -289 -51 -424 16 -43 22 -82 36 -86 32 -14 -15
-29 -233 -29 -412 0 -163 -16 -339 -36 -402 -3 -10 -15 -18 -28 -18 -20 0 -24
6 -30 52 -9 83 -7 500 4 649 38 500 185 1093 445 1794 222 598 286 883 302
1340 7 205 -8 439 -38 587 -85 424 -400 847 -769 1033 -115 57 -203 88 -391
135 -292 74 -705 207 -866 280 -205 93 -405 279 -515 480 -18 33 -36 60 -40
60 -4 0 -10 -25 -13 -55z"/>
<path d="M10302 9198 c-7 -7 -12 -22 -12 -35 0 -28 -17 -67 -52 -120 -31 -46
-26 -57 21 -43 45 13 93 44 117 77 33 44 65 113 59 123 -9 14 -119 12 -133 -2z"/>
<path d="M7233 6859 c-6 -6 -48 -24 -94 -40 -97 -33 -216 -39 -309 -14 -30 8
-56 13 -58 11 -5 -5 43 -139 112 -314 60 -152 90 -264 102 -374 4 -40 11 -68
18 -68 6 0 72 9 146 20 74 11 195 23 268 27 73 3 135 9 137 13 3 4 14 72 25
150 25 181 44 256 86 349 19 41 32 76 29 79 -11 11 -101 -34 -145 -73 -41 -36
-58 -45 -104 -50 -56 -7 -143 1 -184 16 l-24 9 8 135 c3 74 5 135 2 135 -2 0
-9 -5 -15 -11z"/>
<path d="M7351 4554 c-85 -78 -161 -155 -169 -170 -16 -30 -15 -73 8 -384 16
-216 -1 -403 -49 -531 -12 -30 -50 -96 -85 -147 -42 -61 -69 -113 -80 -153
-10 -33 -15 -63 -13 -66 3 -2 36 11 73 30 136 68 209 59 312 -37 l65 -61 96 0
c108 0 139 11 204 74 47 44 70 86 62 111 -3 10 -30 32 -59 49 -81 45 -126 110
-173 245 -53 158 -66 360 -42 711 5 88 9 230 7 316 l-3 156 -154 -143z"/>
<path d="M8065 3288 c-47 -17 -81 -44 -213 -166 -129 -119 -184 -153 -281
-173 -39 -8 -166 -8 -475 0 -429 11 -558 22 -721 60 -47 12 -91 21 -95 21 -5
0 -7 -59 -4 -132 5 -106 3 -149 -11 -208 -10 -41 -18 -85 -19 -98 l-1 -22 634
0 c449 0 638 4 648 11 7 6 13 20 13 31 0 25 33 88 58 111 19 18 20 17 26 -37
4 -31 16 -66 27 -80 46 -59 234 -74 331 -27 39 18 52 33 80 86 33 66 48 80 48
47 0 -10 13 -36 29 -58 16 -21 30 -48 33 -59 3 -19 12 -20 306 -23 l302 -2 0
64 c0 145 40 227 135 273 30 15 57 33 60 41 8 22 -65 89 -113 101 -78 21 -143
-2 -279 -100 -155 -112 -183 -102 -183 65 0 138 -38 218 -124 263 -38 20 -170
27 -211 11z"/>
<path d="M8952 2805 c-53 -16 -80 -39 -99 -82 -15 -37 -9 -101 14 -145 l14
-28 365 0 365 0 -88 46 c-48 26 -144 79 -213 120 -69 40 -145 80 -169 89 -53
18 -131 18 -189 0z"/>
<path d="M2086 2494 c-8 -20 -8 -268 0 -288 6 -15 352 -16 3823 -16 3613 0
3818 1 3851 18 43 21 85 82 102 144 11 44 10 50 -8 75 -27 36 -91 60 -196 73
-56 7 -1298 10 -3824 10 -3403 0 -3742 -1 -3748 -16z"/>
<path d="M2096 2114 c-14 -13 -16 -62 -16 -384 0 -203 3 -375 6 -384 6 -15
374 -16 4070 -16 3366 0 4064 2 4064 13 0 8 -28 56 -62 108 -44 67 -111 144
-234 269 -189 191 -215 222 -280 323 -26 39 -55 72 -70 77 -16 7 -1364 10
-3744 10 -3367 0 -3720 -1 -3734 -16z"/>
<path d="M2087 1273 c-9 -8 -9 -196 -1 -217 6 -15 371 -16 4046 -16 3583 0
4042 2 4068 15 16 8 34 24 40 34 13 26 13 117 -1 143 -27 51 227 48 -4112 48
-2219 0 -4037 -3 -4040 -7z"/>
<path d="M5881 972 c-3013 -2 -3786 -5 -3793 -15 -13 -21 -10 -591 4 -605 9
-9 808 -12 3534 -12 3104 0 3524 2 3537 15 23 22 45 101 50 182 11 148 98 244
267 293 41 12 94 33 117 46 45 26 91 81 77 92 -5 4 -1712 6 -3793 4z"/>
<path d="M2087 253 c-10 -9 -8 -225 1 -241 7 -10 735 -12 3643 -10 3490 3
3635 4 3667 21 89 48 72 181 -28 221 -37 15 -352 16 -3659 16 -1990 0 -3621
-3 -3624 -7z"/>
</g>
</svg>
