<?xml version="1.0" standalone="no"?>
<!DOCTYPE svg PUBLIC "-//W3C//DTD SVG 20010904//EN"
 "http://www.w3.org/TR/2001/REC-SVG-20010904/DTD/svg10.dtd">
<svg version="1.0" xmlns="http://www.w3.org/2000/svg"
 width="1092.000000pt" height="1280.000000pt" viewBox="0 0 1092.000000 1280.000000"
 preserveAspectRatio="xMidYMid meet">
<metadata>
Created by potrace 1.15, written by Peter Selinger 2001-2017
</metadata>
<g transform="translate(0.000000,1280.000000) scale(0.100000,-0.100000)"
fill="#2196f3" stroke="none">
<path d="M7250 12790 c-264 -12 -515 -29 -585 -40 -33 -5 -120 -16 -193 -25
-88 -10 -164 -25 -220 -45 -111 -37 -173 -53 -358 -89 -265 -52 -368 -86 -380
-125 -9 -28 -42 -66 -198 -226 -298 -304 -364 -384 -391 -473 -10 -32 -45
-101 -78 -155 -60 -98 -137 -249 -192 -377 -16 -39 -66 -131 -111 -205 -45
-74 -109 -186 -143 -249 -74 -135 -119 -204 -219 -331 -41 -52 -86 -119 -100
-148 -13 -29 -39 -128 -58 -220 -41 -196 -63 -276 -111 -392 -70 -170 -143
-475 -158 -663 -9 -108 -23 -122 -209 -212 -492 -239 -1121 -433 -1633 -505
-327 -45 -506 -87 -703 -165 -52 -20 -120 -41 -151 -46 -112 -18 -533 -165
-665 -232 -27 -14 -73 -41 -103 -61 -30 -20 -103 -62 -162 -92 -128 -66 -129
-67 -129 -230 0 -130 -10 -120 105 -100 39 7 78 11 87 8 20 -5 32 -34 53 -132
23 -109 88 -335 139 -485 43 -126 136 -474 136 -508 0 -25 -26 -20 -49 9 -25
32 -57 132 -67 206 -4 29 -18 69 -31 88 -12 19 -23 45 -23 57 0 34 -44 144
-101 252 -63 121 -82 146 -103 138 -25 -10 -22 -97 5 -131 16 -20 22 -44 24
-94 1 -37 3 -75 4 -84 0 -10 8 -18 17 -18 17 0 44 -57 44 -93 0 -14 -7 -30
-15 -37 -20 -17 -19 -22 14 -64 36 -45 71 -170 71 -254 0 -46 -4 -62 -14 -62
-14 0 -41 48 -48 85 -2 12 -13 21 -26 23 -20 3 -22 -1 -22 -45 0 -86 56 -376
84 -438 14 -31 35 -107 46 -168 12 -62 28 -139 36 -172 23 -87 41 -213 54
-361 11 -133 21 -186 40 -209 8 -10 2 -21 -29 -46 -41 -32 -45 -49 -11 -49 28
0 58 -45 70 -108 25 -130 65 -162 65 -52 0 39 4 65 12 67 16 6 26 -14 38 -72
13 -62 36 -71 61 -23 14 27 16 51 11 143 -7 122 -31 301 -51 381 -14 55 -12
66 17 77 17 6 17 8 -2 34 -24 34 -37 105 -51 280 -12 157 -24 222 -47 270 -9
20 -16 52 -15 70 2 22 -5 45 -20 65 -17 25 -23 49 -26 117 -3 47 -11 99 -19
114 -18 37 -11 57 22 57 40 0 78 -44 72 -83 -5 -36 5 -71 28 -93 14 -15 21
-54 9 -54 -3 0 -14 10 -24 23 -10 12 -21 19 -25 15 -14 -13 4 -53 41 -92 42
-44 82 -129 91 -191 5 -37 2 -45 -16 -54 -30 -16 -27 -49 4 -57 18 -4 34 -21
49 -53 36 -69 69 -187 62 -216 -4 -17 3 -48 23 -93 40 -93 48 -123 66 -236 9
-55 25 -119 36 -143 32 -70 64 -323 40 -323 -5 0 -14 7 -21 15 -18 22 -30 9
-30 -35 0 -52 -15 -88 -53 -128 -43 -46 -95 -71 -180 -87 -96 -19 -161 -39
-238 -74 -36 -16 -81 -32 -101 -36 -20 -4 -44 -15 -53 -25 -18 -20 -33 -90
-19 -90 5 0 40 27 78 60 38 33 73 60 78 60 20 0 2 -25 -76 -108 -96 -100 -189
-172 -244 -188 -45 -13 -57 -43 -74 -185 -9 -79 -9 -101 2 -114 18 -22 37 -14
161 71 137 93 229 141 229 119 0 -23 -78 -103 -129 -133 -69 -39 -118 -78
-199 -156 l-72 -70 0 -1296 c1 -1492 10 -2002 37 -2085 17 -53 19 -55 63 -62
60 -11 1129 -10 1202 0 31 5 66 17 79 28 27 24 41 24 231 -1 395 -51 1539 -54
1685 -5 63 22 237 47 268 39 17 -4 28 -16 33 -38 8 -32 36 -46 54 -28 6 6 -1
31 -22 70 -38 74 -38 116 3 146 24 18 46 22 138 24 60 2 109 1 109 -2 0 -3
-16 -38 -36 -77 -38 -73 -56 -159 -35 -159 6 0 22 18 36 40 27 43 55 65 98 75
15 4 27 9 27 11 0 1 -9 19 -21 38 -16 28 -18 39 -9 55 27 52 67 5 104 -123 10
-32 28 -69 42 -83 24 -24 29 -25 134 -21 66 2 114 8 121 15 17 17 4 55 -36
103 -62 75 -40 106 53 74 74 -25 119 -68 128 -123 11 -66 31 -74 171 -69 153
6 214 32 143 62 -39 16 -28 26 26 26 23 0 54 4 68 10 22 8 26 16 26 49 0 39
-20 71 -44 71 -7 0 -27 -11 -46 -25 -19 -14 -45 -25 -58 -25 -34 0 -84 53 -82
87 3 48 1 52 -32 61 -25 6 -35 16 -42 40 -5 18 -37 65 -72 104 -35 40 -68 84
-75 98 -24 52 -27 55 -53 52 -15 -2 -43 7 -63 19 -170 105 -533 549 -533 652
0 17 -10 33 -29 46 -17 12 -32 35 -36 52 -4 16 -25 50 -46 75 -26 30 -38 52
-34 63 3 10 -5 32 -17 49 -13 18 -36 50 -52 72 -17 24 -30 57 -33 83 -4 34
-16 57 -52 99 -65 76 -132 183 -237 378 -52 96 -105 180 -127 201 -20 20 -37
45 -37 55 0 25 -10 38 -37 53 -13 6 -23 20 -23 30 0 31 -84 134 -255 311 -159
165 -240 256 -261 295 -6 11 -20 21 -31 23 -12 2 -29 12 -38 22 -17 19 -49
119 -41 128 3 2 21 -15 41 -37 21 -23 44 -41 53 -41 8 0 34 11 56 24 58 33 91
39 124 22 32 -17 80 -99 117 -201 15 -42 41 -86 72 -122 73 -84 101 -122 125
-171 27 -58 296 -332 324 -332 13 0 26 -12 36 -34 18 -38 105 -143 292 -356
156 -177 215 -258 237 -324 14 -43 23 -53 51 -62 29 -10 33 -16 36 -52 2 -30
8 -43 22 -47 39 -12 170 -174 170 -210 0 -18 -31 5 -109 80 -48 47 -91 85 -95
85 -17 0 -3 -82 22 -130 36 -71 69 -95 128 -92 60 2 73 -5 179 -108 109 -105
152 -140 171 -140 26 0 15 36 -25 81 -38 43 -81 118 -81 139 0 30 -59 130
-127 212 -83 102 -167 222 -177 253 -3 12 -42 61 -85 110 -44 49 -94 113 -113
142 -18 29 -65 92 -104 140 -93 112 -156 216 -162 271 -9 79 17 50 119 -131
56 -101 101 -153 144 -167 38 -12 92 -74 104 -118 6 -20 14 -27 32 -27 20 0
25 6 27 33 3 25 -4 41 -27 68 -32 35 -40 64 -19 64 19 0 89 -81 109 -126 14
-34 24 -44 42 -44 38 0 60 23 66 71 5 35 10 45 28 47 16 2 30 -8 53 -40 45
-61 110 -184 171 -321 32 -74 61 -124 76 -134 20 -13 23 -23 23 -78 0 -58 2
-64 35 -94 26 -23 35 -40 35 -62 0 -20 15 -54 40 -91 22 -33 40 -69 40 -79 0
-27 33 -106 75 -177 20 -34 37 -72 38 -85 1 -12 15 -39 32 -61 23 -31 29 -47
27 -82 -1 -34 3 -46 18 -54 25 -14 26 -50 1 -98 -11 -21 -23 -55 -26 -76 -7
-37 -7 -38 21 -34 28 3 29 1 34 -42 4 -25 24 -78 47 -120 23 -41 47 -97 53
-125 19 -79 28 -99 60 -117 20 -12 30 -25 30 -41 0 -14 9 -35 19 -48 l19 -24
404 0 c280 1 411 4 430 12 25 11 26 14 16 50 -13 53 -30 73 -75 88 -21 7 -39
20 -41 29 -2 9 19 40 47 69 28 29 58 71 66 92 15 34 15 39 1 53 -21 21 -37 5
-45 -45 -6 -37 -8 -38 -50 -41 -40 -3 -42 -5 -37 -28 6 -22 4 -24 -11 -15 -27
14 -49 41 -66 81 -8 19 -38 62 -67 95 -72 82 -110 144 -110 176 0 22 -8 31
-37 46 -49 23 -56 61 -19 91 30 23 25 32 -18 32 -45 0 -56 11 -70 66 -9 37
-17 49 -31 49 -11 0 -24 11 -31 25 -47 103 -48 105 -86 114 -51 13 -49 32 12
103 60 69 69 96 45 123 -27 30 -34 25 -37 -28 l-3 -47 -43 2 c-38 2 -42 0 -37
-18 5 -13 2 -19 -10 -19 -28 0 -55 20 -55 41 0 31 -25 72 -91 151 -69 82 -99
135 -99 173 0 14 -6 25 -14 25 -36 0 -104 103 -111 168 l-3 37 -46 -3 c-42 -3
-47 -1 -56 23 -5 14 -10 37 -10 51 0 15 -19 45 -54 83 -30 33 -62 74 -72 93
-23 46 -72 111 -159 215 -48 56 -81 106 -91 136 -9 27 -37 73 -64 103 -34 39
-52 70 -60 105 -10 40 -18 53 -39 60 -38 15 -57 35 -95 103 -19 34 -60 94 -90
134 -31 41 -59 86 -62 100 -3 15 -18 37 -33 49 -24 21 -26 29 -26 99 0 57 -4
78 -14 82 -11 4 -13 -2 -8 -25 7 -36 -7 -53 -45 -53 -21 0 -28 5 -28 19 0 11
-16 39 -35 63 -67 84 -94 125 -102 159 -6 23 -16 35 -30 37 -21 3 -92 74 -233
231 -91 102 -107 125 -120 173 -6 20 -23 52 -38 69 -33 41 -128 103 -190 125
-87 31 -152 65 -152 80 0 8 -21 37 -46 64 -26 28 -44 50 -42 50 18 0 90 -37
131 -68 27 -19 59 -36 71 -37 37 -4 76 -29 171 -110 51 -43 121 -91 162 -111
42 -20 90 -53 114 -79 48 -50 94 -74 111 -57 19 19 -1 57 -84 156 -189 224
-267 321 -410 511 -228 300 -272 375 -223 375 16 0 32 -19 107 -130 106 -157
227 -316 373 -490 172 -205 277 -310 335 -340 54 -27 90 -58 90 -79 0 -8 71
-87 158 -175 202 -206 270 -281 289 -322 15 -30 15 -35 -5 -68 -25 -42 -22
-44 18 -15 19 15 36 20 53 15 47 -11 373 -370 404 -445 9 -20 40 -62 69 -94
54 -58 117 -147 187 -262 19 -33 63 -96 96 -139 33 -44 87 -128 121 -187 39
-69 75 -119 99 -138 24 -19 47 -51 61 -83 30 -70 57 -108 79 -108 11 0 20 -13
28 -43 12 -42 70 -135 177 -282 32 -44 63 -91 69 -105 16 -36 59 -101 152
-225 100 -135 135 -193 135 -229 0 -33 32 -81 144 -211 48 -55 96 -120 108
-145 12 -25 43 -67 68 -95 62 -67 123 -149 204 -273 l67 -104 237 7 c569 15
860 33 904 56 10 6 51 13 91 16 48 3 81 11 99 24 33 23 33 23 66 0 77 -56 273
-74 783 -75 l406 -1 26 31 c31 36 161 128 211 149 50 21 117 19 301 -10 354
-56 437 -74 510 -110 39 -19 90 -39 115 -44 53 -12 250 -28 441 -36 l136 -5 7
302 c13 618 18 6446 7 7503 -11 995 -20 1305 -42 1362 l-10 26 -27 -32 c-25
-30 -29 -31 -47 -17 -19 13 -19 15 -2 33 23 26 22 38 -12 108 -32 69 -168 275
-181 275 -4 0 -22 29 -38 64 -86 185 -442 772 -703 1162 -372 554 -453 654
-998 1226 -329 346 -409 424 -485 477 -71 48 -105 66 -336 172 -52 24 -113 58
-136 75 -77 59 -76 59 -274 60 -102 1 -268 -2 -370 -6z m167 -215 c87 -30 437
-204 533 -265 163 -106 370 -292 370 -333 0 -19 8 -25 37 -33 36 -8 38 -12 45
-57 12 -88 115 -229 208 -286 l51 -31 -27 -46 c-25 -42 -26 -51 -21 -127 4
-62 17 -115 52 -216 27 -77 44 -142 41 -154 -4 -15 3 -30 20 -48 14 -14 31
-47 39 -72 12 -41 12 -49 -1 -62 -9 -8 -24 -15 -34 -15 -29 0 -43 -36 -36 -91
10 -72 70 -286 116 -405 22 -59 40 -118 40 -130 0 -13 9 -28 20 -34 36 -19 17
-118 -26 -134 -14 -5 -16 -15 -10 -62 8 -71 -3 -92 -54 -100 -44 -7 -45 -24
-1 -24 35 0 63 -29 95 -100 30 -66 76 -222 76 -258 0 -14 18 -62 40 -106 29
-59 46 -115 64 -206 14 -69 40 -175 59 -235 19 -61 38 -133 41 -160 4 -28 9
-64 12 -82 2 -18 23 -56 44 -85 22 -29 40 -62 40 -74 0 -12 14 -51 30 -87 17
-37 30 -74 30 -83 0 -22 77 -214 145 -364 69 -152 85 -195 135 -378 22 -79 67
-209 101 -289 33 -79 74 -197 90 -261 17 -65 45 -149 64 -187 19 -39 35 -78
35 -88 0 -16 31 -116 84 -264 14 -40 30 -111 37 -159 8 -59 18 -97 34 -120 27
-40 107 -277 129 -384 24 -117 36 -243 36 -380 0 -133 -7 -163 -34 -141 -17
15 -31 77 -45 212 -11 96 -49 233 -91 322 -45 95 -51 66 -60 -258 -7 -282 -15
-334 -46 -303 -8 8 -18 38 -23 67 -4 29 -18 66 -31 83 -22 30 -22 32 -6 77 18
51 22 131 6 131 -26 0 -3 222 30 297 l19 42 -27 20 -27 20 28 1 c37 0 34 13
-13 50 -44 35 -44 50 -1 50 54 0 71 56 25 87 -56 39 -64 51 -64 100 0 26 -14
159 -30 295 -28 224 -35 260 -71 361 -93 259 -159 457 -159 482 0 18 -7 28
-25 35 -19 7 -25 17 -25 38 0 17 -10 38 -25 52 -23 22 -47 74 -59 132 -3 15
-29 55 -56 89 -28 34 -50 71 -50 81 0 11 -13 50 -30 88 -35 79 -35 80 -15 80
27 0 16 33 -25 70 -27 25 -65 83 -109 167 -38 72 -111 197 -161 279 -51 82
-108 181 -126 219 -18 39 -50 96 -70 128 -29 44 -37 68 -37 102 0 43 -2 45
-28 45 -16 0 -37 10 -49 23 -18 18 -21 31 -17 70 4 44 2 49 -19 58 -14 5 -24
17 -24 29 0 11 -29 92 -66 181 -69 169 -90 259 -61 259 20 0 41 -72 33 -111
-4 -23 0 -32 25 -49 16 -12 45 -52 63 -88 19 -37 43 -75 55 -86 20 -18 21 -18
30 7 6 16 6 49 1 90 -11 78 -25 116 -50 139 -15 15 -18 27 -13 66 4 36 0 56
-16 87 -20 40 -78 229 -192 628 -33 115 -78 256 -100 315 -29 75 -39 116 -36
139 5 27 -3 41 -64 115 -38 45 -77 103 -86 128 -22 60 -61 115 -120 171 -64
61 -122 99 -153 99 -14 0 -36 3 -49 7 -22 6 -23 9 -17 60 l6 55 -25 -29 c-13
-15 -25 -22 -25 -15 0 20 -29 14 -45 -11 -16 -25 -11 -57 19 -115 24 -46 20
-47 -26 -9 -57 45 -80 57 -117 57 -40 0 -68 -38 -51 -69 6 -12 17 -21 25 -21
25 0 76 -52 131 -134 l54 -81 -55 -6 c-104 -12 -126 -72 -55 -154 22 -25 44
-64 50 -86 8 -28 18 -43 37 -50 24 -9 25 -13 20 -59 -5 -45 -4 -50 13 -50 27
0 51 -51 58 -123 4 -48 9 -61 25 -65 44 -11 167 -246 341 -655 120 -280 142
-325 307 -634 131 -244 172 -339 167 -391 -3 -37 6 -46 53 -56 21 -5 25 -10
22 -28 -3 -16 9 -40 36 -77 22 -29 48 -77 57 -105 17 -52 72 -180 187 -436 35
-80 76 -181 91 -225 25 -77 37 -100 91 -174 14 -19 25 -47 25 -63 0 -33 13
-61 41 -89 12 -12 19 -33 19 -55 0 -42 -14 -37 -30 12 -8 24 -15 33 -22 26
-18 -18 -10 -114 17 -202 92 -299 97 -366 21 -275 -20 25 -41 45 -46 45 -24 0
-18 -48 19 -157 23 -64 41 -132 41 -151 0 -30 -3 -34 -21 -29 -32 8 -39 -28
-39 -200 0 -86 -5 -184 -12 -220 -10 -57 -9 -70 11 -132 12 -38 21 -85 19
-107 l-3 -39 -45 0 c-44 0 -45 0 -52 -40 -4 -22 -7 -157 -8 -300 -1 -415 -21
-593 -99 -855 -27 -91 -66 -221 -85 -288 -20 -68 -57 -168 -81 -222 -25 -53
-49 -118 -54 -144 -9 -49 -25 -76 -46 -76 -7 0 -15 -18 -18 -41 -11 -83 -177
-386 -217 -396 -21 -6 -23 -11 -20 -59 1 -23 -5 -35 -24 -47 -13 -9 -41 -48
-62 -87 -23 -44 -54 -85 -80 -106 -29 -24 -44 -45 -48 -68 -5 -24 -28 -55 -76
-105 -45 -45 -79 -91 -95 -126 -27 -63 -66 -121 -130 -196 -50 -59 -113 -111
-126 -103 -4 2 -5 -11 -2 -30 4 -28 -2 -48 -31 -99 -20 -36 -41 -88 -47 -116
-9 -42 -23 -64 -81 -128 -38 -42 -78 -94 -89 -115 -23 -45 -51 -147 -43 -159
7 -12 47 17 131 94 38 34 101 88 140 120 78 62 93 83 102 136 5 26 15 39 41
53 19 11 88 72 153 136 119 117 119 117 82 57 -79 -127 -119 -182 -164 -225
-25 -25 -64 -79 -85 -120 -22 -41 -52 -86 -67 -100 -15 -14 -28 -34 -30 -45
-3 -11 -16 -22 -34 -27 -17 -4 -55 -28 -85 -53 -57 -47 -107 -75 -133 -75 -8
0 -25 -20 -37 -45 -34 -70 -142 -156 -311 -248 -36 -20 -90 -55 -120 -78 -55
-42 -288 -159 -392 -198 l-58 -21 3 21 c2 13 18 30 37 40 80 42 60 54 -126 74
-151 16 -178 22 -209 42 -12 7 -70 22 -130 32 -65 11 -155 36 -224 62 -63 24
-129 43 -147 43 -24 0 -33 5 -35 19 -3 22 -19 33 -58 41 -17 3 -32 18 -42 38
-9 18 -66 87 -128 153 -195 207 -348 414 -371 499 -6 22 -15 48 -20 56 -29 47
-41 96 -59 247 -32 277 -81 498 -171 768 -70 209 -121 310 -179 350 -30 21
-48 43 -54 64 -5 18 -25 45 -44 59 -68 52 -82 72 -82 117 0 53 -34 106 -78
121 -18 5 -36 14 -41 20 -7 7 -41 187 -41 218 0 12 -22 6 -48 -14 -15 -12 -29
-17 -34 -12 -5 5 -13 47 -17 93 -8 92 -20 121 -55 144 -37 25 -50 67 -42 144
5 58 3 72 -12 91 l-18 22 -27 -23 c-65 -58 -95 -348 -78 -766 12 -275 20 -330
56 -383 34 -49 43 -80 51 -157 8 -81 22 -106 72 -132 30 -15 45 -34 74 -93 35
-69 75 -123 211 -284 32 -38 61 -81 64 -95 5 -27 38 -49 71 -49 26 0 62 -29
62 -50 0 -10 14 -29 30 -42 108 -82 116 -96 150 -246 25 -112 67 -235 118
-342 46 -97 59 -140 43 -140 -11 0 -36 35 -84 120 -14 25 -83 117 -153 205
-70 88 -143 185 -162 215 -42 64 -169 201 -537 580 -291 298 -374 395 -414
480 -25 54 -26 60 -25 255 1 251 32 752 47 784 7 14 17 26 24 28 22 7 26 -47
14 -163 -14 -127 -8 -154 35 -154 29 0 29 7 4 -115 -16 -77 -8 -333 14 -432
27 -124 82 -243 100 -215 3 6 10 129 16 273 12 332 44 596 106 864 75 327 113
523 125 640 9 94 23 197 46 353 3 21 -2 49 -12 73 -17 36 -17 48 -6 121 7 45
28 149 47 232 19 83 37 189 41 235 l6 84 -27 -5 c-33 -7 -38 1 -26 43 52 181
91 565 59 585 -20 12 -32 -15 -71 -163 -46 -178 -145 -485 -164 -510 -12 -16
-13 -15 -14 13 0 36 16 158 69 519 22 149 43 311 47 360 3 50 11 98 16 109 10
18 10 18 28 0 10 -11 28 -56 39 -100 25 -104 53 -162 104 -221 l42 -47 -1
-155 c-1 -86 -13 -284 -27 -441 -43 -468 -50 -611 -51 -920 l0 -295 37 -179
c20 -98 55 -232 77 -296 48 -141 252 -544 287 -567 12 -8 23 -21 23 -28 0 -7
18 -37 41 -65 51 -64 389 -422 513 -544 244 -237 513 -423 721 -499 242 -88
550 -165 611 -152 10 2 32 6 47 10 17 3 31 15 37 30 18 47 96 54 125 11 15
-21 16 -20 56 27 23 26 55 54 73 61 17 8 71 48 120 90 149 129 203 143 90 24
-113 -119 -186 -288 -128 -296 11 -2 48 15 82 38 34 23 72 41 84 40 40 -4 45
-1 58 33 16 39 49 77 67 77 26 0 25 -29 -4 -82 -29 -53 -170 -206 -210 -227
-21 -11 -22 -10 -17 19 6 27 3 31 -30 45 -20 8 -63 19 -96 23 -43 6 -64 15
-77 31 -17 20 -21 21 -46 10 -26 -12 -31 -20 -28 -45 1 -7 -5 -14 -13 -17 -17
-7 -131 10 -155 22 -19 11 -129 27 -273 41 -135 13 -234 38 -356 91 -53 23
-112 43 -130 44 -19 2 -43 11 -55 19 -70 51 -63 49 -98 31 -26 -14 -53 -16
-133 -14 -102 4 -105 3 -91 -33 5 -13 2 -18 -8 -18 -24 0 -73 67 -98 131 -27
75 -74 149 -94 149 -19 0 -41 36 -49 81 -15 84 -162 162 -212 112 -15 -15 -16
-35 -11 -188 7 -185 23 -282 62 -380 13 -34 47 -143 74 -241 62 -222 83 -282
120 -347 16 -29 32 -68 36 -87 9 -40 42 -95 95 -160 52 -63 80 -111 80 -139 0
-16 21 -44 64 -86 75 -73 127 -106 232 -145 42 -16 83 -35 93 -43 39 -35 109
-46 401 -62 160 -9 304 -13 320 -10 15 3 30 14 33 24 3 11 18 21 38 25 59 11
166 103 450 386 259 258 359 369 359 400 0 7 17 29 38 49 68 66 208 280 325
496 39 72 88 159 111 194 22 35 61 116 87 181 25 64 64 143 85 175 69 103 83
128 82 155 -1 33 13 60 68 127 28 34 44 64 44 81 0 15 15 59 34 98 20 42 55
155 86 275 35 137 74 260 120 374 37 94 73 195 79 225 17 84 79 303 116 415
43 126 72 290 85 470 23 317 31 395 52 505 19 105 21 150 22 515 1 286 -3 420
-12 470 -21 113 -81 322 -124 430 -22 55 -47 132 -55 170 -8 39 -30 98 -50
133 -25 45 -33 71 -29 88 5 20 1 28 -28 45 -38 22 -49 40 -40 73 3 15 -3 29
-21 46 l-25 24 26 27 26 27 -47 17 c-57 22 -67 40 -54 90 9 33 8 42 -11 67
-14 19 -20 39 -17 55 3 19 -1 26 -19 33 -15 6 -27 22 -34 50 -6 22 -23 55 -39
73 -37 43 -51 70 -51 102 0 18 -12 38 -35 59 -19 18 -35 39 -35 47 0 8 -25 45
-55 83 -30 38 -68 92 -84 120 -39 67 -73 173 -65 198 5 16 2 19 -18 18 -43 -4
-56 0 -86 25 -42 35 -65 87 -53 119 8 20 7 24 -4 20 -28 -11 -87 39 -188 160
-128 152 -369 395 -433 435 -32 21 -49 38 -49 52 0 15 -11 24 -37 34 -20 7
-60 33 -88 58 -28 25 -104 73 -169 106 -65 33 -142 79 -172 101 -30 23 -225
127 -434 231 l-380 190 -120 20 c-66 11 -165 22 -220 26 -96 5 -103 4 -173
-25 -198 -85 -442 -247 -607 -402 -144 -136 -298 -267 -450 -383 -55 -41 -122
-99 -150 -126 -85 -88 -125 -59 -69 51 14 29 62 110 106 182 44 71 91 152 105
180 14 28 45 74 68 101 45 53 75 105 75 129 0 8 13 24 30 36 16 11 38 41 49
65 11 24 69 133 129 242 60 109 131 240 156 292 26 51 59 104 74 118 14 13 31
39 37 56 6 19 18 33 30 35 30 6 45 22 45 48 0 14 8 25 20 29 11 3 77 58 147
122 70 64 143 122 160 129 32 14 39 27 45 84 2 17 10 26 26 28 16 3 22 10 22
28 0 44 17 64 55 64 22 0 35 5 35 13 0 27 48 57 218 138 l173 82 222 43 c254
50 301 53 333 23 25 -23 42 -18 96 27 57 47 147 61 411 63 166 1 184 -1 254
-24z m422 -1624 c63 -62 69 -102 11 -71 -20 11 -100 117 -100 132 0 15 37 -10
89 -61z m1362 -163 c43 -55 82 -126 93 -170 3 -15 22 -39 41 -54 21 -15 35
-35 35 -48 0 -12 11 -27 28 -37 17 -10 45 -48 76 -107 27 -50 73 -119 102
-154 32 -36 59 -78 65 -102 15 -57 35 -94 79 -146 57 -69 73 -106 67 -157 -4
-41 -3 -43 12 -28 35 30 81 12 81 -32 0 -13 9 -27 21 -34 20 -10 21 -17 15
-71 -5 -53 -4 -59 9 -48 13 10 19 9 35 -5 30 -27 107 -152 199 -320 59 -109
94 -162 129 -195 30 -28 55 -63 66 -92 9 -26 42 -87 73 -135 76 -118 116 -193
118 -216 1 -10 12 -24 26 -30 28 -15 31 -35 6 -51 -30 -19 -71 12 -77 59 l-5
40 -43 -3 -44 -4 7 55 c6 49 5 56 -20 83 -14 16 -59 80 -98 143 -39 63 -86
129 -105 147 -24 23 -35 45 -39 74 -5 33 -14 48 -45 72 -29 24 -38 38 -36 57
2 20 -2 27 -19 29 -53 8 -54 -92 -4 -206 17 -38 34 -95 40 -129 6 -42 17 -68
34 -85 13 -13 36 -57 52 -98 15 -41 52 -136 81 -210 29 -74 51 -136 49 -139
-12 -12 -42 36 -114 183 -140 285 -260 570 -275 659 -5 28 -12 37 -26 37 -29
0 -25 30 11 73 l30 37 -42 0 c-37 0 -48 6 -84 44 -41 43 -75 116 -75 163 0 13
-10 33 -22 45 -11 11 -25 41 -30 66 -5 31 -20 58 -47 87 -38 41 -115 187 -146
276 -8 23 -15 58 -15 79 0 26 -7 45 -24 61 -35 36 -48 68 -41 97 5 21 -1 32
-33 61 -29 27 -40 47 -45 78 -5 31 -15 47 -37 63 -17 12 -30 30 -30 40 0 10
-20 48 -44 83 -56 81 -76 120 -76 147 0 32 17 24 61 -32z m-3183 -149 c137
-15 333 -54 386 -77 24 -11 91 -32 149 -46 225 -57 429 -163 615 -322 41 -35
80 -64 86 -64 27 0 307 -310 440 -487 99 -132 167 -242 301 -488 98 -178 138
-242 169 -267 21 -17 21 -18 -10 -18 -22 0 -64 21 -139 70 -95 62 -155 90
-191 90 -6 0 -23 9 -37 20 -58 46 -245 7 -355 -74 -33 -25 -127 -109 -210
-189 -166 -160 -207 -186 -334 -211 -115 -24 -313 -38 -405 -31 -72 6 -86 10
-102 31 -30 38 -55 122 -55 186 -1 48 4 63 32 102 40 57 40 66 2 66 -38 0 -52
27 -25 46 10 8 33 14 50 14 69 0 98 59 44 89 -24 13 -31 13 -68 -4 -23 -10
-57 -35 -76 -56 -29 -32 -33 -43 -28 -73 4 -25 0 -42 -14 -63 -52 -74 -56
-152 -12 -241 34 -70 51 -151 69 -315 10 -95 9 -112 -5 -133 -8 -13 -25 -24
-36 -24 -56 0 -107 -55 -130 -142 -12 -44 -11 -50 14 -100 18 -36 33 -94 47
-180 22 -136 41 -201 66 -229 19 -21 11 -39 -16 -39 -27 0 -67 57 -81 115 -44
187 -90 290 -136 301 -43 11 -176 -3 -217 -22 -22 -11 -48 -31 -59 -46 -17
-23 -18 -31 -8 -56 7 -17 23 -40 37 -53 24 -23 33 -75 15 -95 -16 -17 -59
-138 -65 -182 -4 -31 -21 -65 -61 -119 -39 -53 -62 -97 -76 -147 -12 -39 -28
-81 -35 -93 -20 -32 -44 -29 -44 5 -1 63 -42 65 -61 3 -15 -49 3 -115 36 -137
14 -9 48 -17 77 -18 51 -1 54 0 70 33 l17 34 20 -34 c12 -19 21 -39 21 -45 0
-23 72 -94 95 -94 52 0 91 106 102 273 6 101 19 135 46 124 19 -7 22 -27 36
-212 11 -139 11 -140 43 -167 36 -32 171 -84 188 -73 7 4 30 46 52 94 l41 86
18 -41 c40 -90 98 -103 160 -36 42 44 49 75 23 103 -8 9 -19 41 -23 71 -10 73
-32 109 -117 199 -82 86 -85 94 -58 190 28 99 63 117 170 84 65 -20 81 -19 89
4 8 27 -13 58 -55 77 -52 25 -69 43 -76 83 -11 69 -48 163 -79 198 -24 28 -39
36 -65 37 -47 1 -50 27 -11 72 21 24 31 45 31 67 0 70 54 90 67 25 8 -46 205
-240 299 -296 165 -98 332 -147 342 -99 4 17 -2 21 -52 32 -52 11 -172 153
-148 177 13 13 46 -2 137 -61 42 -28 88 -51 101 -51 13 0 35 -11 49 -24 48
-45 232 -47 444 -6 120 23 157 18 191 -30 11 -15 20 -31 20 -34 0 -15 -30 -4
-51 19 -13 13 -28 25 -32 25 -5 0 -23 -15 -41 -34 -22 -23 -44 -36 -71 -41
-74 -11 -100 -21 -100 -35 0 -39 137 -19 280 41 53 22 122 44 153 49 36 6 62
17 72 29 19 25 46 35 134 50 99 17 135 34 147 71 9 24 16 30 37 28 35 -4 37
14 7 51 -28 32 -26 45 8 70 32 23 46 71 40 138 -6 68 -9 65 77 79 l45 7 -32
10 c-37 11 -41 22 -17 48 18 20 17 23 -38 92 l-23 28 23 40 c13 22 20 44 17
49 -3 6 -33 10 -65 10 -32 0 -61 4 -64 8 -3 5 -9 44 -15 88 -5 43 -19 99 -30
124 -11 25 -21 55 -21 68 -1 96 193 -136 268 -322 32 -78 52 -206 55 -343 2
-104 0 -113 -20 -132 -18 -17 -20 -26 -13 -51 10 -35 1 -43 -34 -34 -33 8 -38
-5 -34 -92 l3 -69 21 39 21 39 7 -47 c6 -37 12 -49 31 -56 17 -7 28 -23 39
-61 21 -68 20 -104 -1 -140 -15 -25 -16 -33 -4 -62 31 -76 23 -84 -50 -46 -23
11 -54 19 -72 17 -42 -4 -67 -52 -67 -130 0 -31 -4 -59 -8 -62 -5 -3 -25 15
-46 39 -43 52 -63 57 -71 18 -10 -45 -20 -57 -54 -65 -20 -6 -35 -18 -41 -34
-8 -21 -13 -23 -29 -14 -11 5 -23 15 -26 20 -3 6 -15 10 -26 10 -15 0 -19 -7
-19 -38 0 -46 -20 -78 -44 -69 -9 4 -16 15 -16 25 0 33 -13 33 -46 1 -20 -20
-48 -34 -71 -38 -31 -5 -39 -11 -41 -31 -6 -42 -20 -50 -69 -43 -43 6 -48 4
-74 -28 -27 -33 -30 -34 -100 -34 l-72 0 -26 -50 c-35 -68 -58 -67 -81 3 -24
71 -76 135 -91 110 -6 -9 -14 -4 -29 15 -28 35 -38 34 -91 -8 -24 -19 -50 -35
-56 -35 -24 0 -13 30 17 45 33 17 42 55 13 55 -10 0 -47 -9 -81 -20 -35 -11
-84 -20 -109 -20 -40 0 -44 2 -41 22 2 14 12 24 28 28 16 4 26 14 28 28 4 28
-9 28 -75 -4 -64 -30 -77 -24 -87 36 -4 24 -12 40 -20 40 -15 0 -160 -149
-153 -157 5 -4 69 11 103 24 9 3 -5 -26 -30 -66 -25 -39 -46 -76 -46 -81 0 -5
17 -8 37 -7 34 2 39 -1 59 -38 l21 -40 76 2 c43 2 77 -1 77 -7 0 -12 -55 -53
-107 -79 -24 -12 -43 -24 -43 -27 0 -4 33 -3 73 0 79 8 127 -3 127 -29 0 -26
23 -27 132 -10 57 9 118 18 137 21 23 4 46 18 67 41 19 20 39 33 47 30 7 -3
23 -31 35 -64 13 -34 52 -99 97 -158 76 -99 115 -163 115 -187 0 -7 12 -21 26
-33 21 -17 28 -36 40 -105 8 -47 29 -116 46 -154 18 -37 31 -78 30 -90 -1 -11
8 -54 19 -94 24 -86 20 -106 -41 -197 -22 -33 -40 -66 -40 -72 0 -8 13 -13 34
-13 78 0 237 167 326 345 69 138 72 156 26 197 -20 17 -36 40 -36 51 0 11 25
52 55 91 64 84 74 119 33 124 -55 6 -135 -97 -158 -205 -21 -99 -44 -163 -71
-195 -23 -28 -31 -31 -46 -22 -30 18 -29 55 4 81 27 22 28 25 27 120 -1 128
-17 180 -56 175 -3 -1 -11 4 -17 11 -12 15 46 240 72 281 11 15 30 28 52 32
43 8 105 -3 105 -18 0 -6 -15 -53 -32 -105 -36 -101 -33 -125 13 -131 36 -6
97 16 110 40 6 11 15 50 19 85 6 46 15 72 31 89 l22 23 -41 7 c-103 16 -72 65
92 148 132 66 194 118 277 226 l54 71 6 -348 c3 -191 9 -361 13 -378 4 -16 14
-58 23 -93 13 -51 14 -67 4 -90 -7 -15 -23 -67 -36 -117 -13 -49 -44 -144 -69
-210 -52 -137 -68 -156 -181 -210 -241 -115 -329 -155 -341 -155 -10 0 -14 12
-14 38 0 21 -6 47 -14 57 -13 18 -14 17 -40 -8 -24 -24 -136 -238 -136 -261 0
-11 46 19 83 52 18 18 30 23 37 16 31 -31 -58 -128 -208 -227 -122 -80 -268
-214 -442 -403 -206 -223 -256 -260 -400 -289 -47 -10 -121 -31 -165 -47 -70
-27 -97 -31 -214 -36 -153 -5 -235 7 -252 40 -9 16 -17 19 -45 14 -30 -6 -38
-3 -72 33 -52 54 -211 130 -290 138 -69 7 -92 18 -92 42 0 27 44 61 123 96 36
17 67 32 67 35 0 3 -27 16 -60 29 -101 40 -180 8 -180 -74 0 -80 -75 -93 -260
-44 -136 36 -192 97 -194 211 -1 76 18 99 67 78 19 -8 71 -14 132 -15 84 -1
115 -7 194 -34 52 -18 117 -35 145 -37 87 -9 97 -13 162 -76 35 -34 64 -59 64
-56 0 3 -11 30 -25 59 -13 29 -22 55 -20 57 2 3 156 6 342 7 369 2 387 5 508
64 104 51 127 94 66 125 -54 28 -86 28 -188 -1 -93 -26 -109 -28 -298 -27
-195 0 -202 1 -295 31 -103 33 -180 47 -338 63 -141 14 -214 32 -356 89 -67
27 -167 63 -224 81 -133 40 -146 53 -138 132 4 33 10 66 13 74 10 26 49 35
105 23 67 -15 82 1 72 78 -9 76 0 103 35 103 45 0 72 -29 78 -83 3 -26 10 -50
15 -53 6 -4 28 12 50 35 22 22 44 41 50 41 5 0 28 -10 51 -21 74 -38 92 -40
128 -13 29 21 35 22 53 11 32 -21 55 -75 66 -162 15 -110 26 -140 57 -154 21
-9 30 -9 49 4 31 20 30 47 -1 81 -21 22 -25 37 -25 85 0 31 3 64 6 73 15 38
115 0 134 -50 6 -14 10 -61 10 -105 0 -96 10 -119 51 -119 l30 0 -3 115 c-3
107 -2 116 19 136 20 21 25 21 62 10 22 -6 44 -17 48 -24 4 -6 10 -68 13 -137
l5 -125 26 -3 c37 -4 53 39 46 119 -7 81 6 123 46 147 55 34 91 36 123 9 27
-24 29 -29 34 -142 5 -100 8 -119 25 -131 21 -16 91 -19 99 -5 3 5 -5 33 -18
63 -50 112 -43 198 19 258 41 39 44 65 20 175 -24 112 -22 122 35 174 55 51
58 58 33 77 -38 29 -130 8 -153 -35 -16 -31 -11 -99 15 -206 29 -120 30 -136
7 -165 -14 -18 -24 -21 -53 -15 -48 9 -128 55 -152 87 -19 25 -19 29 -3 99 9
41 32 106 52 146 20 39 34 80 32 89 -2 12 -17 21 -43 27 -49 11 -193 3 -208
-12 -16 -16 11 -41 44 -41 53 0 61 -30 57 -194 -4 -174 -9 -184 -79 -166 -73
18 -96 30 -107 55 -8 17 -9 78 -5 189 6 151 5 166 -11 172 -36 14 -41 -10 -39
-194 3 -210 2 -212 -88 -212 -37 0 -63 5 -72 14 -28 29 -33 296 -6 348 5 9 19
18 31 20 25 3 26 10 12 136 -4 36 -2 89 5 125 7 34 14 76 17 92 l6 30 -44 -42
c-51 -50 -64 -53 -80 -18 -26 58 -46 15 -55 -119 -3 -59 -3 -106 0 -106 4 0
13 14 22 30 19 37 42 39 55 5 12 -32 2 -82 -22 -116 -23 -30 -38 -124 -38
-237 0 -98 -7 -104 -76 -69 -54 27 -78 50 -89 85 -10 34 14 160 41 214 13 26
24 54 24 62 0 20 -48 56 -75 56 -39 0 -47 -24 -56 -162 -5 -73 -14 -150 -19
-170 -10 -37 -12 -38 -56 -38 -54 0 -109 21 -123 48 -14 26 -14 175 0 225 6
21 26 56 45 77 45 50 43 76 -6 72 -36 -3 -50 5 -130 66 -24 17 -62 37 -84 43
-57 15 -66 25 -66 74 0 52 -15 66 -62 59 -19 -4 -38 -2 -41 3 -8 12 19 105 62
222 17 47 31 96 31 109 0 16 -17 40 -49 71 -57 53 -84 122 -58 148 12 13 19
13 48 0 46 -19 99 -73 106 -108 6 -33 15 -36 34 -13 7 8 34 26 59 39 43 22 70
56 70 91 0 8 15 21 34 29 39 16 46 30 46 88 0 110 -28 140 -147 157 -37 5 -97
19 -133 31 -54 18 -98 22 -261 28 l-197 6 -27 28 c-15 15 -34 27 -41 27 -7 0
-29 14 -49 31 -93 82 -151 329 -102 436 6 14 28 33 48 44 21 10 47 32 59 49
24 34 65 43 55 11 -12 -38 111 -112 188 -113 44 0 82 28 72 54 -4 9 -28 25
-55 36 -36 15 -49 26 -52 44 -2 15 -17 30 -43 44 -39 20 -40 22 -46 82 -4 38
-13 70 -24 82 -25 27 -22 59 10 105 27 40 27 41 22 170 -3 98 -10 146 -26 192
-25 74 -26 83 -6 83 21 0 53 -69 82 -179 20 -76 26 -128 30 -251 6 -178 9
-187 98 -268 62 -57 117 -85 209 -106 126 -30 167 -71 70 -71 -45 0 -49 -2
-49 -24 0 -18 15 -37 53 -68 l53 -43 -46 0 c-62 0 -115 -23 -115 -50 0 -11 7
-23 15 -26 11 -5 147 21 223 42 10 3 8 11 -7 33 -25 35 -26 58 -5 83 10 10 17
30 18 45 1 22 15 38 65 76 35 26 71 47 80 45 26 -5 26 -45 -1 -59 -31 -16 -38
-28 -38 -65 0 -63 76 -85 102 -30 12 28 78 66 158 91 88 28 110 42 110 71 0
13 16 66 35 116 46 118 52 156 30 198 -16 31 -16 38 0 115 21 99 15 174 -20
240 -14 25 -22 51 -19 59 8 20 -82 115 -115 122 -14 4 -58 26 -98 51 -81 49
-161 80 -236 89 -129 16 -443 150 -531 226 -34 30 -38 38 -40 83 l-1 50 -52 0
c-71 -1 -128 -40 -166 -115 -26 -49 -28 -63 -24 -130 3 -50 12 -95 30 -135 14
-33 23 -63 21 -67 -8 -12 -45 5 -62 29 -9 13 -39 52 -65 86 -63 80 -73 99 -87
174 -24 121 20 256 115 348 64 63 122 85 223 85 60 0 66 2 99 35 33 33 35 39
30 81 -7 63 29 131 140 267 48 59 102 125 120 147 17 21 41 68 52 103 26 78
109 213 123 199 6 -6 25 -1 51 13 50 27 69 33 297 84 240 54 267 57 418 40z
m-1768 -534 c10 -12 10 -19 1 -28 -14 -14 -44 2 -49 27 -4 21 31 22 48 1z
m-454 -1362 c12 -55 52 -124 194 -338 48 -71 95 -146 105 -165 9 -19 66 -85
125 -145 127 -129 143 -167 97 -230 -23 -30 -44 -4 -52 65 -8 69 -29 95 -51
65 -8 -10 -14 -35 -14 -54 0 -21 -10 -49 -25 -71 -14 -20 -42 -83 -61 -140
-45 -131 -73 -186 -124 -245 -44 -51 -78 -112 -112 -202 -13 -35 -38 -74 -64
-101 -24 -24 -67 -87 -96 -139 -53 -96 -75 -124 -121 -155 -17 -12 -33 -40
-47 -85 -13 -38 -40 -91 -61 -119 -22 -28 -46 -75 -55 -104 -8 -29 -38 -100
-66 -159 -27 -58 -56 -123 -64 -144 -7 -20 -29 -57 -47 -82 -23 -29 -37 -61
-42 -92 -4 -27 -17 -60 -31 -76 -17 -21 -22 -35 -18 -53 5 -18 0 -32 -16 -49
-14 -15 -26 -45 -31 -75 -5 -34 -20 -67 -45 -101 -20 -27 -34 -53 -30 -56 3
-4 -6 -19 -21 -35 -21 -22 -23 -28 -10 -28 22 0 23 -51 1 -111 -27 -77 -53
-200 -68 -327 -9 -68 -18 -127 -21 -132 -11 -18 -51 6 -122 75 l-75 72 56 82
c31 45 57 89 57 99 2 33 4 38 25 60 25 27 69 139 120 302 70 227 157 486 186
553 16 37 34 96 40 130 6 34 21 80 34 102 31 56 116 272 170 434 25 75 65 171
90 213 24 43 44 87 44 99 0 13 21 86 47 163 39 120 47 155 49 231 2 79 8 105
47 210 61 160 115 344 123 410 7 55 7 55 -21 55 -34 0 -88 -33 -114 -69 -11
-15 -30 -54 -42 -85 -11 -32 -41 -82 -65 -112 -25 -30 -52 -71 -60 -92 -32
-72 -24 -65 -96 -95 -51 -22 -174 -141 -195 -188 -12 -28 -29 -45 -60 -60 -50
-24 -145 -124 -208 -219 -55 -84 -87 -111 -123 -104 -39 8 -67 -18 -171 -154
-49 -64 -114 -146 -145 -181 -31 -36 -60 -79 -65 -97 -11 -40 -37 -78 -106
-159 -66 -77 -102 -131 -154 -230 -47 -89 -86 -135 -113 -135 -11 0 -20 10
-24 28 -11 45 -33 80 -53 87 -12 3 -23 20 -28 43 -5 24 -17 41 -31 47 -17 8
-21 16 -17 33 4 16 -2 33 -20 54 -32 38 -30 72 5 76 26 4 270 97 350 133 65
30 138 87 156 120 8 16 23 29 33 29 29 0 71 39 88 82 9 22 25 43 38 48 15 6
37 37 63 92 29 59 72 119 151 211 60 71 125 159 145 196 36 69 71 111 116 139
62 39 102 77 122 116 11 22 49 70 83 106 35 36 71 83 81 105 16 34 25 41 59
48 70 15 122 47 193 121 90 93 126 155 126 217 0 78 -48 110 -114 76 -20 -10
-26 -22 -30 -57 l-5 -45 -75 -5 c-82 -6 -96 -11 -159 -65 -24 -19 -49 -35 -57
-35 -17 0 -144 -146 -276 -319 -111 -145 -150 -183 -170 -163 -9 9 -1 27 35
79 59 87 75 129 55 149 -13 13 -22 13 -73 -1 -33 -8 -66 -15 -75 -15 -8 0 -38
-18 -65 -41 -67 -55 -95 -68 -142 -66 -31 1 -51 -6 -83 -28 -23 -17 -56 -38
-73 -47 -17 -9 -50 -36 -74 -60 -43 -41 -45 -42 -59 -24 -8 11 -14 23 -14 28
0 4 -11 10 -24 14 -33 8 -74 -15 -152 -86 -38 -35 -81 -64 -102 -70 -20 -5
-63 -31 -96 -57 -175 -142 -196 -154 -196 -110 0 16 9 28 28 36 137 62 174
181 55 181 -17 0 -27 -7 -30 -21 -5 -20 -11 -21 -59 -15 -45 5 -53 4 -48 -9
13 -32 -165 -159 -215 -153 -39 5 -94 124 -95 206 l-1 64 55 17 c30 10 78 29
105 43 113 58 405 133 470 121 28 -6 104 28 131 58 19 21 19 21 -15 50 -36 30
-35 31 24 44 16 4 104 37 195 75 292 121 551 200 655 200 l60 0 -40 -32 c-77
-63 -127 -112 -117 -116 14 -4 115 47 253 130 64 38 132 73 150 79 19 5 99 56
178 114 169 123 269 177 321 173 33 -3 35 -5 46 -55z m1383 -113 c65 -32 101
-76 101 -119 0 -47 -29 -87 -69 -96 -33 -7 -94 15 -128 47 -48 45 -64 136 -31
175 16 19 84 16 127 -7z m5452 -126 c46 -23 85 -116 104 -243 20 -129 10 -145
-37 -64 -19 32 -52 81 -73 108 -44 58 -85 140 -85 173 0 14 8 26 23 32 31 12
34 12 68 -6z m-3210 -140 c42 -21 64 -75 47 -112 -34 -70 -160 -68 -216 3 -27
34 -22 59 19 98 35 32 101 37 150 11z m2931 -1 c22 -19 24 -53 4 -53 -16 0
-46 37 -46 57 0 18 20 16 42 -4z m-2120 -108 c10 -39 0 -97 -21 -113 -9 -7
-16 -25 -16 -40 0 -23 -5 -27 -33 -30 -18 -2 -36 -10 -39 -18 -6 -17 13 -43
42 -54 14 -6 3 -9 -37 -9 -72 -1 -88 -8 -88 -37 0 -25 -37 -57 -110 -93 -25
-13 -55 -33 -68 -46 -28 -30 -98 -53 -113 -38 -18 18 7 50 68 85 42 25 63 45
80 78 13 25 49 69 79 98 30 29 63 72 73 95 21 48 135 160 159 155 9 -2 19 -16
24 -33z m2232 -105 c38 -72 43 -94 24 -106 -26 -16 -98 117 -98 183 0 25 1 25
19 9 11 -10 35 -48 55 -86z m-4874 10 c0 -11 -80 -71 -110 -82 -52 -19 -10 54
44 78 37 16 66 18 66 4z m1974 -5 c16 -17 11 -45 -8 -45 -15 0 -38 38 -31 50
9 14 21 12 39 -5z m-3024 -41 c0 -19 -46 -48 -65 -40 -23 8 -18 45 7 55 28 10
58 3 58 -15z m-35 -85 c9 -14 -24 -49 -47 -49 -22 0 -23 18 -1 42 18 20 38 23
48 7z m6004 -33 c15 -8 36 -33 46 -56 11 -24 35 -52 58 -68 24 -16 44 -40 50
-57 5 -16 25 -50 44 -75 44 -58 48 -79 33 -160 -15 -79 -16 -101 -6 -195 5
-45 3 -75 -4 -85 -19 -27 -37 14 -44 102 -9 119 -22 156 -72 207 -24 24 -44
48 -44 52 0 4 14 18 32 30 l32 23 -24 6 c-18 4 -26 14 -28 33 -2 16 -15 35
-32 47 -30 21 -50 71 -50 123 0 16 -10 38 -24 52 -21 21 -21 28 2 34 2 1 15
-5 31 -13z m-7715 -182 c8 -21 -3 -56 -15 -49 -12 8 -12 65 0 65 5 0 12 -7 15
-16z m-1700 -46 c13 -18 58 -100 100 -183 42 -82 94 -172 116 -199 25 -31 40
-58 40 -76 0 -19 6 -29 20 -33 17 -4 19 -11 14 -31 -5 -21 -2 -27 20 -36 17
-6 26 -17 26 -30 0 -29 18 -60 35 -60 13 0 25 -29 40 -94 3 -16 17 -43 31 -59
13 -16 24 -32 24 -37 0 -5 -15 -20 -32 -34 -31 -24 -32 -26 -10 -26 38 0 64
-19 57 -40 -5 -15 0 -21 22 -26 42 -10 48 -17 96 -117 25 -51 66 -120 91 -155
49 -66 55 -86 31 -96 -17 -6 -39 -55 -29 -65 3 -3 17 7 30 24 24 30 24 30 43
10 11 -11 46 -69 80 -130 65 -119 117 -187 158 -207 17 -8 30 -25 35 -44 4
-18 19 -39 32 -47 17 -11 28 -32 35 -69 7 -28 24 -68 38 -87 l26 -34 -32 -29
c-33 -29 -30 -34 19 -40 19 -2 24 -8 23 -26 -2 -14 4 -25 15 -29 32 -11 52
-36 58 -72 8 -45 21 -71 46 -91 11 -9 24 -37 29 -65 5 -27 17 -60 27 -73 9
-14 22 -31 27 -39 8 -11 2 -22 -25 -44 l-34 -29 29 0 c39 0 52 -10 56 -40 3
-17 11 -26 25 -28 31 -4 46 -25 99 -129 25 -51 63 -115 85 -142 22 -28 40 -55
40 -60 0 -5 -9 -26 -21 -46 -12 -19 -18 -42 -15 -51 8 -20 26 -8 26 17 0 27
27 35 50 14 26 -23 26 -52 0 -60 -26 -8 -108 4 -142 21 -67 34 -246 267 -328
427 -40 79 -50 108 -50 147 0 28 -4 50 -9 50 -20 0 -113 83 -164 147 -30 37
-72 106 -95 153 -41 87 -111 176 -119 153 -7 -19 -22 -16 -55 12 -81 68 -148
172 -148 228 0 25 -6 37 -22 46 -13 6 -46 44 -73 84 -28 39 -64 78 -80 86 -17
8 -37 17 -45 21 -11 6 -14 21 -12 65 4 51 2 56 -15 53 -12 -3 -17 -11 -16 -26
3 -21 0 -22 -32 -16 -31 5 -35 4 -41 -20 -3 -14 -4 -64 -3 -112 4 -75 7 -88
27 -105 17 -13 22 -24 17 -39 -5 -15 -1 -22 15 -28 15 -5 29 -31 50 -87 15
-44 45 -120 65 -168 20 -48 39 -104 42 -125 3 -22 15 -45 30 -58 21 -18 27
-34 33 -103 11 -103 15 -116 44 -129 24 -11 83 -98 74 -108 -3 -2 -40 12 -82
31 -115 52 -152 44 -99 -23 38 -47 58 -88 67 -131 3 -19 17 -48 30 -65 13 -17
23 -43 24 -56 0 -14 21 -59 47 -100 27 -40 57 -96 67 -124 11 -28 26 -66 35
-85 12 -26 13 -39 4 -58 -14 -31 -14 -36 3 -30 21 8 42 -12 78 -78 19 -33 44
-64 56 -70 22 -10 23 -13 17 -90 l-7 -81 28 1 c28 0 29 -2 32 -57 3 -53 6 -59
42 -88 29 -23 41 -41 45 -68 12 -75 25 -110 44 -115 14 -3 17 -11 14 -31 -4
-19 0 -28 13 -33 31 -11 46 -43 20 -43 -7 0 -33 15 -57 34 -47 38 -59 38 -59
0 0 -13 -9 -33 -20 -44 -44 -44 -119 -9 -139 67 -6 21 -33 65 -61 98 -27 32
-57 79 -66 104 -32 89 -62 147 -98 191 -133 164 -216 286 -216 317 0 6 -18 30
-40 53 -47 49 -126 201 -116 225 7 19 35 16 47 -5 4 -8 10 -28 14 -43 4 -22
11 -28 28 -25 37 5 36 61 -2 104 -32 35 -40 64 -19 64 19 0 90 -81 110 -127
15 -33 24 -43 43 -43 60 0 105 123 54 150 -12 7 -18 18 -15 26 3 9 -11 33 -34
58 -23 25 -48 67 -59 99 -26 75 -85 180 -126 223 -30 32 -37 35 -70 28 l-37
-7 7 68 c8 67 7 68 -14 62 -35 -9 -37 18 -7 89 31 77 31 79 6 111 -17 22 -19
35 -14 75 6 40 4 51 -11 62 -15 11 -20 36 -27 137 -5 68 -16 165 -24 214 -29
169 -29 165 -5 165 29 0 26 23 -8 62 -43 50 -53 74 -45 113 4 26 0 50 -15 86
-12 28 -29 87 -36 131 -8 45 -22 92 -30 105 -9 13 -22 63 -29 111 -19 120 -44
201 -72 229 l-24 24 20 29 c25 35 25 39 -1 66 -13 14 -23 45 -30 90 -13 91
-18 105 -36 102 -12 -2 -20 12 -30 51 -13 51 -13 56 5 80 25 35 135 91 177 91
27 0 39 -7 59 -32z m5226 -4 c0 -24 -30 -75 -40 -69 -16 10 -12 62 6 79 17 18
34 13 34 -10z m-1963 -21 c5 -13 -22 -24 -42 -17 -15 6 -20 35 -8 47 7 8 45
-15 50 -30z m1644 -38 c24 -53 18 -91 -10 -75 -19 9 -51 77 -51 105 0 8 9 15
21 15 14 0 26 -13 40 -45z m-3631 -289 c0 -7 -35 -39 -77 -71 -43 -32 -95 -74
-116 -94 -27 -26 -40 -32 -46 -23 -5 9 -15 3 -37 -19 -41 -44 -126 -100 -247
-164 l-105 -56 -35 42 c-20 22 -34 46 -31 53 3 7 -7 23 -21 36 -14 13 -25 29
-25 36 0 24 42 52 94 65 28 6 83 25 123 40 49 20 89 29 128 29 56 0 177 40
234 77 30 19 131 62 149 63 6 0 12 -6 12 -14z m8370 -205 c0 -10 -9 -29 -20
-42 l-19 -24 -1 31 c0 29 15 54 32 54 4 0 8 -9 8 -19z m-6385 -601 c0 -18 -6
-26 -23 -28 -24 -4 -38 18 -28 44 3 9 15 14 28 12 17 -2 23 -10 23 -28z m-175
-47 c0 -39 -19 -103 -30 -103 -13 0 -13 71 0 104 13 34 30 33 30 -1z m85 -184
c-15 -57 -53 -196 -85 -309 -32 -113 -83 -313 -115 -445 -31 -132 -65 -269
-76 -306 -10 -36 -26 -103 -34 -150 -15 -77 -40 -171 -53 -193 -3 -5 -11 -1
-19 9 -21 29 -16 103 16 232 16 65 50 224 75 353 49 252 82 367 181 635 116
311 164 387 110 174z m800 -8 c9 -40 58 -116 89 -136 23 -15 27 -15 57 0 31
17 32 16 58 -9 24 -24 26 -33 25 -109 -1 -102 -21 -222 -40 -238 -11 -9 -20
-8 -40 6 -35 23 -50 65 -57 163 -7 87 -22 131 -39 114 -14 -14 -27 -79 -28
-133 0 -46 -22 -91 -37 -76 -12 13 -17 447 -5 447 6 0 13 -13 17 -29z m-118
-39 c8 -32 -10 -48 -31 -27 -17 17 -20 42 -9 71 6 16 7 15 20 -2 8 -10 16 -29
20 -42z m-4557 -411 c11 -22 55 -203 64 -268 8 -55 -10 -65 -30 -16 -25 58
-64 221 -64 264 0 42 13 51 30 20z m4718 -53 c25 -25 1 -158 -29 -158 -19 0
-56 127 -45 155 7 18 57 20 74 3z m-4638 -388 c0 -27 -4 -50 -10 -50 -5 0 -10
23 -10 50 0 28 5 50 10 50 6 0 10 -22 10 -50z m840 -169 c39 -56 67 -171 40
-171 -21 0 -117 180 -103 194 15 14 43 4 63 -23z m549 -23 c35 -48 138 -228
154 -270 3 -10 2 -18 -3 -18 -11 0 -109 118 -166 200 -80 117 -67 196 15 88z
m8362 0 c14 -27 6 -484 -10 -538 -6 -19 -14 -85 -20 -146 -10 -129 -20 -152
-102 -240 -32 -35 -59 -70 -59 -78 0 -27 -23 -66 -38 -66 -23 0 -10 78 47 285
26 99 58 220 70 269 11 50 30 108 42 129 19 38 20 42 5 131 -25 145 -31 243
-16 261 19 23 67 19 81 -7z m-296 -255 l-7 -28 -9 23 c-5 13 -6 36 -2 50 6 26
6 26 16 5 5 -12 6 -34 2 -50z m-8655 -8 c0 -19 -4 -37 -10 -40 -6 -4 -10 12
-10 40 0 28 4 44 10 40 6 -3 10 -21 10 -40z m1650 -15 c0 -15 -38 -50 -54 -50
-23 0 -27 15 -10 38 15 22 64 31 64 12z m-808 -129 c42 -67 36 -108 -9 -58
-17 19 -32 51 -61 127 -10 27 39 -22 70 -69z m-1526 -69 c7 -56 -5 -87 -27
-65 -14 14 -23 114 -14 150 l8 28 13 -30 c7 -16 16 -54 20 -83z m7714 54 c0
-37 -38 -96 -61 -96 -15 0 -10 21 16 67 26 43 45 56 45 29z m-188 -414 c-66
-136 -145 -299 -174 -362 -30 -63 -71 -142 -92 -174 -89 -140 -243 -262 -271
-215 -16 24 12 66 114 172 59 62 126 137 150 167 23 30 57 75 77 99 41 51 42
85 4 89 -14 1 -36 5 -50 8 -25 6 -25 6 7 19 22 9 39 29 58 66 14 29 64 101
110 160 46 58 98 130 115 160 18 30 39 62 49 73 45 51 13 -34 -97 -262z
m-5442 -92 c29 -31 56 -87 47 -96 -11 -11 -72 34 -90 66 -19 31 -17 60 4 60 6
0 23 -13 39 -30z m-2080 -85 c0 -25 -30 -76 -40 -70 -11 7 -13 45 -4 69 8 21
44 21 44 1z m9390 -144 c0 -43 -27 -121 -50 -146 -13 -14 -24 -44 -29 -81 -13
-90 -27 -135 -102 -326 -38 -97 -69 -185 -69 -197 0 -11 -16 -56 -35 -100 -19
-43 -35 -91 -35 -105 0 -14 -10 -34 -22 -45 -34 -32 -58 -74 -58 -101 -1 -66
-122 -297 -160 -307 -15 -4 -17 -9 -10 -23 6 -10 10 -37 10 -59 0 -32 -5 -44
-25 -57 -14 -9 -33 -39 -44 -70 -30 -80 -83 -180 -158 -301 -80 -131 -123
-219 -123 -255 0 -40 -31 -54 -58 -25 -11 12 -25 34 -31 50 -18 47 -36 44
-107 -22 -40 -37 -73 -61 -84 -59 -10 2 -38 -17 -67 -43 -55 -51 -93 -76 -93
-59 0 5 30 45 68 87 37 43 117 137 177 208 60 72 135 158 166 191 53 56 58 64
53 96 -5 30 -2 37 30 61 23 18 39 41 46 67 6 22 38 75 71 119 33 44 69 100 79
125 11 25 29 48 40 51 24 8 61 84 68 141 3 27 10 44 18 44 21 0 42 38 74 136
22 65 39 99 60 118 18 15 30 36 30 50 0 46 40 154 80 212 30 44 44 81 61 153
17 76 28 101 50 122 22 21 30 41 39 94 25 159 140 369 140 256z m-8263 -9 c55
-36 81 -71 98 -130 8 -26 26 -59 41 -73 34 -32 77 -106 69 -119 -3 -5 -23 -10
-44 -10 -47 0 -65 18 -90 92 -24 70 -42 104 -91 174 -37 53 -51 94 -32 94 4 0
26 -13 49 -28z m977 -247 c-1 -5 -4 -25 -8 -44 -6 -33 -5 -33 12 -18 10 9 32
19 48 23 41 8 219 -38 296 -77 219 -111 540 -396 619 -551 11 -21 16 -38 11
-38 -4 0 -34 27 -67 60 -57 57 -86 72 -100 50 -12 -20 -36 -9 -90 40 -34 30
-65 50 -79 50 -27 0 -47 20 -61 63 -14 42 -30 44 -63 8 l-28 -31 -41 45 c-24
27 -49 45 -62 45 -42 0 -131 -103 -131 -153 0 -8 13 -17 29 -20 20 -4 43 -24
73 -64 90 -118 228 -362 228 -403 0 -24 111 -206 169 -277 41 -50 47 -63 32
-63 -56 0 -254 223 -418 470 -75 113 -128 202 -189 319 -40 78 -129 183 -173
205 -14 7 -45 16 -68 19 -23 3 -54 15 -69 26 -22 18 -35 20 -75 15 -42 -6 -52
-3 -79 20 -35 29 -97 36 -106 12 -3 -8 -1 -31 5 -52 6 -21 8 -40 6 -43 -3 -2
-30 22 -60 55 l-55 59 6 -52 c10 -83 -27 -67 -41 17 -10 63 -36 107 -94 165
-28 27 -51 53 -51 58 0 13 69 38 83 30 7 -4 18 -15 25 -24 16 -23 81 -42 230
-69 103 -19 132 -28 174 -56 27 -19 54 -31 59 -28 14 8 10 114 -6 159 -8 22
-15 41 -15 43 0 1 10 7 23 12 28 12 102 8 101 -5z m4964 -377 c-58 -109 -148
-190 -148 -133 0 29 147 195 172 195 5 0 -6 -28 -24 -62z m-5821 -116 c27 -32
39 -80 24 -95 -8 -8 -11 -7 -11 5 0 23 -43 55 -102 75 -26 10 -48 21 -48 25 0
12 63 27 90 22 14 -3 35 -17 47 -32z m6678 -142 c9 -14 -23 -62 -35 -55 -14 9
-12 39 2 53 15 15 25 15 33 2z m-2813 -103 c23 -45 70 -100 173 -203 195 -196
303 -269 492 -333 165 -55 271 -58 366 -9 78 39 222 143 286 205 107 105 111
79 10 -66 -81 -118 -119 -193 -119 -238 0 -26 5 -33 30 -42 20 -6 30 -17 30
-30 0 -27 -44 -77 -95 -106 -23 -14 -61 -45 -83 -70 -39 -43 -44 -45 -94 -45
-95 0 -97 20 -6 59 52 22 83 60 74 89 -15 45 -40 54 -211 74 -194 22 -260 40
-355 98 -42 26 -93 47 -133 55 -131 27 -184 70 -250 200 -53 106 -167 396
-167 426 0 21 20 -4 52 -64z m-3431 5 c15 -9 46 -32 69 -49 24 -18 47 -33 52
-33 11 0 10 37 -2 61 -20 36 8 19 74 -45 83 -82 156 -181 156 -212 0 -19 5
-24 24 -24 50 0 266 -232 266 -285 0 -15 12 -33 34 -50 27 -20 34 -34 38 -70
4 -28 17 -59 37 -86 31 -43 39 -69 22 -69 -16 0 -108 89 -208 203 -128 143
-175 207 -169 223 6 15 -112 136 -234 238 -109 91 -145 118 -197 144 -52 27
-61 41 -38 59 25 17 45 16 76 -5z m1474 -64 c99 -128 138 -189 236 -373 44
-82 99 -179 121 -213 27 -41 42 -76 42 -97 1 -27 6 -35 23 -40 14 -3 25 -15
28 -33 15 -69 26 -100 45 -117 27 -24 25 -54 -2 -64 -29 -11 -62 5 -54 25 3 9
-8 29 -28 49 -53 53 -160 287 -181 397 -3 15 -14 29 -25 33 -13 4 -39 43 -72
108 -28 56 -61 115 -74 130 -27 32 -89 157 -99 200 -10 37 8 35 40 -5z m-254
-328 c20 -36 25 -95 10 -104 -13 -9 -27 14 -39 65 -7 26 -15 54 -18 64 -13 33
28 12 47 -25z m-1311 -36 c32 -84 -18 -405 -72 -464 -24 -26 -32 -21 -63 41
-14 27 -30 49 -35 49 -6 0 -43 -30 -82 -67 -40 -36 -93 -79 -117 -95 -48 -30
-91 -37 -91 -14 0 22 23 34 70 38 42 3 45 5 42 28 -3 30 44 107 147 235 84
104 151 204 151 223 0 19 19 52 31 52 5 0 14 -12 19 -26z m1390 -140 c43 -39
50 -54 24 -54 -18 0 -84 62 -84 79 0 20 19 12 60 -25z m6120 -105 c0 -6 -17
-39 -37 -73 -29 -47 -39 -75 -43 -121 -4 -53 -8 -61 -32 -73 -36 -17 -45 -35
-58 -118 -6 -38 -33 -120 -59 -184 -27 -63 -60 -151 -75 -195 -27 -84 -59
-145 -75 -145 -6 0 -15 -19 -22 -42 -27 -101 -227 -518 -271 -565 -29 -31 -38
-21 -38 41 0 92 85 342 128 374 11 8 15 24 13 48 -2 27 9 56 52 132 73 129
258 507 296 605 43 108 64 147 98 183 19 20 32 46 37 74 4 24 12 50 18 57 13
16 68 17 68 2z m-5788 -74 c27 -49 46 -130 34 -142 -11 -11 -38 21 -71 86 -18
36 -36 76 -40 89 -6 21 -4 23 22 20 22 -2 34 -14 55 -53z m-1000 -161 c-2 -10
-17 -40 -33 -65 -17 -27 -31 -66 -35 -95 -9 -83 -13 -91 -39 -98 -31 -8 -40
-25 -54 -111 -7 -38 -30 -111 -51 -161 -21 -50 -42 -103 -46 -118 -3 -14 -27
-49 -51 -77 -46 -50 -130 -115 -139 -106 -12 12 109 281 157 348 10 14 37 73
59 132 22 58 65 143 96 190 31 49 52 91 49 99 -4 9 8 30 29 53 36 38 64 42 58
9z m2387 -60 c24 -30 27 -54 8 -54 -24 0 -84 80 -70 93 9 9 39 -10 62 -39z
m5501 -62 c0 -21 -18 -42 -37 -42 -16 0 -17 32 -1 48 18 18 38 15 38 -6z
m-8455 -132 c31 -34 17 -134 -40 -275 -55 -139 -183 -399 -214 -435 -21 -24
-21 -25 -36 -6 -29 38 -15 121 45 266 21 52 41 108 45 123 3 16 15 31 29 36
19 8 22 15 18 40 -3 24 8 53 52 129 31 54 56 105 56 113 0 33 20 37 45 9z
m3190 -126 c136 -137 214 -204 239 -204 12 0 26 -9 31 -22 6 -13 27 -27 52
-36 23 -7 56 -29 73 -48 58 -67 32 -71 -84 -13 -44 22 -90 49 -101 59 -11 10
-45 30 -75 44 -63 28 -114 79 -189 186 -29 41 -68 95 -87 118 -19 24 -32 48
-28 53 9 15 61 -27 169 -137z m-3600 49 c-20 -83 -164 -358 -205 -394 -22 -18
-30 -35 -30 -57 0 -47 -28 -109 -62 -136 -26 -20 -29 -26 -19 -43 9 -19 7 -21
-29 -26 -22 -3 -156 -61 -298 -130 -141 -69 -272 -128 -290 -131 -18 -3 -64
-19 -101 -36 -38 -16 -113 -41 -167 -54 -151 -38 -465 -87 -536 -84 -62 3 -63
3 -86 46 -13 23 -22 49 -19 56 3 8 31 16 74 21 39 4 88 17 115 31 26 13 80 31
120 39 51 11 85 25 112 47 47 38 87 47 199 48 94 0 127 10 127 38 0 28 21 42
61 42 47 0 69 -8 69 -26 0 -21 68 -45 145 -51 81 -6 100 1 183 70 29 24 99 71
155 105 139 84 197 139 197 189 0 43 100 221 218 386 57 80 79 96 67 50z
m1109 -119 c9 -3 16 -12 16 -19 0 -20 -97 -131 -135 -155 -62 -38 -74 0 -24
71 41 59 78 90 126 108 1 1 8 -2 17 -5z m392 -124 c1 -43 3 -47 40 -92 31 -36
34 -44 19 -46 -49 -10 -128 104 -104 149 14 28 44 20 45 -11z m5444 -58 c0
-43 -163 -363 -207 -408 -18 -19 -33 -43 -33 -55 0 -44 -25 -103 -57 -135 -18
-19 -33 -43 -33 -54 0 -13 -10 -24 -25 -30 -23 -9 -25 -14 -25 -74 0 -45 -4
-67 -16 -77 -23 -19 -41 -58 -85 -186 -42 -121 -72 -187 -114 -248 -13 -21
-28 -59 -31 -86 -8 -59 -37 -101 -68 -97 -51 7 -26 112 75 303 53 102 89 197
89 234 -1 37 -15 44 -66 32 -27 -6 -61 -13 -76 -16 -14 -3 -74 -41 -133 -85
-112 -84 -211 -144 -257 -155 -55 -14 -25 24 67 85 67 44 145 120 145 142 0
23 38 48 72 48 16 0 37 9 48 22 42 46 52 54 128 93 76 40 77 41 77 80 0 35 4
40 40 59 21 12 49 37 62 56 49 78 64 91 97 88 31 -3 31 -3 28 38 -3 37 3 49
56 120 33 44 96 132 142 197 75 106 100 133 100 109z m-480 -26 c0 -28 -52
-76 -140 -131 -122 -75 -368 -197 -471 -233 -48 -17 -109 -42 -135 -56 -55
-28 -181 -54 -559 -117 -137 -22 -364 -63 -503 -90 -139 -27 -266 -49 -283
-49 -19 0 -39 9 -55 25 -31 31 -30 31 -38 0 -4 -15 -14 -25 -24 -25 -22 0 -93
45 -142 89 l-35 32 95 -5 c52 -2 116 -10 142 -17 39 -11 60 -11 110 0 112 22
271 72 344 107 55 26 101 38 205 54 149 23 154 24 224 50 28 11 66 22 86 25
21 3 52 20 74 39 45 40 68 46 189 46 94 0 136 14 136 45 0 21 33 35 85 35 38
0 48 -4 52 -19 8 -30 70 -54 138 -55 68 -1 61 -4 287 140 198 127 218 137 218
110z m-4815 -130 c0 -10 -8 -24 -17 -30 -23 -14 -53 21 -36 42 16 19 53 11 53
-12z m-575 -121 c0 -41 -100 -235 -121 -235 -24 0 26 147 71 209 31 42 50 52
50 26z m-981 -71 c26 -33 27 -66 1 -89 -10 -9 -27 -43 -35 -73 -40 -137 -147
-363 -192 -403 -33 -30 -60 -42 -68 -29 -3 5 13 56 34 114 22 57 45 132 50
165 8 47 18 71 44 102 19 22 49 74 67 117 35 86 56 122 70 122 4 0 18 -12 29
-26z m1782 -136 c21 -40 25 -88 8 -88 -9 0 -109 199 -109 217 0 11 82 -94 101
-129z m-581 -168 c0 -67 -70 -183 -100 -165 -16 10 -3 58 36 138 40 78 64 88
64 27z m5740 -14 c32 -35 28 -66 -17 -124 -25 -31 -43 -66 -47 -90 -14 -91
-82 -227 -210 -417 -70 -104 -134 -195 -143 -202 -11 -9 -26 -8 -66 4 -29 8
-56 18 -60 22 -9 9 109 126 175 174 23 17 48 38 55 47 6 8 42 91 79 185 68
172 153 361 180 403 18 28 25 28 54 -2z m-1800 -635 c0 -25 -27 -48 -41 -34
-8 8 -7 17 0 32 14 26 41 28 41 2z m-3617 -56 c27 -11 21 -50 -13 -78 -41 -35
-124 -51 -221 -42 -92 8 -129 -6 -129 -51 0 -33 -21 -39 -62 -18 -58 30 -89
58 -110 98 -26 51 -18 82 25 95 37 12 482 8 510 -4z m3123 -60 c9 -21 -14 -45
-43 -45 -31 0 -42 29 -18 46 25 18 54 18 61 -1z"/>
<path d="M6402 12398 c-17 -21 -33 -68 -22 -68 16 0 53 61 43 71 -6 6 -14 5
-21 -3z"/>
<path d="M6582 11901 c-10 -6 -9 -10 7 -14 27 -7 63 2 55 14 -7 11 -45 11 -62
0z"/>
<path d="M7201 11866 c-12 -14 -5 -46 10 -46 12 0 39 42 33 52 -8 12 -30 10
-43 -6z"/>
<path d="M6865 11708 c-7 -18 -11 -35 -9 -37 8 -8 44 33 44 51 0 29 -20 21
-35 -14z"/>
<path d="M8170 11701 c-16 -30 -12 -43 13 -39 16 2 23 11 25 31 4 32 -21 38
-38 8z"/>
<path d="M6594 11695 c-4 -8 -3 -27 0 -41 5 -19 12 -25 29 -22 28 4 34 34 11
59 -21 23 -33 24 -40 4z"/>
<path d="M5450 11303 c0 -8 65 -53 75 -53 12 0 4 21 -15 40 -19 19 -60 28 -60
13z"/>
<path d="M8355 11230 c-4 -6 10 -10 34 -10 23 0 41 5 41 10 0 6 -15 10 -34 10
-19 0 -38 -4 -41 -10z"/>
<path d="M7755 10468 c-7 -18 -11 -35 -8 -38 6 -6 53 47 53 61 0 23 -32 6 -45
-23z"/>
<path d="M9986 6078 c-11 -15 -13 -25 -6 -32 14 -14 45 6 45 29 0 27 -21 29
-39 3z"/>
<path d="M9690 9868 c0 -8 6 -23 14 -34 17 -23 40 -8 34 22 -4 22 -48 33 -48
12z"/>
<path d="M9780 9687 c0 -13 9 -32 20 -42 19 -18 20 -17 20 4 0 27 -17 61 -30
61 -6 0 -10 -11 -10 -23z"/>
<path d="M9996 9381 c-3 -4 0 -16 8 -26 9 -12 19 -15 35 -10 21 6 22 8 5 26
-18 20 -39 25 -48 10z"/>
<path d="M5400 10033 c-80 -40 -94 -61 -64 -94 23 -26 49 -24 113 9 65 33 101
74 85 100 -18 29 -56 25 -134 -15z"/>
<path d="M7234 9900 c-107 -54 -248 -189 -230 -219 5 -7 24 -3 57 9 27 11 67
20 89 20 34 0 42 4 55 30 13 24 22 30 50 30 24 0 34 5 37 18 2 12 13 17 38 17
33 0 35 2 38 36 2 26 -3 42 -22 62 -31 34 -39 34 -112 -3z"/>
<path d="M5077 9844 c-4 -4 -4 -18 0 -32 l6 -25 -60 6 c-45 5 -65 3 -81 -9
-21 -14 -33 -62 -12 -49 18 11 73 -27 161 -112 49 -48 92 -84 94 -81 3 3 -1
36 -9 74 -8 38 -13 70 -12 71 1 2 18 -24 36 -58 46 -80 55 -87 83 -62 12 11
36 25 52 30 17 5 32 18 34 29 5 30 21 44 50 44 15 0 32 5 39 12 16 16 15 93 0
106 -7 5 -77 12 -155 14 -125 5 -144 8 -168 27 -28 21 -47 26 -58 15z m41
-126 c4 -34 -11 -36 -32 -6 -22 31 -20 40 7 36 16 -2 23 -11 25 -30z"/>
<path d="M6890 9740 c-20 -22 -42 -40 -49 -40 -7 0 -23 12 -36 27 l-23 28 -62
-59 c-54 -52 -64 -58 -91 -52 -68 13 -199 -101 -199 -174 0 -27 -6 -25 -35 8
-20 22 -27 25 -42 16 -28 -17 -53 -68 -59 -121 -8 -60 9 -78 61 -70 34 6 35 4
33 -21 -3 -23 0 -27 22 -24 42 5 102 41 169 104 35 33 75 65 90 71 44 19 104
72 176 157 77 90 125 158 125 178 0 26 -44 11 -80 -28z"/>
<path d="M7333 9420 c-28 -16 -63 -45 -77 -63 -62 -81 -97 -227 -61 -257 26
-22 47 -1 67 66 10 32 24 69 30 82 16 30 78 67 159 94 91 29 97 38 59 77 -43
43 -103 43 -177 1z"/>
<path d="M6046 9339 c-14 -11 -26 -29 -26 -39 0 -11 -16 -35 -35 -54 -26 -27
-35 -44 -35 -69 0 -19 -9 -46 -21 -60 -16 -21 -20 -39 -18 -84 2 -48 -1 -59
-19 -71 -32 -21 -31 -92 3 -128 22 -24 24 -32 18 -86 -5 -54 -4 -61 19 -86 14
-15 37 -50 52 -79 52 -104 61 -66 21 86 -27 102 -32 180 -14 214 7 11 18 68
25 125 8 65 18 110 28 121 10 11 16 36 16 68 0 40 5 54 25 73 27 25 32 59 13
78 -16 16 -21 15 -52 -9z"/>
<path d="M4885 9300 c-7 -11 12 -51 29 -62 15 -10 66 -10 66 0 0 12 -64 72
-77 72 -7 0 -15 -4 -18 -10z"/>
<path d="M5285 9260 c-11 -17 14 -75 44 -104 23 -23 30 -25 40 -13 15 19 -1
62 -37 100 -28 29 -37 33 -47 17z"/>
<path d="M5420 9214 c0 -37 34 -80 88 -111 58 -33 92 -62 92 -80 0 -7 11 -18
25 -25 44 -20 93 30 67 68 -4 6 -27 20 -52 31 -25 11 -67 40 -95 65 -94 84
-125 97 -125 52z"/>
<path d="M6872 8917 c-16 -36 -35 -55 -96 -96 -76 -51 -97 -75 -89 -98 13 -37
113 7 185 81 67 69 88 147 41 154 -17 3 -26 -6 -41 -41z"/>
<path d="M6600 8725 c-18 -21 -5 -47 22 -43 26 3 37 36 16 49 -18 12 -24 11
-38 -6z"/>
<path d="M6912 8703 c2 -13 15 -19 46 -21 47 -4 55 9 17 26 -39 18 -67 15 -63
-5z"/>
<path d="M6110 8332 c0 -24 103 -81 114 -63 6 9 -28 43 -61 60 -26 13 -53 14
-53 3z"/>
<path d="M6054 8246 c-10 -26 4 -48 28 -44 17 2 23 10 23 28 0 18 -6 26 -23
28 -13 2 -25 -3 -28 -12z"/>
<path d="M5943 8201 c-54 -50 -83 -108 -83 -166 0 -39 3 -46 17 -43 26 5 78
98 97 174 9 37 15 68 14 70 -2 1 -22 -14 -45 -35z"/>
<path d="M8220 7684 c0 -3 9 -18 20 -34 20 -28 41 -39 116 -59 28 -7 43 -18
47 -31 6 -23 27 -27 27 -5 0 22 -74 90 -124 114 -40 20 -86 28 -86 15z"/>
<path d="M6742 7668 c-17 -17 -15 -43 3 -58 21 -18 37 0 33 36 -3 31 -18 40
-36 22z"/>
<path d="M6830 7605 c26 -31 191 -134 227 -142 81 -17 324 0 348 24 25 24 1
43 -57 43 -27 0 -74 9 -106 19 -31 11 -106 24 -167 31 -60 6 -141 18 -180 26
-38 7 -72 14 -74 14 -2 0 2 -7 9 -15z"/>
<path d="M5259 6829 c-28 -42 -69 -128 -69 -144 0 -24 27 -17 49 13 22 32 45
110 39 138 -3 16 -5 15 -19 -7z"/>
<path d="M5832 6658 c-10 -13 -21 -62 -25 -108 -2 -23 2 -25 39 -28 53 -4 74
16 74 69 0 56 -15 79 -49 79 -16 0 -33 -6 -39 -12z"/>
<path d="M6000 6398 c-14 -39 -25 -205 -16 -242 16 -64 42 -3 52 125 7 79 -1
149 -15 149 -5 0 -14 -15 -21 -32z"/>
<path d="M8157 6223 c-13 -13 -7 -53 8 -53 14 0 35 29 35 49 0 12 -33 15 -43
4z"/>
<path d="M7350 6146 c-89 -16 -92 -22 -85 -211 4 -95 2 -155 -4 -165 -12 -18
-84 -18 -106 0 -20 16 -53 108 -61 170 -7 50 -6 52 30 84 23 22 36 43 36 59 0
58 -70 63 -107 8 -28 -41 -32 -144 -8 -211 8 -23 15 -58 15 -77 0 -29 -5 -36
-32 -47 -46 -19 -110 -28 -126 -18 -19 12 -31 75 -32 154 0 64 2 69 35 102 37
38 43 61 22 90 -18 25 -69 18 -82 -12 -8 -18 -15 -22 -34 -17 l-23 6 7 -139
c4 -77 4 -149 1 -160 -4 -12 -23 -31 -43 -43 -111 -69 -69 -158 47 -98 34 18
50 20 98 14 31 -3 67 -13 80 -21 22 -14 22 -18 16 -132 -6 -101 -5 -119 10
-131 28 -23 64 -6 77 39 10 34 9 47 -10 96 -50 131 -25 157 157 167 111 7 118
6 135 -14 9 -12 17 -30 17 -40 0 -27 21 -69 36 -69 19 0 27 28 33 110 l6 75
45 0 45 0 5 -55 c4 -43 9 -56 24 -58 25 -5 36 14 36 68 0 42 4 50 60 105 38
38 60 68 60 82 0 31 -54 176 -85 230 -32 53 -58 55 -63 4 -2 -23 3 -40 18 -55
25 -28 40 -77 40 -133 0 -57 -8 -73 -36 -73 -14 0 -36 -7 -50 -16 -13 -9 -28
-14 -31 -10 -12 11 -42 206 -43 268 0 96 -1 96 -130 74z m29 -124 c26 -27 43
-60 60 -115 26 -86 23 -95 -32 -123 -42 -22 -57 -12 -57 40 0 24 -9 73 -20
108 -40 126 -20 163 49 90z"/>
<path d="M7266 5594 c-10 -25 -7 -114 4 -135 15 -27 48 -24 62 6 10 22 8 29
-12 50 -14 15 -20 30 -16 41 9 23 -2 54 -19 54 -7 0 -16 -7 -19 -16z"/>
<path d="M5517 5542 c-27 -30 -40 -77 -27 -101 13 -25 42 -34 96 -29 49 4 55
27 20 69 -19 22 -24 37 -20 55 5 21 3 24 -23 24 -17 0 -37 -8 -46 -18z"/>
<path d="M6767 5544 c-10 -17 -27 -128 -27 -179 0 -56 19 -85 56 -85 47 0 60
64 22 102 -19 19 -22 32 -20 78 3 52 -17 106 -31 84z"/>
<path d="M5486 4952 c-8 -13 59 -86 72 -78 17 10 15 52 -4 70 -16 17 -59 22
-68 8z"/>
<path d="M4015 8112 c-80 -50 -111 -114 -185 -387 -20 -77 -47 -176 -59 -219
-25 -95 -38 -235 -24 -261 9 -15 16 -8 51 51 186 320 337 714 306 801 -12 35
-47 41 -89 15z"/>
<path d="M2074 6495 c-9 -22 19 -50 41 -41 21 8 16 25 -13 44 -19 13 -22 12
-28 -3z"/>
<path d="M10650 7640 c0 -5 16 -10 35 -10 19 0 35 5 35 10 0 6 -16 10 -35 10
-19 0 -35 -4 -35 -10z"/>
<path d="M1096 7584 c-18 -17 -21 -51 -7 -73 7 -11 13 -7 25 17 27 52 15 89
-18 56z"/>
<path d="M1101 7434 c-16 -12 -19 -19 -11 -24 17 -11 46 -1 66 21 16 18 16 19
-7 19 -14 0 -35 -7 -48 -16z"/>
<path d="M1154 7270 c3 -19 14 -45 24 -59 16 -26 17 -26 20 -4 3 23 -20 77
-39 89 -9 5 -10 -2 -5 -26z"/>
<path d="M1446 6822 c-6 -10 21 -52 33 -52 15 0 22 32 10 46 -13 16 -35 18
-43 6z"/>
<path d="M1854 6335 c-7 -17 21 -65 36 -65 13 0 13 4 -4 45 -16 38 -24 43 -32
20z"/>
<path d="M1641 6316 c-8 -9 -5 -19 11 -35 18 -20 22 -21 29 -8 18 31 -18 69
-40 43z"/>
<path d="M1700 6180 c0 -5 16 -10 35 -10 19 0 35 5 35 10 0 6 -16 10 -35 10
-19 0 -35 -4 -35 -10z"/>
<path d="M1471 5706 c-12 -14 -5 -46 10 -46 12 0 39 42 33 52 -8 12 -30 10
-43 -6z"/>
<path d="M2146 5682 c-6 -10 21 -52 33 -52 15 0 22 32 10 46 -13 16 -35 18
-43 6z"/>
<path d="M2370 5196 c0 -8 7 -22 16 -31 19 -19 38 -7 32 21 -4 23 -48 32 -48
10z"/>
<path d="M1695 4634 c-28 -31 -32 -54 -10 -54 20 0 65 45 65 65 0 23 -28 18
-55 -11z"/>
<path d="M9152 2328 c-7 -7 -12 -26 -12 -42 l1 -31 19 24 c31 37 24 81 -8 49z"/>
<path d="M122 7224 c-22 -15 -31 -64 -12 -64 15 0 50 38 50 54 0 23 -15 27
-38 10z"/>
<path d="M81 6856 c-8 -9 -5 -19 11 -35 18 -20 22 -21 29 -8 18 31 -18 69 -40
43z"/>
<path d="M30 6514 c-29 -13 -32 -17 -18 -25 20 -11 89 10 96 29 5 17 -35 15
-78 -4z"/>
<path d="M17 5210 c-9 -73 -7 -963 2 -1020 l7 -45 7 34 c4 19 14 43 23 52 13
14 17 53 20 211 3 106 10 218 16 248 17 87 16 104 -7 108 -34 7 -37 17 -16 78
22 67 37 205 27 258 -5 26 -12 36 -29 38 -17 2 -24 13 -33 48 l-11 45 -6 -55z"/>
<path d="M261 4972 c-12 -22 3 -42 29 -42 22 0 54 36 45 49 -11 18 -63 13 -74
-7z"/>
<path d="M3376 3795 c-3 -8 2 -21 10 -30 18 -17 24 -18 43 -6 11 7 9 13 -8 30
-25 25 -37 26 -45 6z"/>
<path d="M4726 2198 c-18 -25 -21 -58 -7 -58 14 0 41 41 41 62 0 25 -16 23
-34 -4z"/>
<path d="M4269 1741 c-38 -34 -41 -40 -26 -46 21 -9 55 18 68 54 14 36 6 35
-42 -8z"/>
<path d="M3745 1580 c-4 -6 8 -10 29 -10 20 0 36 5 36 10 0 6 -13 10 -29 10
-17 0 -33 -4 -36 -10z"/>
<path d="M5435 1490 c-22 -43 -18 -57 10 -30 25 23 34 60 15 60 -5 0 -16 -13
-25 -30z"/>
<path d="M5569 1108 c-47 -37 -67 -63 -56 -75 4 -4 33 19 65 50 62 63 58 76
-9 25z"/>
<path d="M5706 1125 c-18 -18 -31 -78 -22 -101 12 -31 31 -8 31 38 0 25 6 52
14 61 17 21 -2 23 -23 2z"/>
<path d="M4187 1022 c-19 -21 -22 -48 -7 -57 9 -6 40 44 40 65 0 16 -15 12
-33 -8z"/>
<path d="M5780 651 c0 -26 20 -71 32 -71 5 0 8 19 6 42 -2 31 -8 44 -20 46
-13 2 -18 -3 -18 -17z"/>
<path d="M6154 205 c-41 -17 -52 -35 -22 -35 29 0 62 22 57 38 -3 7 -14 6 -35
-3z"/>
<path d="M9536 104 c-23 -22 -20 -71 3 -84 11 -5 55 -10 97 -10 l78 0 -39 40
c-36 37 -90 70 -113 70 -6 0 -18 -7 -26 -16z"/>
<path d="M9239 57 c-19 -12 -33 -27 -32 -32 4 -13 153 -19 165 -7 5 5 0 20
-12 35 -27 34 -74 36 -121 4z"/>
</g>
</svg>
