<?xml version="1.0" standalone="no"?>
<!DOCTYPE svg PUBLIC "-//W3C//DTD SVG 20010904//EN"
 "http://www.w3.org/TR/2001/REC-SVG-20010904/DTD/svg10.dtd">
<svg version="1.0" xmlns="http://www.w3.org/2000/svg"
 width="1280.000000pt" height="1237.000000pt" viewBox="0 0 1280.000000 1237.000000"
 preserveAspectRatio="xMidYMid meet">
<metadata>
Created by potrace 1.15, written by Peter Selinger 2001-2017
</metadata>
<g transform="translate(0.000000,1237.000000) scale(0.100000,-0.100000)"
fill="#2196f3" stroke="none">
<path d="M4432 12322 c-45 -69 -115 -222 -157 -342 l-37 -105 6 -158 c4 -87
11 -192 16 -232 5 -41 15 -166 21 -277 14 -249 5 -337 -45 -453 -19 -44 -55
-130 -80 -191 -54 -128 -69 -153 -190 -306 -49 -62 -98 -129 -109 -148 -11
-19 -35 -51 -53 -70 -45 -48 -161 -225 -174 -265 -6 -18 -20 -41 -32 -51 -36
-33 -151 -216 -183 -294 -43 -101 -79 -171 -165 -320 -39 -69 -83 -159 -96
-200 -14 -41 -35 -92 -48 -115 -14 -22 -28 -58 -32 -80 -3 -22 -20 -67 -36
-99 -17 -33 -37 -83 -45 -110 -8 -28 -28 -81 -44 -117 -45 -104 -57 -165 -88
-449 -46 -411 -46 -408 -16 -640 37 -294 58 -363 161 -533 46 -77 84 -147 84
-157 0 -33 -111 -160 -140 -160 -5 0 -16 -15 -24 -32 -18 -43 -119 -141 -148
-144 -13 -1 -26 -3 -31 -3 -10 -1 -100 -139 -116 -179 -17 -41 -37 -40 -62 3
-15 24 -28 35 -45 35 -27 0 -30 -14 -38 -160 -3 -67 -14 -124 -35 -194 -17
-54 -35 -135 -40 -180 -10 -80 -20 -118 -86 -326 -45 -143 -54 -201 -56 -365
-1 -120 3 -154 25 -238 29 -115 100 -268 158 -347 23 -30 78 -93 123 -140 134
-140 165 -180 165 -211 0 -22 -6 -30 -26 -35 -37 -9 -145 2 -244 27 -53 13
-122 21 -185 22 -119 2 -143 -8 -177 -81 -21 -43 -27 -48 -68 -54 -25 -4 -155
-7 -289 -5 l-244 2 -17 -30 c-32 -58 -108 -75 -337 -75 -195 0 -259 9 -538 77
-323 78 -396 99 -493 140 -64 27 -88 34 -101 26 -29 -19 -19 -47 26 -68 24
-12 60 -37 80 -57 59 -55 155 -115 226 -141 36 -13 123 -58 193 -99 71 -42
237 -136 369 -211 132 -74 292 -165 354 -201 63 -36 120 -66 126 -66 6 0 48
-18 93 -40 94 -45 163 -68 323 -105 63 -15 150 -38 194 -50 185 -55 654 -167
835 -200 451 -82 659 -94 815 -49 50 14 146 39 215 54 69 16 209 58 311 93
102 36 228 77 279 91 51 15 120 41 153 57 32 17 159 64 281 106 343 117 385
134 488 209 257 186 254 184 300 184 51 0 155 -30 204 -59 48 -29 72 -27 80 5
17 67 -26 215 -78 271 -12 12 -37 28 -57 34 -20 6 -58 23 -85 36 -27 14 -71
31 -97 39 -70 21 -72 30 -68 312 l4 238 37 75 c27 54 68 108 151 199 119 132
179 175 277 200 25 6 72 23 105 37 59 27 63 27 380 34 176 5 334 10 352 13 51
7 102 -12 152 -58 25 -24 97 -69 159 -101 108 -55 115 -60 133 -104 12 -27 44
-68 78 -101 64 -60 99 -131 164 -330 31 -93 32 -99 31 -280 0 -217 -17 -311
-91 -530 -88 -258 -178 -406 -321 -532 -55 -48 -113 -93 -128 -98 -26 -10 -23
-5 22 42 102 106 134 150 134 180 0 64 -55 37 -102 -51 -12 -22 -34 -39 -70
-55 -259 -115 -320 -146 -397 -203 -46 -35 -85 -63 -87 -63 -2 0 -22 16 -43
35 -22 20 -41 32 -44 28 -2 -4 -16 -44 -31 -88 -54 -163 -96 -205 -205 -205
-83 0 -192 23 -250 52 -39 20 -53 38 -114 143 l-70 120 13 60 c29 134 26 138
-45 79 -40 -32 -44 -34 -52 -17 -5 10 -6 103 -2 208 8 194 4 219 -28 199 -22
-14 -39 -67 -59 -178 -20 -115 -33 -143 -144 -296 -131 -180 -150 -211 -150
-241 0 -35 -9 -41 -50 -29 -31 9 -37 6 -88 -37 -40 -34 -57 -43 -60 -33 -3 7
-21 32 -41 54 -21 23 -45 53 -54 69 -17 26 -41 35 -50 20 -3 -5 3 -57 14 -116
30 -178 29 -196 -17 -267 -21 -34 -74 -95 -116 -137 -82 -80 -96 -112 -58
-135 11 -7 20 -18 20 -23 0 -13 -127 -118 -171 -140 -88 -46 -464 -210 -541
-237 -74 -25 -94 -37 -127 -74 -47 -54 -54 -84 -36 -160 19 -81 18 -115 -5
-174 -11 -28 -20 -62 -20 -75 0 -36 33 -86 92 -136 121 -104 148 -111 148 -40
l0 39 108 7 c131 8 182 -2 212 -45 24 -33 68 -60 98 -60 29 0 46 27 47 72 1
32 6 43 25 53 34 18 116 29 124 17 8 -13 -98 -142 -160 -195 -28 -23 -91 -75
-141 -115 -77 -61 -96 -72 -117 -66 -27 7 -60 41 -88 93 -32 58 -78 29 -78
-47 0 -36 7 -56 30 -86 18 -24 28 -47 25 -57 -11 -34 15 -95 66 -154 28 -33
62 -81 75 -107 13 -27 29 -48 34 -48 17 0 40 44 40 76 0 38 9 64 21 64 4 0 23
-13 42 -29 38 -34 49 -31 70 20 14 34 18 37 70 43 55 7 56 8 73 54 24 65 39
80 119 117 39 17 89 48 113 68 23 20 52 39 65 43 12 3 61 21 108 40 47 18 131
44 187 58 56 15 154 44 219 65 65 22 138 45 163 51 25 7 94 36 153 67 103 51
110 53 127 38 40 -36 124 -170 160 -255 45 -106 168 -345 236 -460 36 -60 68
-99 119 -142 83 -71 130 -97 146 -81 19 19 0 50 -67 108 -35 32 -72 71 -80 89
-9 17 -34 52 -56 78 -54 66 -66 100 -93 263 -13 78 -33 169 -43 201 -22 65
-42 173 -42 222 0 42 18 41 61 -4 50 -53 124 -104 148 -104 13 0 26 10 33 26
10 22 6 46 -29 165 -22 76 -37 139 -34 139 4 0 38 -13 76 -30 89 -38 122 -39
135 -5 20 54 -16 148 -94 250 -41 52 -44 60 -29 66 10 3 95 9 188 12 279 10
472 47 715 134 217 78 280 117 365 228 11 15 35 30 55 34 26 5 36 13 38 29 2
12 16 32 32 44 17 13 43 33 60 46 16 13 38 43 49 67 16 36 29 48 74 70 42 19
64 38 93 81 21 30 57 70 80 89 33 27 43 43 48 77 5 33 17 52 55 87 27 26 52
58 55 73 4 19 19 34 47 48 33 17 60 51 157 198 187 281 275 481 352 797 17 72
35 146 40 165 l9 35 573 0 c510 0 584 -3 678 -19 132 -23 175 -18 325 34 240
83 259 84 443 29 56 -17 108 -29 115 -26 8 3 28 35 45 71 36 75 30 71 261 196
79 43 162 96 185 118 50 47 93 77 126 87 14 4 48 29 77 56 28 27 60 49 71 49
10 0 31 13 46 29 15 16 46 36 69 46 23 9 121 55 217 101 141 68 199 90 297
114 135 32 147 37 183 75 46 49 -3 77 -169 96 -103 13 -314 7 -371 -10 -37
-11 -661 -82 -885 -102 -138 -11 -616 -15 -665 -4 -24 5 -30 2 -42 -22 -11
-24 -20 -29 -58 -31 -108 -8 -330 47 -542 134 -141 58 -195 71 -340 84 -136
12 -148 8 -148 -45 0 -64 -9 -64 -248 0 -298 79 -282 69 -336 200 -90 220
-151 346 -182 376 -19 18 -34 38 -34 44 0 12 -13 31 -127 180 -46 60 -83 113
-83 119 0 6 16 65 35 131 42 142 49 207 22 213 -26 5 -44 -13 -98 -98 -57 -90
-74 -110 -93 -110 -8 0 -44 24 -79 54 l-64 55 -6 129 c-10 207 -31 230 -97
103 -23 -44 -47 -82 -54 -84 -17 -7 -76 29 -76 45 -1 7 -2 90 -4 183 -2 94
-13 253 -25 355 -24 224 -38 372 -47 505 -6 105 -19 135 -56 135 -25 0 -38
-38 -38 -110 0 -82 -43 -289 -96 -460 -57 -183 -89 -262 -119 -290 -22 -20
-45 -21 -45 0 0 4 -30 75 -66 157 -37 81 -74 176 -84 210 -23 77 -68 179 -87
194 -11 10 -18 9 -30 -4 -14 -13 -18 -46 -23 -159 -3 -79 -9 -149 -13 -156
-27 -42 -63 18 -96 161 -12 47 -42 131 -67 187 -40 85 -51 100 -68 98 -20 -3
-22 -12 -31 -168 -10 -162 -17 -196 -36 -184 -5 3 -34 55 -64 115 -33 66 -75
131 -106 165 -31 35 -67 90 -93 147 -24 51 -50 98 -60 106 -41 34 -49 -26 -31
-258 6 -80 5 -113 -3 -110 -24 9 -338 354 -396 436 -35 48 -102 165 -150 259
-62 122 -101 186 -137 225 l-50 54 4 -75 c5 -73 11 -97 88 -305 33 -89 33 -93
37 -287 2 -121 0 -198 -6 -198 -5 0 -43 22 -83 49 -60 39 -80 60 -103 102 -78
146 -136 233 -214 323 -94 108 -142 140 -167 115 -14 -14 -14 -31 0 -160 15
-135 13 -254 -4 -247 -9 4 -182 192 -305 333 -53 61 -124 150 -159 199 -125
178 -152 211 -172 211 -24 0 -24 -3 5 -170 24 -142 23 -220 -6 -430 -22 -158
-28 -175 -67 -175 -18 0 -48 4 -67 10 -19 5 -93 14 -165 20 -71 6 -145 13
-164 17 l-34 6 6 -64 c4 -35 10 -88 13 -117 l7 -52 -40 14 c-75 26 -108 49
-191 130 -91 88 -109 116 -141 220 -16 53 -21 94 -21 185 l0 117 58 115 c32
63 63 133 69 155 11 46 1 84 -23 84 -24 0 -105 -65 -194 -154 -41 -42 -77 -76
-81 -76 -18 0 -18 97 2 174 38 150 91 251 202 380 114 134 115 156 11 156 -53
0 -78 -6 -119 -27 -77 -38 -87 -31 -68 54 34 153 165 399 282 527 40 45 80 96
89 114 20 41 10 52 -65 77 -29 9 -53 21 -53 26 0 5 22 58 49 117 27 59 61 136
76 172 15 36 57 130 95 210 37 80 79 177 93 217 15 40 38 95 52 122 45 89 56
194 65 596 9 358 15 446 55 701 29 180 9 260 -49 205 -14 -13 -29 -34 -32 -45
-8 -27 -52 -86 -65 -86 -12 0 -12 297 1 380 6 36 19 97 30 135 51 182 63 245
50 260 -21 25 -36 17 -68 -33z m498 -6547 c118 -26 219 -50 223 -55 4 -4 -23
-26 -61 -48 -38 -23 -89 -58 -113 -78 -56 -47 -196 -116 -229 -112 -21 3 -27
12 -43 68 -10 36 -21 114 -24 174 -6 103 -5 108 13 103 10 -3 116 -27 234 -52z
m-1372 -310 c-4 -88 -11 -134 -26 -173 -29 -74 -68 -124 -95 -120 -19 3 -23
12 -31 78 -12 106 4 174 61 258 25 37 55 78 67 90 19 22 21 22 25 5 2 -10 1
-72 -1 -138z"/>
</g>
</svg>
