<?xml version="1.0" standalone="no"?>
<!DOCTYPE svg PUBLIC "-//W3C//DTD SVG 20010904//EN"
 "http://www.w3.org/TR/2001/REC-SVG-20010904/DTD/svg10.dtd">
<svg version="1.0" xmlns="http://www.w3.org/2000/svg"
 width="1070.000000pt" height="1280.000000pt" viewBox="0 0 1070.000000 1280.000000"
 preserveAspectRatio="xMidYMid meet">
<metadata>
Created by potrace 1.15, written by Peter Selinger 2001-2017
</metadata>
<g transform="translate(0.000000,1280.000000) scale(0.100000,-0.100000)"
fill="#2196f3" stroke="none">
<path d="M10260 12780 c-52 -52 -107 -214 -95 -279 15 -81 98 -241 126 -241
18 0 8 36 -38 129 -39 78 -47 104 -46 145 1 60 41 174 66 190 28 18 44 -1 90
-104 48 -106 116 -227 158 -280 36 -44 87 -157 95 -208 8 -49 18 -67 34 -57
17 11 8 58 -35 172 -27 72 -46 106 -75 134 -27 26 -63 87 -118 201 -77 158
-114 218 -133 218 -5 0 -18 -9 -29 -20z"/>
<path d="M2165 12350 c-30 -33 -24 -96 16 -170 40 -75 147 -193 191 -210 49
-19 144 -77 215 -129 76 -56 83 -75 83 -221 l0 -106 50 -76 c27 -41 55 -97 62
-124 11 -43 29 -65 153 -190 89 -90 160 -152 195 -171 31 -17 82 -59 115 -94
86 -94 139 -223 102 -252 -14 -11 -14 -32 -5 -182 12 -204 5 -404 -17 -500
-24 -98 -16 -350 14 -448 11 -38 23 -96 26 -130 9 -92 25 -155 57 -225 15 -35
28 -75 28 -88 0 -44 189 -261 540 -619 471 -481 506 -516 580 -573 44 -34 60
-41 82 -36 26 5 27 4 22 -23 -4 -20 1 -40 15 -64 12 -19 21 -41 21 -50 0 -8
11 -19 25 -25 13 -5 65 -49 115 -98 86 -85 90 -90 76 -111 -8 -12 -18 -40 -22
-61 -3 -21 -13 -51 -20 -66 -18 -35 -18 -33 10 -60 23 -22 56 -110 56 -150 0
-11 -11 -34 -23 -51 -52 -70 -74 -167 -38 -167 23 0 35 15 50 62 18 56 48 88
81 88 32 0 36 8 49 90 8 50 4 59 -16 39 -22 -22 -39 -1 -58 66 l-18 66 33 28
c30 25 31 28 16 43 -9 9 -16 22 -16 28 0 6 27 40 60 75 33 35 60 74 60 85 0
17 -6 20 -45 20 -45 0 -45 0 -45 35 0 46 -27 72 -84 80 -25 4 -46 10 -46 14 0
4 26 38 58 75 98 116 122 148 122 162 0 22 -14 16 -51 -22 -46 -48 -109 -98
-115 -91 -10 10 24 62 70 107 50 49 57 75 27 111 l-19 24 -64 -65 c-34 -36
-85 -91 -112 -123 -26 -32 -53 -56 -60 -54 -36 12 30 159 115 252 77 85 66
111 -19 48 -35 -27 -78 -25 -88 2 -8 19 73 114 103 121 14 4 41 0 61 -9 20 -8
60 -23 87 -33 37 -14 44 -19 29 -22 -12 -2 -39 4 -59 12 -46 20 -85 21 -85 2
0 -17 37 -32 125 -51 80 -17 155 -19 155 -6 0 8 -36 39 -79 68 -2 1 2 10 9 18
20 24 0 36 -77 45 -37 5 -97 18 -131 29 -35 12 -68 21 -72 21 -5 0 -12 -15
-15 -32 -10 -45 -22 -58 -56 -58 -33 0 -35 9 -13 52 13 24 14 39 6 71 -14 55
-4 75 81 162 l74 75 -19 86 -20 86 31 42 c42 59 94 177 115 260 19 79 50 144
72 153 15 6 106 -45 155 -87 l29 -25 -55 -160 c-60 -174 -64 -195 -37 -195 13
1 28 34 67 153 55 168 60 178 82 170 20 -8 13 -49 -31 -191 -45 -142 -61 -231
-46 -246 18 -17 37 16 55 96 16 73 65 221 84 257 12 22 45 28 56 11 3 -5 -4
-28 -15 -51 -12 -23 -19 -50 -17 -61 5 -18 -20 -121 -62 -255 -30 -99 8 -98
43 1 8 23 36 103 62 179 26 77 54 141 62 144 7 3 25 -5 38 -18 l24 -25 -38
-89 c-76 -176 -109 -302 -87 -332 12 -17 14 -16 24 7 6 14 20 63 32 110 29
120 91 250 119 250 11 0 23 -6 26 -14 3 -8 -17 -70 -44 -138 -55 -137 -96
-273 -87 -288 17 -28 26 -10 120 247 20 56 43 110 50 120 13 17 16 16 55 -22
41 -39 132 -167 183 -256 30 -52 28 -77 -16 -146 -30 -47 -224 -279 -346 -414
-92 -101 -95 -132 -4 -49 36 33 63 50 74 47 12 -3 64 40 171 142 84 80 173
163 197 184 l43 39 25 -24 c14 -12 51 -62 82 -109 68 -102 112 -224 115 -319
2 -55 10 -80 50 -160 61 -125 66 -156 32 -197 -64 -76 -393 -241 -685 -344
-111 -39 -291 -125 -291 -138 0 -17 18 -13 84 18 33 16 151 63 261 105 414
155 600 249 688 345 21 22 44 41 52 41 70 0 57 -60 -19 -85 -24 -8 -34 -20
-46 -55 -15 -44 -19 -47 -145 -112 -72 -37 -166 -82 -210 -100 -227 -92 -560
-247 -563 -262 -3 -14 6 -13 65 9 153 55 602 248 740 318 100 50 103 51 117
32 17 -23 18 -22 38 64 12 51 17 57 67 86 64 38 80 57 74 89 -7 35 -31 53 -83
63 -77 15 -104 83 -116 298 l-6 100 72 98 c39 53 77 97 85 97 14 0 29 -57 43
-160 9 -69 26 -71 30 -5 4 59 -13 145 -39 198 -36 69 -84 45 -190 -94 -56 -74
-79 -94 -79 -68 0 32 -78 179 -116 221 -42 45 -55 80 -34 93 6 4 4 20 -4 43
-8 20 -17 50 -20 65 -7 30 -38 47 -87 47 -38 0 -64 28 -108 115 -25 49 -68
102 -159 196 -136 141 -180 177 -301 244 -87 48 -180 106 -397 248 -87 56
-138 96 -144 112 -11 30 9 117 35 145 38 42 62 24 170 -135 79 -117 135 -188
142 -181 14 13 -205 359 -237 376 -27 15 -72 12 -97 -5 -12 -8 -31 -43 -43
-79 -21 -65 -40 -85 -59 -62 -7 9 -7 22 1 44 15 40 7 48 -37 35 -44 -14 -60
-2 -166 123 -52 61 -86 92 -116 105 -47 20 -78 62 -123 168 -30 71 -64 260
-58 328 4 47 29 56 48 16 l15 -28 3 38 c2 23 -9 83 -27 145 -17 59 -40 152
-51 206 -11 55 -26 106 -33 115 -6 8 -93 96 -193 195 -165 166 -341 369 -439
506 -153 216 -334 426 -497 576 -72 67 -101 87 -158 108 -95 35 -239 63 -395
76 -201 18 -287 42 -346 97 -38 35 -89 41 -114 13z m117 -79 c87 -46 132 -57
298 -71 247 -22 388 -58 493 -127 83 -55 309 -307 481 -535 l27 -36 -21 -42
c-19 -38 -44 -59 -56 -48 -2 3 0 27 6 53 15 65 -2 79 -25 19 -30 -79 -189
-429 -207 -455 -13 -19 -19 -21 -29 -12 -10 10 -7 26 15 83 32 81 45 150 27
150 -6 0 -19 -16 -28 -35 -27 -56 -44 -46 -37 22 8 68 -4 66 -41 -7 -38 -75
-47 -73 -43 12 2 57 0 73 -11 73 -15 0 -20 -8 -47 -67 -21 -49 -34 -41 -23 14
11 60 11 156 -1 163 -5 3 -10 19 -10 34 0 15 -7 36 -15 47 -20 26 -19 50 5
128 13 41 26 66 35 66 8 0 38 -20 67 -45 85 -73 170 -136 176 -131 9 9 -49 77
-170 203 -65 66 -118 129 -118 140 -2 169 -12 203 -69 225 -36 13 -47 -4 -28
-44 8 -18 20 -73 26 -121 l10 -88 -58 -142 c-32 -78 -67 -164 -77 -190 -11
-27 -24 -49 -29 -50 -6 0 -22 24 -37 54 -23 46 -28 67 -28 134 0 44 7 125 15
180 8 55 15 108 15 117 0 17 -134 128 -155 128 -24 0 -35 -26 -35 -82 0 -32
-3 -58 -7 -58 -5 0 -53 22 -108 48 -83 40 -110 59 -156 110 -62 68 -109 153
-109 195 0 15 2 27 4 27 3 0 37 -18 78 -39z m738 -552 c0 -42 -89 -322 -118
-371 -38 -64 -53 3 -27 121 20 87 70 235 91 269 8 12 23 22 34 22 17 0 20 -7
20 -41z m592 -256 c16 -18 48 -77 48 -88 0 -9 -28 -6 -54 7 -29 13 -40 39 -32
74 8 29 17 30 38 7z m146 -182 c35 -47 38 -56 20 -70 -7 -5 -43 -37 -80 -70
-37 -34 -77 -61 -88 -61 -41 0 -66 40 -78 123 -7 43 -12 86 -12 97 0 29 35 44
72 31 44 -15 78 -14 85 4 5 14 8 14 27 2 11 -8 36 -33 54 -56z m-290 -13 c-2
-26 -8 -34 -26 -36 -21 -3 -23 -1 -17 20 17 54 48 65 43 16z m-78 -229 c-12
-35 -28 -75 -37 -88 -13 -21 -17 -22 -30 -9 -12 13 -13 23 -3 59 12 44 53 132
74 158 21 27 18 -53 -4 -120z m452 112 c13 -5 54 -45 91 -90 38 -44 124 -130
191 -191 l123 -109 -1 -68 c0 -41 6 -84 16 -108 29 -72 -1 -90 -177 -100 -103
-6 -106 -6 -169 39 -26 19 -27 19 -94 -12 -91 -41 -212 -74 -212 -58 0 7 18
42 40 79 32 53 40 75 40 115 0 60 -32 187 -65 260 -38 84 -31 122 26 122 20 0
35 12 65 52 34 46 73 77 96 78 4 0 17 -4 30 -9z m-348 -80 c17 -19 16 -22 -24
-89 -42 -71 -75 -110 -86 -99 -6 5 24 125 45 180 12 32 40 35 65 8z m84 -188
c3 -23 -30 -53 -60 -53 -24 0 -23 21 3 54 24 31 53 31 57 -1z m52 -195 c0 -53
-15 -81 -30 -58 -11 16 -4 68 12 88 16 19 18 15 18 -30z m650 -233 c0 -20 -57
-83 -91 -101 -40 -20 -87 -17 -180 12 -93 29 -80 30 -331 -15 -87 -15 -158
-25 -158 -21 0 12 155 78 236 101 114 32 126 33 178 15 69 -24 248 -22 301 3
22 11 41 20 43 20 1 1 2 -6 2 -14z m-260 -146 c23 -17 43 -22 97 -22 50 0 79
6 110 22 23 11 46 21 51 21 5 0 12 -44 15 -99 12 -175 69 -330 188 -512 108
-164 169 -226 154 -157 l-7 32 39 -32 c69 -54 71 -58 44 -106 -72 -125 -277
-304 -371 -322 -23 -5 -30 -3 -30 10 0 16 -21 21 -64 17 -11 -1 -47 8 -80 19
-34 11 -95 28 -136 39 -41 10 -77 25 -81 32 -30 63 -49 111 -59 149 -20 82
-52 194 -71 253 -33 101 -19 309 36 526 39 154 37 151 90 151 31 0 55 -7 75
-21z m-379 -35 c-18 -8 -45 -13 -60 -12 -25 4 -25 4 9 15 19 6 46 11 60 11 23
0 22 -1 -9 -14z m67 -56 c-3 -7 -36 -31 -74 -52 -38 -21 -100 -56 -138 -77
-38 -22 -73 -39 -77 -39 -12 0 -11 57 1 81 6 10 18 19 26 19 8 0 29 7 47 17
18 9 70 26 117 38 107 28 102 27 98 13z m82 -97 c0 -5 -8 -28 -17 -52 -26 -70
-24 -346 5 -519 27 -162 37 -195 69 -238 14 -18 22 -36 18 -40 -10 -10 -113
-4 -135 8 -14 8 -20 21 -20 48 0 60 -19 162 -46 240 -23 68 -23 75 -8 103 19
38 12 59 -21 59 -32 0 -34 36 -3 75 15 20 21 39 19 74 -1 29 6 60 17 81 50 95
74 136 89 152 17 19 33 24 33 9z m-120 -59 c0 -21 -188 -162 -216 -162 -14 0
31 43 111 107 74 58 105 75 105 55z m-215 -82 c-21 -23 -35 -26 -35 -6 0 15
14 24 39 25 11 1 10 -4 -4 -19z m119 -114 c-3 -8 -20 -26 -37 -39 -50 -37 -57
-40 -57 -23 0 9 19 29 42 46 45 33 60 38 52 16z m-54 -113 c0 -3 -19 -30 -41
-60 -39 -49 -79 -71 -79 -40 1 33 120 134 120 100z m-20 -192 c-11 -22 -62
-61 -80 -61 -22 0 -5 34 29 57 43 29 66 31 51 4z m41 -118 c-14 -27 -59 -73
-70 -73 -25 0 -20 23 12 55 38 38 75 49 58 18z m108 -27 c15 -62 14 -141 -3
-155 -19 -16 -28 11 -20 57 l7 35 -52 -7 c-28 -4 -51 -4 -51 0 0 13 85 113 96
114 7 0 17 -20 23 -44z m1241 -47 l70 -60 -45 -90 c-70 -138 -154 -353 -181
-461 -29 -116 -55 -186 -89 -236 -35 -51 -223 -222 -245 -222 -10 0 -51 31
-92 70 l-73 70 28 25 c51 45 87 30 84 -35 -2 -43 -1 -45 27 -45 26 0 31 5 46
50 10 28 29 72 44 99 34 64 35 103 2 112 -17 4 -27 15 -31 34 -3 15 -16 32
-28 37 -42 20 -90 67 -108 109 -25 55 -42 69 -68 55 -31 -17 -50 -13 -55 12
-14 67 -17 77 -26 77 -5 0 -16 -13 -25 -30 -18 -34 -32 -38 -51 -12 -13 16
-15 16 -28 -1 -8 -10 -26 -53 -41 -95 -15 -43 -33 -86 -41 -96 -28 -39 -24 -6
9 80 19 49 40 107 47 129 23 74 21 73 94 62 52 -7 75 -6 112 7 26 9 70 16 98
16 100 0 157 19 106 35 -26 8 -25 21 1 36 15 8 24 8 32 0 20 -20 34 -12 83 52
27 34 79 95 117 135 37 40 74 88 83 105 27 52 34 58 55 46 11 -5 51 -37 89
-70z m-1350 -111 c0 -14 -30 -48 -42 -48 -10 0 -11 44 -1 53 11 12 43 8 43 -5z
m1500 -8 c0 -10 -9 -42 -20 -70 -11 -28 -20 -59 -20 -69 0 -9 -30 -76 -66
-147 l-65 -129 6 62 c7 78 38 190 75 273 15 36 31 73 34 83 8 25 56 23 56 -3z
m-1205 -40 c-3 -5 -22 -12 -43 -15 -20 -4 -45 -9 -54 -12 -12 -3 -18 1 -18 11
0 17 19 23 78 25 25 1 41 -3 37 -9z m-176 -24 c13 -16 6 -36 -32 -88 -31 -41
-13 -45 38 -9 41 29 77 43 187 71 24 7 62 6 105 0 92 -13 103 -12 103 5 0 8 4
15 9 15 19 0 213 -48 219 -55 16 -15 -34 -36 -73 -31 -85 12 -272 28 -313 27
-27 -1 -87 -19 -153 -46 -61 -25 -119 -45 -129 -45 -27 0 -40 30 -40 89 0 40
4 53 22 65 28 20 42 20 57 2z m318 -137 c8 -8 1 -38 -23 -106 -42 -117 -61
-153 -78 -153 -36 0 -190 147 -184 176 3 18 12 24 103 68 54 26 162 35 182 15z
m-188 -247 c76 -69 102 -112 67 -112 -13 0 -74 63 -126 131 -65 84 -48 78 59
-19z m1021 -102 c10 -6 23 -31 30 -61 l12 -51 -55 -56 c-31 -32 -78 -85 -104
-118 -69 -88 -241 -292 -254 -300 -16 -9 -63 29 -67 54 -4 27 29 55 71 62 27
4 45 23 122 125 49 66 102 126 117 133 17 8 31 26 39 50 6 20 18 46 25 57 8
11 14 38 14 61 0 36 6 48 28 53 2 1 12 -3 22 -9z m-865 -90 c3 -5 19 -10 34
-10 33 0 59 -19 161 -114 241 -226 248 -234 208 -259 -13 -9 -26 -2 -66 33
-27 25 -77 68 -112 95 -63 50 -250 243 -250 257 0 11 18 10 25 -2z m204 -22
c5 -13 21 -34 35 -47 30 -29 33 -41 8 -41 -24 0 -55 23 -92 70 l-32 40 36 0
c29 0 38 -5 45 -22z m1921 -151 c0 -7 -8 -24 -17 -37 -29 -43 -165 -190 -185
-201 -27 -15 -22 -6 65 106 109 139 137 166 137 132z m-1188 -779 c-9 -9 -15
-9 -24 0 -10 10 -10 15 2 22 20 12 38 -6 22 -22z m96 -40 c-4 -29 -38 -38 -38
-10 0 19 11 29 33 31 5 1 7 -9 5 -21z"/>
<path d="M10374 12343 c-4 -10 -9 -90 -12 -178 l-4 -160 -32 -28 c-17 -15 -43
-34 -58 -42 -28 -15 -37 -48 -18 -60 14 -9 67 25 110 70 l35 36 4 190 c3 180
-3 221 -25 172z"/>
<path d="M10604 11875 c4 -20 17 -57 29 -83 17 -38 21 -66 21 -147 -1 -89 -4
-108 -33 -180 -18 -44 -46 -126 -62 -183 -16 -56 -42 -126 -58 -155 -16 -28
-45 -97 -64 -152 -19 -55 -55 -151 -81 -213 -52 -127 -64 -184 -47 -235 7 -20
16 -144 20 -285 8 -239 20 -325 36 -260 8 30 -1 501 -11 590 -7 66 6 113 71
258 24 52 51 124 61 158 9 35 23 66 31 69 22 9 40 52 68 164 14 57 46 153 72
213 40 93 45 112 36 136 -7 18 -7 47 -2 84 8 51 6 63 -22 133 -17 43 -35 88
-40 101 -14 36 -32 27 -25 -13z"/>
<path d="M10045 11679 c-42 -40 -66 -75 -100 -146 -24 -52 -75 -147 -113 -211
-96 -163 -106 -182 -94 -194 20 -20 40 1 100 109 70 126 162 308 162 320 0 5
27 39 60 76 33 38 60 72 60 77 0 26 -26 16 -75 -31z"/>
<path d="M9935 11157 c-58 -15 -106 -39 -124 -61 -20 -24 7 -21 86 12 57 23
83 27 158 27 75 0 98 -4 140 -25 51 -25 129 -96 177 -160 14 -19 29 -32 34
-27 13 12 -18 58 -91 132 -52 54 -83 76 -120 89 -66 23 -196 29 -260 13z"/>
<path d="M9595 10926 c-24 -57 -38 -197 -33 -336 5 -132 23 -200 53 -200 24 0
27 22 9 66 -24 56 -30 260 -11 389 16 108 8 143 -18 81z"/>
<path d="M9869 10545 c-81 -16 -133 -42 -178 -88 -46 -48 -36 -66 15 -29 66
48 100 62 192 80 63 12 87 21 87 32 0 20 -35 22 -116 5z"/>
<path d="M9587 10183 c2 -16 12 -97 23 -181 11 -84 22 -216 25 -295 5 -126 4
-138 -8 -107 -15 38 -44 49 -40 15 7 -55 -35 -243 -68 -305 -11 -19 -19 -48
-19 -65 0 -39 -61 -130 -100 -150 -36 -18 -33 -8 -34 -165 -1 -124 -1 -127
-38 -200 -20 -41 -60 -102 -87 -135 -42 -48 -51 -66 -51 -96 0 -21 -4 -41 -10
-44 -15 -9 -12 -25 4 -25 21 0 111 103 156 179 57 96 80 171 89 288 4 57 10
106 14 109 20 20 146 31 177 14 13 -7 27 -5 50 7 40 19 180 13 249 -11 24 -9
51 -16 60 -16 35 1 -31 39 -87 50 -144 29 -154 37 -108 94 l24 29 -28 24 c-40
34 -82 125 -78 171 l3 37 95 16 c101 16 140 31 140 53 0 32 -26 38 -109 25
-45 -7 -84 -10 -87 -6 -12 12 26 58 72 86 61 39 145 55 215 40 46 -9 62 -20
112 -70 32 -32 60 -59 62 -59 3 0 5 10 5 22 0 25 -81 108 -131 134 -44 22
-145 29 -208 14 -32 -8 -75 -29 -112 -57 -33 -25 -61 -44 -63 -42 -2 2 -8 58
-15 124 -14 140 -57 447 -69 489 -11 39 -30 45 -25 9z"/>
<path d="M5681 10141 c-6 -11 -11 -29 -11 -41 0 -11 -7 -31 -15 -44 -8 -12
-28 -103 -45 -202 -17 -98 -53 -260 -80 -359 -67 -243 -72 -267 -68 -301 5
-46 46 -45 87 1 34 39 141 253 162 323 7 23 16 42 20 42 12 0 17 -30 29 -172
6 -82 17 -146 31 -182 28 -77 122 -193 148 -185 6 2 -5 28 -25 58 -50 74 -92
166 -104 230 -11 58 -12 362 -1 451 l6 55 29 -105 c15 -58 41 -140 58 -183 16
-43 36 -115 44 -159 8 -45 26 -111 40 -146 48 -120 70 -307 50 -434 -8 -56 -8
-58 18 -68 14 -5 26 -17 26 -25 0 -29 30 -75 49 -75 23 0 28 19 36 135 11 158
12 162 67 222 68 75 136 184 188 299 24 52 48 94 54 94 6 0 29 -26 51 -58 36
-52 40 -55 43 -32 2 14 -11 65 -28 114 -17 48 -29 90 -27 93 3 2 15 0 26 -7
38 -20 94 -160 140 -348 35 -143 106 -264 145 -249 8 3 27 24 41 46 14 22 36
48 50 57 44 29 61 -1 90 -150 21 -110 78 -254 128 -321 34 -45 28 0 -11 82
-49 106 -68 167 -88 293 -17 105 -39 153 -72 158 -31 5 -87 -32 -112 -74 -12
-19 -30 -34 -40 -34 -28 0 -64 84 -109 255 -72 273 -109 345 -177 345 -20 0
-44 10 -64 26 -28 24 -34 25 -56 13 -39 -20 -82 -86 -94 -143 -33 -160 -158
-431 -186 -404 -4 4 -35 87 -69 185 -35 98 -84 232 -109 298 -25 66 -56 160
-67 210 -48 206 -135 426 -171 433 -9 2 -21 -6 -27 -17z"/>
<path d="M10390 9766 c0 -106 4 -177 10 -181 7 -4 10 57 10 174 0 114 -4 181
-10 181 -6 0 -10 -65 -10 -174z"/>
<path d="M10400 9298 c0 -7 7 -71 16 -143 26 -214 20 -262 -71 -530 -42 -126
-93 -258 -112 -292 -36 -67 -58 -170 -33 -161 20 6 89 171 131 316 22 72 59
178 83 235 53 124 58 147 58 249 -1 80 -27 274 -43 316 -9 23 -29 30 -29 10z"/>
<path d="M7546 9239 c-48 -38 -76 -140 -96 -359 -20 -222 -64 -408 -130 -553
-35 -78 -37 -97 -10 -128 l20 -24 19 23 c11 12 29 53 42 90 24 73 100 262 154
382 38 85 73 221 83 325 l7 70 34 0 c30 0 36 -4 42 -29 5 -16 13 -167 19 -335
20 -586 36 -816 62 -864 28 -54 121 -169 143 -177 45 -17 50 -42 47 -213 -2
-145 -1 -161 18 -191 16 -27 20 -50 20 -124 0 -93 10 -119 31 -81 8 15 9 72 5
193 -12 373 -23 422 -105 481 -43 31 -114 117 -125 152 -10 32 53 140 94 161
26 13 43 35 70 86 19 38 40 68 45 67 14 -2 10 -102 -5 -167 -9 -37 -10 -57 -3
-66 6 -7 14 -32 18 -55 3 -22 13 -49 20 -60 13 -17 14 -16 15 10 0 36 22 88
55 131 30 40 114 111 121 103 3 -3 -20 -33 -51 -68 -66 -74 -89 -113 -81 -142
3 -11 0 -29 -5 -40 -21 -38 7 -39 51 -2 23 20 44 34 47 32 2 -2 7 -24 11 -48
7 -42 9 -44 45 -47 24 -2 41 -10 47 -23 14 -26 23 -24 37 9 19 42 125 154 187
197 l56 39 42 -40 c62 -59 149 -182 185 -259 17 -39 44 -97 59 -130 55 -122
32 -22 -50 215 -46 135 -93 269 -105 298 -38 95 -31 107 86 154 61 25 121 65
122 82 1 11 -133 -2 -168 -17 -14 -6 -60 -30 -102 -54 -42 -24 -98 -50 -124
-57 -26 -8 -69 -33 -96 -56 -53 -45 -79 -47 -79 -6 0 42 -49 184 -66 190 -30
12 -44 6 -44 -18 0 -17 -20 -42 -66 -85 -37 -34 -72 -61 -79 -61 -7 0 -15 18
-18 41 -6 46 -33 82 -56 74 -9 -4 -23 5 -37 22 -19 24 -24 26 -38 14 -8 -7
-23 -38 -33 -67 -13 -42 -27 -63 -60 -90 -42 -34 -42 -35 -47 -12 -12 59 -17
128 -31 464 -17 408 -23 455 -65 541 -54 110 -124 149 -184 102z m1124 -1095
c0 -8 16 -54 35 -101 20 -47 34 -90 33 -95 -2 -6 -30 15 -61 46 -55 53 -88 68
-102 46 -4 -6 -22 -17 -42 -25 -20 -8 -53 -30 -73 -49 -21 -19 -48 -40 -60
-46 l-22 -12 18 32 c28 47 156 166 211 194 57 30 63 31 63 10z m-350 -103 c0
-11 -120 -121 -132 -121 -14 0 26 53 72 93 39 36 60 46 60 28z"/>
<path d="M5125 8978 c-40 -125 -53 -198 -38 -198 13 0 20 19 68 172 34 110 37
138 15 138 -5 0 -25 -51 -45 -112z"/>
<path d="M1904 8837 c-3 -8 2 -49 10 -90 31 -147 15 -296 -54 -527 -49 -165
-59 -190 -75 -190 -13 0 -15 -19 -31 -226 -7 -95 1 -130 56 -224 21 -36 44
-83 50 -105 12 -37 129 -273 185 -374 14 -25 41 -59 60 -77 27 -24 35 -40 35
-65 0 -43 8 -54 42 -62 19 -5 28 -15 33 -36 5 -23 15 -32 51 -44 24 -8 44 -14
44 -13 0 1 -4 17 -10 35 -7 24 -6 39 1 48 13 14 75 18 83 4 3 -4 -20 -91 -51
-192 -30 -101 -61 -220 -68 -264 -8 -55 -20 -92 -38 -118 -40 -59 -42 -74 -13
-112 30 -38 32 -57 11 -75 -18 -15 -35 -5 -35 23 0 31 -19 8 -43 -50 -16 -39
-20 -87 -26 -260 l-7 -212 -39 -48 c-151 -187 -184 -210 -299 -201 -54 5 -83
15 -173 63 -166 88 -250 152 -345 262 -104 121 -127 151 -174 233 l-37 65 -5
161 -5 161 37 81 c66 146 73 325 18 465 -39 101 -69 143 -112 161 -19 8 -66
39 -105 70 -83 67 -139 96 -184 96 -28 0 -32 -3 -29 -22 2 -12 16 -29 33 -38
16 -9 32 -25 35 -36 5 -20 33 -59 108 -148 68 -81 77 -109 59 -175 -8 -31 -27
-105 -42 -166 -15 -60 -43 -173 -63 -250 -38 -149 -40 -172 -27 -305 6 -64 16
-102 42 -157 19 -39 43 -113 53 -164 14 -67 26 -99 44 -118 29 -30 46 -71 46
-109 0 -15 7 -37 15 -49 8 -12 20 -44 26 -72 7 -34 26 -71 57 -112 26 -34 54
-73 63 -88 8 -14 35 -46 60 -71 24 -25 52 -60 61 -78 11 -21 24 -32 39 -32 12
0 39 -10 60 -22 40 -22 56 -52 46 -88 -3 -10 0 -26 7 -35 10 -14 14 -13 35 9
14 15 30 26 37 26 19 0 53 -48 60 -86 l6 -33 62 5 61 6 178 -92 c194 -100 197
-104 112 -134 -25 -8 -70 -33 -101 -55 -48 -34 -65 -41 -105 -41 -43 0 -48 -2
-58 -30 -9 -27 -14 -30 -55 -30 -37 0 -48 -4 -64 -27 -59 -84 -93 -214 -75
-289 12 -51 37 -56 61 -13 50 92 109 128 209 129 39 0 72 6 91 17 30 17 64 14
125 -12 28 -12 21 20 -15 61 l-32 36 34 29 c19 16 38 29 43 29 4 0 7 -16 7
-35 0 -24 6 -37 21 -45 24 -13 53 4 44 27 -2 8 2 46 11 85 15 66 15 73 -1 100
-12 21 -15 40 -10 69 6 33 3 45 -19 74 l-27 34 26 7 c34 8 55 -1 55 -26 0 -11
7 -32 16 -46 24 -36 38 -339 24 -502 l-11 -123 30 -79 c36 -92 41 -144 14
-136 -10 3 -60 8 -111 12 -75 5 -99 11 -125 30 -61 45 -96 59 -110 45 -9 -10
-2 -21 38 -56 28 -24 48 -45 45 -48 -16 -14 -90 -29 -224 -47 -83 -11 -182
-27 -221 -36 -80 -17 -285 -30 -338 -20 -19 4 -51 18 -71 31 -45 31 -56 31
-91 3 l-28 -22 22 -17 c24 -20 91 -35 199 -44 50 -5 72 -11 72 -20 0 -19 -36
-28 -107 -27 -99 1 -169 20 -306 83 -70 32 -131 59 -135 59 -19 0 -381 247
-556 379 -37 28 -75 51 -85 51 -16 0 -41 -37 -41 -61 0 -5 27 -38 59 -73 33
-35 68 -81 79 -102 11 -22 47 -75 81 -118 33 -44 64 -95 67 -113 7 -37 11 -40
164 -147 58 -41 123 -79 145 -85 22 -6 83 -38 135 -71 52 -34 106 -63 120 -66
29 -5 148 -40 205 -60 26 -9 84 -14 159 -14 l118 0 -5 -26 c-7 -37 17 -41 54
-10 37 31 74 42 92 27 8 -6 67 -18 133 -26 205 -27 408 -79 434 -111 7 -8 23
-14 36 -14 12 0 35 -5 51 -11 15 -6 55 -21 88 -33 79 -29 167 -87 218 -147 47
-55 57 -59 57 -25 0 15 -21 51 -51 88 -27 34 -45 64 -39 66 6 2 31 1 54 -2 42
-7 44 -9 64 -64 64 -181 97 -255 119 -265 13 -6 23 -14 23 -19 0 -14 -69 -146
-79 -153 -6 -3 -20 5 -32 19 -11 13 -36 27 -54 30 -39 8 -80 51 -90 96 -6 26
-17 35 -73 61 -36 16 -73 28 -82 27 -28 -6 -16 -41 20 -61 39 -21 106 -82 121
-110 15 -27 -2 -41 -94 -77 -93 -37 -172 -84 -181 -106 -3 -8 1 -26 10 -39 15
-24 15 -25 -11 -37 -22 -10 -32 -9 -61 7 -33 18 -35 18 -96 -5 -35 -12 -97
-34 -138 -47 -261 -86 -370 -155 -690 -439 -315 -278 -454 -444 -373 -444 8 0
49 25 90 55 73 53 105 66 118 45 11 -18 51 -10 73 14 13 16 48 33 94 46 40 12
141 43 224 70 162 52 275 72 497 90 150 11 227 25 269 46 36 19 89 18 238 -5
69 -11 167 -24 219 -30 52 -5 99 -15 105 -21 14 -15 -43 -67 -81 -75 -138 -27
-280 -68 -300 -87 -13 -12 -59 -89 -102 -172 -84 -162 -105 -198 -237 -406
-98 -156 -204 -360 -204 -396 0 -39 24 -28 69 30 57 77 140 158 153 150 7 -4
9 -41 6 -103 -4 -77 -10 -106 -30 -146 -35 -69 -112 -173 -158 -215 -41 -38
-55 -67 -40 -89 14 -23 46 -3 157 100 55 52 128 118 162 147 113 98 143 168
157 362 9 132 17 151 84 213 84 78 173 145 217 164 31 13 84 16 303 17 l265 1
78 37 c59 28 77 42 75 55 -5 28 37 28 86 -1 43 -25 106 -88 106 -106 0 -5 -33
-26 -72 -45 -76 -37 -149 -100 -174 -148 -8 -15 -23 -67 -34 -115 -15 -71 -29
-104 -74 -176 -31 -49 -61 -107 -68 -128 -13 -46 -38 -68 -318 -287 -107 -85
-210 -167 -227 -184 -63 -59 -33 -74 67 -33 l59 24 3 -25 c2 -14 11 -31 20
-37 25 -15 63 6 213 119 163 123 320 201 519 257 31 8 57 23 69 40 11 15 46
102 76 194 32 94 63 171 72 177 13 8 32 -2 94 -52 43 -34 85 -61 93 -59 9 2
19 14 22 28 4 15 14 26 27 28 17 3 35 -17 88 -95 103 -150 122 -189 146 -298
21 -94 21 -101 6 -143 -26 -70 10 -113 41 -49 24 50 26 121 4 204 -30 114 -36
160 -21 169 20 12 39 -26 39 -80 0 -71 15 -91 29 -40 6 21 11 45 11 52 0 21
27 25 54 7 15 -10 26 -13 26 -6 0 6 -18 23 -40 37 -22 15 -40 34 -40 43 0 9 7
113 16 231 25 357 29 541 11 565 -13 16 -18 18 -29 7 -10 -10 -15 -77 -19
-265 -8 -302 -19 -490 -29 -507 -5 -8 -15 -10 -25 -6 -17 6 -17 24 -11 249 3
133 9 308 12 388 7 163 3 202 -24 197 -24 -5 -29 -76 -31 -428 -1 -301 -4
-340 -25 -340 -16 0 -58 45 -85 90 -26 43 -27 109 -5 305 8 77 17 205 18 285
1 80 6 151 10 158 10 16 71 15 104 -2 15 -7 58 -21 97 -29 65 -15 81 -25 104
-66 5 -8 13 -11 20 -7 33 21 -12 79 -73 95 -30 7 -51 20 -66 41 -19 26 -27 30
-71 30 -27 0 -49 3 -49 6 0 4 10 22 21 41 16 26 20 44 16 74 -7 50 -32 89 -56
89 -24 0 -79 68 -99 123 -11 29 -17 85 -18 177 -2 74 -3 137 -3 139 -1 3 -12
-6 -25 -18 -32 -30 -46 -20 -46 32 0 38 -5 48 -54 95 -35 34 -56 64 -60 85 -8
37 -32 74 -43 63 -11 -10 -6 -82 7 -106 6 -11 31 -43 55 -70 49 -55 54 -81 34
-151 -10 -32 -9 -42 5 -64 20 -30 36 -32 43 -5 8 31 21 24 32 -18 24 -83 22
-87 -150 -319 -89 -120 -163 -220 -165 -222 -7 -8 -55 19 -60 33 -9 23 60 126
183 273 62 74 110 139 107 144 -19 31 -170 -120 -273 -274 -69 -103 -91 -121
-91 -74 0 21 34 97 62 142 7 11 55 85 107 165 135 209 171 268 171 285 0 61
-101 -69 -288 -370 -44 -72 -89 -138 -100 -148 -20 -18 -21 -18 -31 2 -20 37
-11 74 48 187 76 144 159 270 238 361 35 40 63 75 63 78 0 3 -9 5 -20 5 -30 0
-141 -115 -202 -210 -30 -47 -80 -133 -112 -192 -56 -105 -71 -126 -84 -114
-13 13 21 133 55 196 51 95 134 217 192 283 28 32 51 65 51 73 0 24 -33 15
-79 -21 -42 -33 -45 -34 -63 -19 -23 22 -23 45 2 77 23 29 52 37 160 46 59 5
74 9 71 21 -13 50 -10 70 20 153 27 72 44 102 79 137 55 55 335 222 410 245
131 40 226 83 309 143 80 57 201 170 201 188 0 39 -94 0 -257 -104 -59 -38
-196 -114 -303 -169 -107 -55 -226 -119 -264 -143 -65 -41 -71 -43 -108 -33
-35 9 -43 8 -76 -15 -52 -36 -113 -62 -143 -62 -31 0 -121 -76 -144 -121 -18
-34 -5 -116 25 -159 11 -15 20 -34 20 -42 0 -18 -42 -58 -60 -58 -8 0 -33 -10
-57 -21 -41 -20 -45 -20 -62 -5 -10 9 -34 16 -54 16 -52 0 -48 19 18 105 30
40 55 77 55 82 0 12 -84 -8 -128 -31 -17 -9 -90 -72 -162 -142 -72 -69 -134
-124 -137 -121 -10 10 170 256 259 354 52 58 58 73 30 73 -29 0 -176 -165
-316 -354 -28 -37 -30 -38 -39 -18 -8 16 -2 35 28 89 47 86 127 200 199 282
59 68 68 91 37 91 -26 0 -100 -85 -215 -244 -90 -126 -118 -157 -131 -144 -13
13 78 165 156 258 21 25 48 70 62 100 13 30 50 86 81 123 35 41 56 74 52 82
-8 22 -21 18 -53 -16 -64 -71 -64 -71 -78 -59 -11 9 -12 17 -4 34 18 34 71 86
89 86 9 0 21 5 26 10 6 6 53 17 105 25 82 12 176 36 230 59 12 5 33 -7 68 -38
29 -25 56 -46 61 -46 4 0 32 -20 61 -45 55 -47 78 -53 118 -32 35 18 28 31
-19 39 -49 9 -182 104 -205 148 -20 39 -46 45 -95 20 -23 -12 -53 -20 -67 -18
-26 3 -27 6 -59 198 -36 210 -45 240 -70 240 -15 0 -16 -8 -11 -58 4 -31 23
-120 43 -197 49 -189 49 -195 1 -214 -52 -20 -57 -10 -57 116 0 125 -15 241
-41 308 -29 75 -27 79 29 72 50 -6 49 -6 141 55 14 10 39 18 54 18 15 0 30 7
33 15 8 19 -9 40 -61 77 -102 74 -225 200 -281 288 -42 67 -63 92 -83 96 -14
3 -32 8 -39 10 -28 8 -31 -8 -10 -49 14 -27 21 -57 19 -85 -1 -25 6 -61 19
-88 20 -46 20 -47 60 -41 36 5 42 2 62 -26 12 -18 51 -66 88 -107 36 -41 69
-80 73 -86 4 -7 -19 -9 -76 -7 -108 5 -156 17 -250 60 -58 27 -79 42 -83 60
-8 31 2 108 27 205 23 91 24 108 5 108 -19 0 -53 -92 -75 -200 -14 -73 -20
-85 -38 -88 -15 -2 -27 6 -39 23 -28 42 -11 154 51 343 8 23 -26 25 -55 4 -40
-30 -42 -12 -12 86 19 61 23 85 14 94 -15 15 -39 -5 -47 -41 -8 -38 -43 -93
-55 -86 -6 3 -10 15 -10 27 0 27 61 141 110 206 45 59 49 72 20 72 -21 0 -43
-26 -128 -149 -59 -88 -82 -108 -82 -72 0 23 69 159 150 296 92 155 102 174
95 185 -3 5 -13 10 -21 10 -19 0 -18 13 6 60 34 67 49 68 163 17 61 -27 68
-34 77 -68 11 -39 30 -53 30 -23 0 9 9 27 20 41 15 19 17 30 10 44 -16 29 -52
49 -87 49 -26 0 -36 6 -48 30 -11 22 -39 42 -103 74 -107 54 -114 61 -102 107
5 19 14 86 20 149 6 63 13 134 15 158 4 32 1 42 -10 42 -20 0 -32 -53 -45
-204 -12 -138 -21 -169 -48 -164 -14 3 -17 20 -20 113 -2 61 2 172 8 248 12
145 8 186 -15 167 -8 -6 -16 -44 -19 -93 -15 -186 -27 -314 -32 -345 -5 -33
-6 -33 -25 -16 -26 23 -25 82 6 378 14 131 25 265 25 298 l0 60 -36 -4 -35 -4
3 80 c2 67 0 81 -12 81 -12 0 -18 -35 -31 -185 -10 -102 -26 -241 -37 -310
-12 -69 -23 -164 -26 -212 -5 -95 -20 -138 -39 -119 -20 20 -10 214 28 523 37
308 47 364 64 381 16 16 69 -49 134 -165 105 -186 154 -238 228 -238 20 0 46
-8 58 -17 20 -18 21 -21 11 -188 -5 -93 -12 -206 -16 -250 -5 -59 -3 -77 5
-69 6 6 18 92 26 200 20 239 38 333 78 404 30 52 31 60 31 161 0 96 -3 111
-26 150 -32 54 -63 84 -73 70 -3 -6 -1 -47 6 -91 7 -49 9 -113 4 -165 -7 -85
-7 -85 -35 -85 -15 0 -42 3 -59 6 -25 5 -31 11 -31 33 1 38 48 224 124 486 78
265 161 594 152 602 -8 9 -36 -17 -36 -33 0 -8 -5 -14 -11 -14 -32 0 -119 73
-119 100 0 24 97 310 115 336 9 15 25 24 40 24 24 0 25 -3 25 -63 0 -35 5 -68
11 -74 11 -11 9 -47 -7 -135 -5 -29 -1 -44 16 -67 18 -26 25 -29 41 -21 23 13
38 5 73 -37 46 -55 65 -113 76 -232 15 -175 -5 -211 -198 -359 -135 -104 -153
-128 -128 -167 22 -34 30 -32 48 13 10 27 45 64 117 126 168 145 206 210 204
351 -1 155 -14 193 -103 310 l-78 102 39 51 39 51 -27 3 -28 3 0 160 c0 147 2
161 20 176 11 9 33 28 49 41 18 15 26 30 22 37 -5 8 -22 3 -59 -18 -65 -36
-88 -43 -107 -31 -12 7 -4 24 42 92 31 46 82 111 112 145 31 33 56 64 56 67 0
3 -7 6 -17 6 -28 0 -80 -48 -165 -152 -81 -100 -108 -116 -70 -41 29 56 102
152 192 253 44 49 80 91 80 94 0 3 -9 6 -20 6 -26 0 -168 -145 -258 -264 -67
-90 -92 -112 -92 -81 0 39 57 127 206 320 72 95 84 115 82 144 -4 41 -25 56
-64 47 -35 -9 -183 -157 -207 -207 -9 -19 -26 -44 -37 -54 -29 -26 -150 -275
-150 -307 0 -14 10 -38 22 -53 l21 -27 -23 -46 c-38 -79 -102 -185 -127 -210
-23 -23 -25 -23 -49 -7 -14 9 -51 19 -82 22 -33 4 -68 15 -84 26 -18 14 -34
18 -53 13 -22 -6 -35 2 -86 51 -86 82 -155 177 -183 253 -55 149 -96 289 -96
326 0 49 40 204 82 312 l31 82 -17 58 c-9 31 -25 100 -36 152 -11 52 -30 115
-43 140 -22 46 -52 63 -63 37z m1196 -634 c0 -12 -60 -99 -85 -123 l-25 -23 0
25 c0 17 17 44 46 77 42 46 64 62 64 44z m-1186 -284 c36 -71 45 -109 26 -109
-11 0 -80 140 -80 164 0 34 20 14 54 -55z m853 -376 c-6 -52 -55 -217 -88
-300 -25 -62 -50 -70 -74 -23 -18 36 -13 62 28 145 37 75 126 225 134 225 3 0
3 -21 0 -47z m145 1 c37 -21 47 -36 36 -58 -5 -13 -22 -30 -38 -39 -23 -14
-34 -36 -63 -129 -20 -62 -43 -139 -52 -170 -11 -42 -20 -58 -33 -58 -20 0
-82 36 -82 47 0 5 22 78 49 163 85 270 88 275 141 260 16 -5 35 -12 42 -16z
m-846 -71 c12 -25 19 -68 21 -128 4 -81 3 -88 -11 -71 -30 37 -61 236 -37 236
5 0 17 -17 27 -37z m254 -237 c0 -8 -4 -18 -10 -21 -5 -3 -10 3 -10 14 0 12 5
21 10 21 6 0 10 -6 10 -14z m-30 -112 c0 -22 -37 -145 -49 -164 -29 -44 -15
65 19 154 11 29 30 35 30 10z m150 -132 c0 -10 -7 -28 -16 -41 -13 -18 -18
-20 -25 -10 -14 23 13 85 32 73 5 -3 9 -13 9 -22z m284 2 c9 -3 16 -17 16 -31
0 -13 -57 -153 -126 -311 -70 -158 -132 -305 -139 -327 -11 -35 -16 -40 -40
-38 -15 1 -36 10 -46 19 -37 33 -27 67 94 309 27 55 54 105 59 111 4 6 31 55
58 109 44 86 94 165 105 165 2 0 10 -3 19 -6z m-1721 -42 c8 -9 20 -29 26 -45
8 -22 8 -27 -4 -27 -15 0 -65 60 -65 78 0 18 25 14 43 -6z m1865 -19 c28 -13
32 -20 32 -54 0 -66 -47 -263 -120 -499 -38 -124 -77 -264 -86 -312 -17 -87
-40 -137 -51 -110 -3 7 -16 26 -29 41 -13 16 -24 36 -24 46 0 23 -57 152 -86
196 l-25 36 31 77 c43 110 95 210 129 248 15 18 36 60 45 92 10 33 35 99 57
147 21 47 39 94 39 103 0 19 31 15 88 -11z m-288 -19 c0 -14 -18 -55 -146
-335 -24 -52 -44 -101 -44 -108 0 -23 -30 -71 -45 -71 -36 0 -2 196 46 275 51
83 173 255 182 255 4 0 7 -7 7 -16z m-110 -33 c0 -12 -20 -25 -27 -18 -7 7 6
27 18 27 5 0 9 -4 9 -9z m-1395 -339 c-8 -43 -21 -33 -28 21 -6 44 7 170 21
191 9 14 15 -167 7 -212z m1172 -759 c-5 -122 -12 -153 -30 -153 -6 0 -8 28
-4 83 6 86 25 187 34 187 3 0 3 -53 0 -117z m173 -68 c-34 -445 -35 -450 -65
-425 -30 25 -33 53 -19 159 16 128 63 410 71 431 13 34 21 -61 13 -165z
m-1190 -63 c0 -13 -12 -22 -22 -16 -10 6 -1 24 13 24 5 0 9 -4 9 -8z m52 -39
c22 -19 24 -43 4 -43 -19 0 -46 27 -46 46 0 19 19 18 42 -3z m188 -173 c0 -5
-2 -10 -4 -10 -3 0 -8 5 -11 10 -3 6 -1 10 4 10 6 0 11 -4 11 -10z m720 -90
c0 -19 -11 -26 -23 -14 -8 8 3 34 14 34 5 0 9 -9 9 -20z m-172 -12 c-3 -7 -16
-20 -31 -28 -20 -11 -29 -12 -38 -3 -9 9 -9 16 1 28 15 18 74 21 68 3z m260
-217 c-2 -14 -8 -26 -14 -28 -15 -5 -25 36 -17 66 6 23 7 23 20 5 8 -10 13
-30 11 -43z m-804 -118 c-5 -25 -9 -31 -15 -21 -11 16 -12 82 -2 92 12 12 24
-35 17 -71z m1156 -53 c0 -17 -24 -61 -129 -235 -54 -88 -114 -190 -134 -226
-32 -59 -41 -68 -73 -74 -20 -3 -38 -4 -41 -1 -8 7 -24 158 -18 164 3 3 11 0
17 -6 7 -7 22 -12 34 -12 24 0 34 20 59 119 34 136 93 259 117 245 18 -11 2
-79 -44 -180 -52 -115 -83 -203 -74 -211 11 -11 33 27 121 207 48 96 96 185
108 198 21 23 57 30 57 12z m-843 -152 c-3 -7 -5 -2 -5 12 0 14 2 19 5 13 2
-7 2 -19 0 -25z m506 -64 c8 -8 -3 -34 -14 -34 -5 0 -9 9 -9 20 0 19 11 26 23
14z m-79 -39 c7 -20 -3 -44 -25 -55 -25 -14 -30 -1 -14 38 15 34 29 41 39 17z
m16 -235 c0 -5 -4 -10 -9 -10 -6 0 -13 5 -16 10 -3 6 1 10 9 10 9 0 16 -4 16
-10z m-615 -119 c-8 -25 -45 -49 -45 -29 0 13 41 60 48 54 2 -3 1 -14 -3 -25z
m255 18 c0 -11 -60 -69 -72 -69 -18 0 -6 30 23 54 32 28 49 33 49 15z m-287
-94 c8 -18 -26 -60 -41 -51 -11 7 -7 31 11 54 13 16 24 15 30 -3z m984 -181
c9 -25 -18 -193 -34 -206 -11 -9 -20 -6 -41 15 l-26 26 18 56 c28 90 45 125
61 125 9 0 18 -7 22 -16z m-99 -16 c-4 -27 -28 -36 -28 -10 0 20 8 32 22 32 5
0 8 -10 6 -22z m-133 -62 c9 -29 29 -74 45 -100 36 -55 36 -60 9 -46 -26 14
-49 -3 -49 -36 0 -36 -14 -36 -47 -1 -45 47 -58 76 -38 83 8 4 22 1 30 -6 24
-20 28 -5 15 48 -13 50 -6 127 10 117 6 -3 17 -30 25 -59z m129 -202 c12 -4
14 -17 10 -57 -9 -84 -14 -87 -40 -22 -12 33 -23 66 -23 73 -1 13 27 16 53 6z
m155 -89 c17 -17 51 -139 51 -186 0 -38 -18 -63 -37 -51 -24 15 -90 233 -76
255 6 10 43 -1 62 -18z m-544 -42 l55 -27 0 -88 c0 -71 -3 -90 -15 -95 -27
-10 -135 16 -320 79 -199 67 -236 70 -325 29 -51 -23 -103 -27 -118 -8 -28 33
23 47 277 77 91 11 200 28 241 39 105 26 141 25 205 -6z m323 -7 c6 -30 -15
-42 -38 -21 -15 14 -17 21 -8 32 15 18 42 12 46 -11z m378 -4 c16 -10 39 -59
58 -122 19 -61 96 -406 96 -426 0 -7 -13 -28 -28 -46 -16 -18 -32 -41 -35 -51
-14 -37 -41 -14 -58 49 -21 76 -49 267 -49 331 0 26 -9 76 -20 110 -10 34 -22
85 -26 113 l-7 50 29 0 c16 0 34 -4 40 -8z m144 -52 c26 -14 78 -120 96 -197
10 -41 17 -119 17 -198 2 -128 2 -130 -20 -133 -31 -5 -36 10 -78 238 -61 327
-60 314 -15 290z m-498 -38 c11 -11 115 -380 130 -459 6 -35 8 -66 4 -70 -12
-12 -14 -8 -110 232 -20 50 -39 106 -43 125 -3 19 -12 44 -20 55 -7 11 -13 26
-13 35 0 8 -7 28 -15 44 -25 48 -20 59 22 53 20 -4 40 -10 45 -15z m161 -157
c32 -93 80 -255 107 -360 l50 -190 -37 -37 c-20 -21 -41 -38 -45 -38 -12 0
-45 71 -53 113 -5 24 -3 42 4 51 13 15 -16 158 -95 480 -18 76 -31 143 -28
148 3 5 13 8 22 6 12 -2 34 -53 75 -173z m-963 55 c0 -12 -27 -12 -55 0 -16 7
-13 9 18 9 20 1 37 -3 37 -9z m738 -103 c4 -32 -7 -34 -39 -7 -21 17 -22 21
-9 30 24 16 45 7 48 -23z m365 -82 c4 -28 21 -107 37 -176 31 -129 38 -199 20
-199 -14 0 -27 30 -34 81 -4 25 -22 110 -41 189 -19 79 -32 147 -29 152 3 5
13 8 22 6 11 -2 19 -19 25 -53z m-1662 22 c-13 -13 -26 -3 -16 12 3 6 11 8 17
5 6 -4 6 -10 -1 -17z m1312 -41 c26 -24 45 -71 34 -83 -3 -3 -25 6 -49 19 -45
24 -62 63 -36 79 19 13 22 12 51 -15z m1101 -568 c-4 -7 -17 -26 -29 -43 -12
-16 -32 -48 -43 -70 l-21 -40 -1 41 c0 32 7 49 36 82 32 38 75 60 58 30z m24
-208 c6 0 12 -4 12 -10 0 -16 -46 -11 -61 7 -13 15 -11 16 11 10 14 -4 31 -7
38 -7z m-448 -200 c12 -9 8 -16 -25 -42 -22 -17 -70 -63 -108 -101 -74 -76
-85 -78 -107 -11 -14 40 -6 71 20 79 11 3 41 24 67 46 40 33 55 39 93 39 25 0
52 -5 60 -10z m-530 -23 c0 -17 -38 -53 -46 -44 -7 7 25 57 37 57 5 0 9 -6 9
-13z m770 -6 c0 -10 -26 -46 -102 -143 -31 -40 -81 -113 -111 -163 -37 -63
-60 -91 -75 -93 -35 -5 -28 42 19 128 61 113 135 205 180 225 21 10 46 26 55
36 18 20 34 25 34 10z m-179 -38 c-5 -10 -23 -36 -41 -57 -17 -22 -47 -67 -67
-100 -59 -100 -84 -119 -98 -75 -12 37 4 68 73 141 81 86 160 140 133 91z
m223 -55 c-15 -29 -47 -88 -71 -131 -41 -71 -46 -76 -59 -60 -22 30 -16 57 27
119 48 70 122 149 127 135 2 -5 -9 -33 -24 -63z m-1423 -46 c-11 -22 -41 -37
-41 -22 0 13 40 53 47 47 2 -3 0 -14 -6 -25z m825 -43 c6 -11 -41 -67 -50 -58
-2 2 -1 19 1 37 5 33 34 45 49 21z m-156 -13 c0 -16 -18 -31 -27 -22 -8 8 5
36 17 36 5 0 10 -6 10 -14z m-499 -109 c-16 -16 -26 0 -10 19 9 11 15 12 17 4
2 -6 -1 -17 -7 -23z m709 -13 c15 -40 12 -53 -15 -60 -36 -9 -40 -1 -26 46 14
46 27 51 41 14z m-1060 -4 c-12 -23 -80 -60 -110 -60 -16 0 -21 5 -18 22 2 16
13 25 40 33 20 5 40 13 44 18 4 4 18 7 31 7 21 0 22 -3 13 -20z m630 15 c0
-14 -32 -65 -40 -65 -13 0 -13 6 5 40 13 26 35 41 35 25z m290 -5 c0 -5 -4
-10 -10 -10 -5 0 -10 5 -10 10 0 6 5 10 10 10 6 0 10 -4 10 -10z m-796 -21
c-3 -5 -10 -7 -15 -3 -5 3 -7 10 -3 15 3 5 10 7 15 3 5 -3 7 -10 3 -15z m-285
-48 c11 -7 4 -14 -27 -30 -68 -35 -98 -23 -46 18 29 23 51 26 73 12z m974 -16
c-7 -19 -33 -20 -33 -1 0 15 20 26 32 19 4 -2 5 -10 1 -18z m1341 -87 c59
-118 64 -145 36 -181 -12 -15 -29 -27 -38 -27 -9 0 -29 -8 -43 -18 -75 -50
-197 -134 -214 -147 -19 -13 -23 -13 -43 1 -28 19 -28 58 -2 86 20 22 78 108
190 286 33 50 61 92 63 92 3 0 25 -42 51 -92z m-1594 48 c-13 -13 -35 7 -25
24 5 8 11 8 21 -1 10 -8 12 -15 4 -23z m-228 7 c78 -22 1 -58 -157 -73 -246
-22 -338 -39 -447 -80 -113 -42 -188 -59 -188 -42 0 15 188 109 294 147 50 18
107 40 126 49 29 13 61 15 190 11 85 -2 167 -8 182 -12z m618 7 c0 -5 -4 -10
-9 -10 -6 0 -13 5 -16 10 -3 6 1 10 9 10 9 0 16 -4 16 -10z m-95 -53 l50 -12
-55 -3 c-74 -4 -120 5 -120 25 0 16 17 15 125 -10z m267 -2 c18 -39 -1 -51
-46 -30 -43 21 -53 34 -35 46 29 18 69 10 81 -16z m46 -132 c3 -21 -1 -23 -42
-23 -51 0 -68 16 -40 37 29 21 78 13 82 -14z m60 -101 c2 -8 -7 -12 -27 -12
-26 0 -34 -7 -53 -42 l-23 -43 -3 48 c-3 46 -4 47 -38 47 -18 0 -34 4 -34 10
0 14 173 7 178 -8z m20 -84 c-2 -22 -9 -34 -20 -36 -20 -4 -22 6 -8 42 14 37
32 32 28 -6z m152 -6 c0 -13 -12 -22 -22 -16 -10 6 -1 24 13 24 5 0 9 -4 9 -8z
m732 -19 c16 -14 18 -33 18 -147 0 -130 -15 -391 -25 -454 -7 -41 -18 -34 -52
31 -34 67 -41 171 -20 327 9 63 19 144 23 180 3 36 8 68 11 73 7 12 25 8 45
-10z m-121 -213 c-7 -47 -14 -104 -17 -127 -3 -27 -10 -43 -19 -43 -23 0 -56
67 -65 132 -9 62 -9 63 20 90 17 15 30 34 30 43 0 9 12 28 28 43 l27 27 3 -40
c2 -22 -1 -78 -7 -125z m-141 116 c0 -25 -22 -51 -33 -39 -11 10 -8 38 5 51
18 18 28 14 28 -12z m-373 -29 c-15 -23 -57 -36 -57 -18 0 14 51 52 62 45 5
-3 3 -15 -5 -27z m-417 -47 c0 -20 -25 -38 -36 -27 -8 7 15 47 26 47 6 0 10
-9 10 -20z m230 -21 c0 -5 -7 -9 -15 -9 -15 0 -20 12 -9 23 8 8 24 -1 24 -14z
m-612 -11 c-2 -7 -26 -28 -52 -46 -39 -26 -52 -30 -63 -21 -8 7 -13 22 -11 33
2 16 15 23 58 32 74 16 72 16 68 2z m1248 -239 c29 -58 25 -73 -11 -39 -17 16
-25 34 -25 57 0 18 2 33 5 33 2 0 16 -23 31 -51z m-1585 -92 c-6 -15 -15 -27
-21 -27 -14 0 -13 46 2 73 11 21 11 21 20 1 6 -12 5 -30 -1 -47z m1432 -63
c-5 -15 -15 -30 -21 -32 -16 -5 -16 50 0 66 19 19 32 -2 21 -34z m-1533 -11
c0 -34 -92 -128 -98 -100 -2 10 4 30 13 45 59 92 85 109 85 55z m1360 -17 c0
-24 -23 -56 -40 -56 -26 0 -25 8 2 37 19 21 38 30 38 19z m-70 -131 c0 -16
-27 -32 -37 -22 -3 4 -3 13 0 22 8 20 37 20 37 0z m-1130 -57 c0 -41 -77 -148
-107 -148 -18 0 -17 1 20 58 17 27 40 63 49 81 20 36 38 41 38 9z m1070 -119
c0 -16 -68 -79 -86 -79 -26 0 -15 19 32 55 52 39 54 40 54 24z m-268 -171 c-7
-7 -12 -8 -12 -2 0 14 12 26 19 19 2 -3 -1 -11 -7 -17z"/>
<path d="M2638 6560 c-4 -14 -8 -36 -7 -50 l0 -25 10 25 c5 13 9 36 7 50 l-3
25 -7 -25z"/>
<path d="M2606 6427 c-7 -28 -8 -62 -1 -55 11 11 23 68 15 73 -4 3 -10 -5 -14
-18z"/>
<path d="M5752 8678 c-27 -35 -134 -257 -128 -267 9 -15 39 -14 54 1 7 7 12
24 12 38 0 14 5 31 10 36 19 19 90 166 90 185 0 21 -22 25 -38 7z"/>
<path d="M3587 8656 c-77 -28 -152 -84 -249 -186 -108 -114 -151 -176 -146
-212 3 -22 7 -23 73 -20 103 5 150 -5 187 -39 64 -58 304 -210 342 -216 35 -6
38 -4 34 18 -2 18 -37 47 -146 119 -79 53 -148 104 -154 114 -8 14 -5 45 12
118 12 54 20 102 17 105 -17 16 -38 -14 -57 -79 -21 -72 -43 -108 -56 -95 -8
7 -1 29 35 129 12 32 21 73 21 93 l0 35 55 0 c31 0 72 -7 92 -15 45 -19 87
-19 103 -1 25 31 -44 122 -105 139 -11 3 -37 0 -58 -7z m-127 -178 c0 -19 -46
-114 -58 -122 -19 -11 -24 13 -8 36 9 12 16 31 16 41 0 27 19 57 35 57 8 0 15
-6 15 -12z"/>
<path d="M9400 8582 c-13 -20 -60 -72 -103 -114 -77 -75 -90 -102 -44 -90 45
11 196 192 197 235 0 20 -28 3 -50 -31z"/>
<path d="M5824 8574 c-3 -11 -17 -44 -30 -75 -51 -119 -8 -137 45 -19 25 54
26 83 6 100 -12 10 -16 9 -21 -6z"/>
<path d="M7037 8468 c-9 -7 -35 -67 -57 -133 -23 -66 -75 -187 -116 -269 -78
-156 -87 -186 -54 -186 34 0 113 140 204 360 31 76 43 97 50 89 4 -3 15 -56
26 -118 12 -63 27 -126 35 -141 15 -29 41 -45 50 -30 3 4 0 66 -5 137 -6 70
-13 161 -16 201 -4 44 -11 78 -21 87 -18 18 -73 20 -96 3z"/>
<path d="M9420 8355 c0 -3 18 -40 39 -83 22 -43 58 -123 81 -178 23 -54 64
-147 92 -206 55 -119 86 -255 74 -322 -7 -36 -8 -37 -25 -22 -17 16 -19 16
-25 1 -11 -29 -6 -75 9 -99 13 -19 13 -28 4 -50 -25 -54 6 -38 85 44 242 254
417 511 392 576 -10 26 -31 1 -75 -89 -26 -55 -81 -134 -164 -237 -168 -210
-186 -224 -166 -129 12 55 -16 197 -54 281 -14 29 -62 138 -108 241 -83 191
-130 277 -149 277 -5 0 -10 -2 -10 -5z"/>
<path d="M3617 8343 c-12 -12 -7 -103 7 -138 10 -24 23 -36 43 -41 15 -4 46
-15 68 -25 78 -36 91 -14 18 31 -91 55 -93 58 -93 101 0 57 -22 94 -43 72z"/>
<path d="M9265 8300 c-9 -15 19 -45 85 -90 74 -51 82 -61 125 -165 20 -49 55
-124 77 -165 23 -41 54 -101 69 -132 28 -56 49 -74 49 -43 0 21 -46 121 -59
129 -15 10 -65 110 -101 202 -16 41 -40 94 -54 118 -38 66 -176 171 -191 146z"/>
<path d="M9066 8292 c-7 -11 14 -30 68 -62 22 -13 34 -26 27 -28 -6 -2 -23 3
-36 12 -29 19 -35 20 -35 5 0 -5 17 -17 37 -26 32 -13 45 -13 90 -2 52 12 53
13 36 32 -33 37 -174 89 -187 69z"/>
<path d="M3352 7802 c-98 -99 -172 -207 -172 -249 0 -38 17 -26 43 30 29 62
91 147 175 240 34 37 62 70 62 72 0 14 -19 -3 -108 -93z"/>
<path d="M6565 7807 c-136 -56 -168 -89 -94 -95 25 -2 44 4 64 20 16 13 56 37
89 53 110 55 64 73 -59 22z"/>
<path d="M5217 7740 c-31 -27 -57 -84 -57 -124 0 -21 19 -21 27 2 16 49 47
103 63 112 62 33 107 -94 51 -144 -12 -11 -32 -16 -60 -15 -52 4 -62 -7 -31
-31 45 -35 95 -21 140 41 40 56 43 127 5 164 -36 36 -94 34 -138 -5z"/>
<path d="M3474 7648 c-136 -103 -314 -306 -314 -359 0 -32 13 -21 65 54 27 39
114 136 192 215 79 78 139 142 134 142 -4 0 -39 -23 -77 -52z"/>
<path d="M8320 7615 c0 -9 20 -47 44 -84 25 -37 61 -99 82 -136 31 -57 35 -70
23 -79 -9 -7 -15 -32 -16 -63 -2 -47 2 -57 39 -105 23 -29 95 -105 160 -170
66 -64 118 -124 118 -135 0 -10 14 -62 30 -116 l30 -99 -25 -36 c-14 -21 -39
-73 -56 -117 -19 -49 -44 -94 -66 -116 -19 -20 -45 -52 -56 -72 -25 -39 -139
-175 -148 -176 -4 -1 -8 40 -11 89 -4 92 -15 122 -36 98 -12 -15 -28 -133 -38
-287 l-7 -104 -55 -61 c-78 -86 -92 -122 -92 -232 0 -78 3 -95 21 -118 l21
-27 -25 -27 c-33 -34 -70 -118 -64 -143 4 -14 -1 -21 -18 -25 -37 -9 -43 1
-39 73 3 38 11 177 19 310 8 133 15 354 15 492 l0 249 78 104 c42 57 101 149
131 206 29 56 57 102 62 102 5 0 9 11 9 25 0 18 -5 25 -18 25 -28 0 -45 -24
-103 -145 -45 -94 -64 -121 -129 -185 -87 -87 -92 -98 -115 -280 -9 -69 -24
-156 -35 -195 -14 -52 -20 -112 -22 -230 -1 -88 1 -166 5 -172 5 -7 15 -92 23
-189 l16 -176 -40 -36 c-33 -32 -42 -48 -57 -113 -19 -79 -15 -129 10 -129 13
0 35 56 35 92 0 9 5 29 11 45 8 22 12 24 19 13 6 -8 10 -25 10 -36 0 -12 7
-27 16 -35 19 -16 34 2 34 42 0 14 5 40 11 58 9 25 16 31 41 31 42 0 83 44 92
99 6 37 17 53 80 112 50 46 75 78 79 99 5 21 12 30 26 30 39 0 52 -62 26 -130
-13 -36 -14 -35 -30 15 -2 8 -9 15 -14 15 -29 0 -41 -160 -20 -262 6 -29 29
-97 50 -151 51 -127 51 -137 -2 -137 -45 0 -105 -24 -113 -45 -9 -24 12 -27
58 -10 37 14 50 15 80 5 40 -13 50 -27 60 -85 4 -22 9 -53 12 -68 l6 -29 -45
7 c-52 8 -70 -7 -29 -25 15 -6 54 -26 87 -43 54 -29 63 -39 94 -100 32 -63 35
-76 39 -182 3 -72 1 -115 -5 -115 -6 0 -13 28 -16 63 -3 34 -9 70 -12 79 -11
29 -44 31 -105 8 -46 -17 -62 -29 -74 -55 -30 -63 -14 -131 40 -174 35 -27 95
-28 119 -1 23 25 32 19 40 -31 9 -54 -6 -71 -38 -41 -33 31 -51 27 -89 -19
-57 -71 -100 -119 -107 -119 -3 0 -14 22 -24 49 -9 27 -42 84 -73 128 -31 43
-67 95 -81 116 -14 22 -31 37 -43 37 -18 0 -20 -7 -20 -56 0 -73 25 -241 56
-376 13 -59 24 -123 24 -142 0 -37 -16 -49 -26 -18 -28 85 -42 92 -188 92
-167 0 -212 -24 -209 -108 2 -59 -3 -65 -32 -46 -45 30 -85 102 -85 156 0 37
-4 51 -20 60 -25 16 -25 29 0 78 16 31 26 40 46 40 31 0 78 -19 128 -54 51
-34 64 -24 49 41 -6 27 -27 111 -47 187 -47 185 -64 202 -214 221 l-54 7 30
32 c16 17 34 40 40 51 7 13 31 25 69 35 72 19 77 40 13 57 -25 6 -65 12 -89
12 -39 1 -49 -4 -81 -38 -44 -47 -91 -125 -119 -202 -12 -31 -30 -64 -40 -73
-17 -15 -20 -15 -44 5 -33 25 -34 47 -6 102 36 70 135 209 183 257 45 43 58
70 34 70 -7 0 -51 -39 -98 -88 -64 -65 -94 -106 -123 -164 -20 -42 -37 -83
-37 -91 0 -8 -6 -20 -14 -26 -12 -10 -30 1 -95 59 -45 39 -81 75 -81 80 0 27
141 170 169 170 5 0 22 16 37 35 14 19 57 58 95 86 38 28 69 55 69 60 0 16
-93 -27 -148 -68 -34 -25 -72 -24 -72 2 0 19 -58 65 -82 65 -12 0 -29 7 -38
15 -15 13 -23 11 -76 -21 -32 -19 -70 -46 -85 -60 -14 -13 -37 -24 -53 -24
-35 0 -149 38 -248 84 -72 33 -78 38 -78 66 0 28 -3 30 -34 30 -52 0 -83 15
-148 74 -56 51 -162 115 -218 131 -67 19 -328 156 -357 187 -38 40 -69 100
-77 151 -10 55 12 48 68 -23 55 -69 100 -98 210 -135 75 -25 84 -26 156 -16
42 7 115 22 161 36 160 45 194 54 261 65 37 7 71 9 77 6 5 -4 32 -43 58 -87
82 -138 183 -247 183 -197 0 6 -30 61 -66 121 -53 88 -65 116 -60 138 6 31
-29 83 -63 94 -11 3 -21 14 -24 25 -3 10 -17 22 -32 26 -23 6 -32 2 -48 -20
-30 -41 -64 -54 -254 -93 -227 -46 -294 -48 -388 -9 -85 34 -88 36 -135 106
-21 30 -54 72 -73 93 -46 49 -55 85 -27 104 11 8 20 21 20 29 0 8 5 14 10 14
6 0 10 -6 10 -13 0 -7 6 -22 14 -33 14 -19 15 -19 39 4 l25 23 122 -61 c68
-34 140 -73 161 -87 36 -24 41 -25 101 -14 35 6 96 8 135 4 54 -4 84 -2 115
10 24 9 62 21 86 27 35 9 42 15 42 36 0 26 -21 63 -55 99 -11 12 -53 67 -94
123 -88 122 -194 225 -317 309 -91 62 -311 257 -340 300 -11 18 -24 23 -54 23
-37 0 -39 2 -46 38 -19 105 -103 254 -208 369 -52 58 -76 67 -76 29 0 -16 18
-43 53 -78 35 -35 68 -83 96 -138 l42 -85 -15 -116 c-9 -64 -18 -123 -22 -132
-15 -40 -130 -42 -189 -3 -34 22 -60 20 -103 -9 -43 -29 -38 -35 -71 82 -26
88 -72 143 -120 143 -41 0 -39 -16 4 -42 50 -29 87 -104 93 -189 4 -64 3 -68
-22 -84 -54 -36 -146 -2 -176 64 -10 22 -30 41 -62 57 -34 17 -49 32 -54 52
-4 15 -10 32 -15 37 -4 6 -9 42 -11 80 -3 65 -5 70 -27 73 -29 4 -41 -12 -41
-56 0 -18 -9 -55 -21 -82 -21 -48 -21 -50 -3 -87 12 -24 27 -39 40 -41 12 -2
30 -12 40 -23 9 -10 25 -19 34 -19 9 0 41 -17 71 -39 73 -52 133 -81 166 -81
39 0 105 40 121 73 7 15 19 27 27 27 26 0 143 -67 223 -128 91 -70 85 -55 107
-251 18 -156 29 -211 52 -255 24 -44 24 -193 0 -229 -22 -34 -22 -47 1 -47 11
0 42 -29 72 -67 53 -64 142 -143 162 -143 5 0 62 -24 127 -54 64 -29 160 -70
214 -91 53 -20 97 -41 97 -46 0 -18 95 -111 160 -157 106 -75 164 -127 205
-186 21 -31 42 -56 45 -56 4 0 20 -16 35 -36 l27 -36 -23 2 c-13 1 -30 2 -37
1 -14 -1 -41 -58 -77 -161 -29 -84 -46 -120 -57 -120 -4 0 -8 12 -8 28 0 32
-35 112 -48 112 -5 0 -17 -11 -26 -25 -18 -27 -53 -34 -62 -12 -3 8 5 60 16
116 24 115 21 151 -17 181 -41 32 -61 25 -124 -42 -33 -36 -59 -56 -59 -48 0
9 23 56 51 105 55 96 73 135 61 135 -16 0 -71 -66 -105 -125 -40 -69 -112
-153 -122 -144 -3 4 -1 82 6 174 13 187 8 215 -36 215 -36 0 -82 -25 -135 -74
-78 -72 -187 -139 -215 -132 -39 10 -48 38 -29 88 9 24 24 66 35 93 18 49 26
166 13 200 -4 9 -28 27 -55 41 -32 16 -58 39 -76 67 -14 23 -37 58 -49 77 -41
64 -71 236 -49 284 7 17 5 18 -22 14 l-31 -4 -4 115 c-2 64 -10 126 -16 138
-7 12 -32 34 -56 48 -81 47 -103 23 -36 -39 40 -37 55 -69 48 -103 -2 -10 -11
-16 -19 -14 -48 12 -56 1 -140 -194 -38 -90 -61 -131 -74 -133 -22 -5 -35 14
-35 53 0 35 60 268 91 349 14 39 20 73 17 109 l-3 52 33 -3 c17 -2 32 -1 32 2
0 12 -46 28 -152 52 -62 13 -136 33 -165 44 -28 10 -91 26 -140 35 -48 9 -105
25 -126 36 -21 10 -49 19 -63 19 -13 0 -41 7 -61 15 -19 8 -50 15 -67 15 -52
0 -134 29 -151 53 -16 23 -22 197 -7 197 5 0 19 -11 31 -24 12 -13 40 -32 63
-42 39 -18 41 -18 54 1 8 10 14 33 14 50 0 17 7 54 15 81 21 71 139 263 186
302 41 36 42 48 3 62 -17 7 -24 17 -24 35 0 22 -4 25 -37 25 -31 0 -44 -8 -88
-53 -58 -59 -118 -145 -161 -227 -22 -44 -29 -51 -32 -33 -4 29 35 103 105
198 63 84 114 135 163 160 56 29 21 56 -37 28 -75 -35 -263 -293 -263 -360 0
-28 -55 -165 -63 -157 -4 4 -7 14 -7 23 0 9 -12 43 -26 76 -14 33 -29 74 -33
90 -4 17 -13 30 -21 30 -24 0 -23 -56 0 -116 15 -36 24 -86 27 -151 4 -65 11
-102 19 -109 8 -6 14 -22 14 -36 0 -60 60 -133 145 -176 63 -32 110 -78 134
-132 20 -46 112 -183 190 -284 27 -35 64 -91 83 -125 21 -38 41 -62 53 -64 52
-8 62 -19 299 -322 48 -61 161 -216 280 -384 61 -87 79 -120 86 -160 5 -28 20
-71 33 -96 56 -99 121 -295 137 -412 10 -69 42 -121 74 -116 19 3 21 9 21 83
1 83 8 107 45 140 17 16 23 17 30 5 12 -19 20 -84 29 -228 9 -142 20 -173 67
-201 25 -15 36 -32 48 -72 9 -29 16 -58 16 -65 0 -6 7 -17 15 -24 24 -20 41 3
70 93 26 81 40 107 55 107 14 0 21 -33 31 -128 9 -93 36 -165 67 -177 26 -10
83 28 143 94 57 63 61 65 74 47 8 -11 15 -26 15 -33 0 -43 42 -328 51 -345 9
-17 17 -19 51 -14 59 10 71 19 132 99 59 79 103 124 111 115 10 -9 25 -177 25
-278 1 -106 21 -218 42 -231 41 -26 88 3 147 89 51 76 85 145 105 215 29 99
29 98 86 -218 35 -191 54 -273 69 -288 5 -5 21 -7 34 -3 32 8 78 79 164 254
35 72 69 132 74 132 25 0 41 -80 49 -233 10 -201 12 -204 109 -204 l71 0 50
99 c28 55 50 109 50 119 0 29 27 77 49 89 35 18 60 12 76 -20 21 -40 65 -207
65 -246 0 -18 8 -38 20 -49 27 -24 44 -9 66 58 23 72 42 106 79 148 20 22 43
67 59 116 15 44 33 89 41 99 13 18 14 18 25 -11 7 -16 16 -75 22 -130 15 -161
20 -180 45 -183 18 -3 24 4 33 40 5 24 17 57 25 73 8 17 17 55 21 85 4 31 14
64 25 75 31 34 51 96 64 190 l12 90 19 -33 c10 -18 26 -31 34 -29 12 2 15 18
12 82 -2 68 3 92 30 169 32 88 33 96 31 229 -3 147 3 160 38 82 24 -54 39
-195 29 -265 -13 -84 -12 -90 10 -90 11 0 23 7 26 15 4 9 19 15 35 15 l29 0 0
89 c0 125 -12 177 -75 310 -44 94 -55 127 -54 167 0 54 13 141 21 150 11 10
99 -58 149 -115 72 -82 171 -222 221 -314 102 -185 147 -252 242 -362 146
-169 141 -159 79 -153 -33 3 -90 23 -164 59 -110 52 -118 54 -210 57 -82 3
-102 1 -137 -17 -37 -19 -42 -19 -56 -5 -9 8 -16 24 -16 35 0 26 -39 64 -52
51 -10 -10 13 -196 34 -277 12 -47 34 -75 59 -75 28 0 33 20 10 41 -12 11 -21
31 -21 44 0 33 44 45 191 52 188 9 317 -35 378 -129 25 -39 57 -53 48 -20 -13
46 -12 47 13 44 14 -2 53 -4 87 -5 53 -2 66 2 85 20 l22 23 -22 27 c-12 16
-51 71 -87 124 -60 90 -114 149 -136 149 -21 0 -6 -42 36 -96 46 -59 64 -99
50 -112 -4 -4 -15 4 -24 18 -9 13 -55 74 -102 135 -203 260 -246 347 -295 583
-5 26 -35 30 -54 7 -7 -8 -16 -15 -21 -15 -4 0 -36 37 -70 83 -34 45 -91 114
-126 153 l-63 72 -1 333 c0 184 -4 356 -8 383 -8 45 -24 69 -54 79 -6 2 -12
30 -15 64 l-4 60 77 6 c43 4 105 7 137 7 64 0 145 17 154 32 9 14 -15 37 -65
62 -296 147 -360 270 -261 500 38 91 43 110 50 215 6 101 11 124 38 176 50
100 55 131 41 260 -10 91 -10 122 0 157 15 52 77 160 126 218 19 23 35 52 35
65 0 13 4 26 9 30 5 3 12 18 16 34 3 16 42 70 86 120 78 91 118 151 100 151
-17 0 -119 -91 -165 -147 -35 -42 -48 -69 -58 -115 -7 -35 -19 -63 -29 -68
-20 -11 -107 -137 -145 -210 -24 -47 -28 -67 -29 -135 0 -44 4 -117 9 -162 7
-63 6 -86 -4 -98 -11 -14 -15 -10 -31 25 -13 29 -24 41 -36 38 -16 -3 -17 -16
-15 -123 5 -220 -22 -390 -73 -463 -19 -26 -42 -61 -51 -78 -15 -29 -15 -32
10 -69 14 -21 26 -46 26 -57 0 -55 86 -170 153 -204 48 -25 127 -84 127 -96 0
-7 -28 -9 -80 -6 -68 4 -92 11 -156 43 -41 21 -78 34 -82 29 -4 -5 -20 -23
-36 -41 -24 -27 -27 -35 -16 -48 8 -9 29 -15 55 -15 l43 0 4 -97 c3 -91 6
-102 37 -150 l34 -52 -5 -270 c-3 -241 -6 -272 -22 -290 -17 -18 -29 -108 -38
-275 -3 -46 -5 -49 -38 -60 -34 -11 -35 -13 -34 -61 0 -28 6 -74 12 -104 7
-29 12 -96 12 -148 0 -105 -20 -179 -72 -273 -17 -30 -42 -76 -56 -102 -22
-44 -28 -48 -61 -48 -20 -1 -54 -8 -76 -16 -48 -19 -95 -29 -95 -20 0 23 51
98 100 147 64 63 64 63 95 259 18 111 32 133 63 99 12 -12 25 -41 30 -63 10
-54 36 -56 40 -3 5 55 -22 173 -64 279 -34 90 -35 96 -29 183 13 176 23 227
56 275 30 42 32 50 33 140 1 110 -14 164 -77 279 -58 107 -77 195 -84 388 l-6
162 37 78 c20 43 48 119 62 168 22 79 25 106 23 215 -5 205 -4 211 24 267 15
29 28 67 29 85 3 30 1 33 -35 39 -20 3 -40 8 -43 12 -7 6 22 63 36 72 18 11
57 98 69 153 14 69 14 106 -3 170 -7 29 -9 55 -5 58 15 9 10 44 -9 72 -16 22
-42 85 -42 98 0 13 40 1 55 -16 20 -22 35 -26 35 -9 0 6 -74 83 -164 172 -166
165 -226 244 -240 317 -7 40 -18 59 -105 172 -67 87 -81 100 -81 73z m329
-527 c112 -103 142 -140 127 -155 -10 -11 -61 30 -146 117 -83 85 -131 150
-111 150 5 0 64 -50 130 -112z m-4118 -655 c-9 -15 -10 -13 -11 13 0 17 3 34
8 38 11 12 14 -32 3 -51z m4137 -419 c16 -11 22 -25 22 -53 0 -20 -4 -41 -9
-46 -5 -6 -17 -41 -26 -79 -19 -83 -51 -160 -64 -152 -5 3 -12 18 -16 33 -11
46 -33 73 -61 73 -37 0 -39 24 -6 72 16 24 39 63 52 88 41 81 64 95 108 64z
m-2415 -49 c65 -33 115 -77 149 -131 15 -23 52 -75 83 -114 41 -54 55 -80 55
-105 0 -40 -11 -45 -92 -45 -58 0 -64 2 -173 76 -127 84 -165 121 -190 188
-17 44 -17 48 -1 91 10 25 25 49 34 55 30 17 83 11 135 -15z m-987 -68 c3 -8
0 -36 -6 -63 -7 -27 -20 -98 -30 -157 -33 -193 -65 -177 -117 58 -13 61 -26
120 -30 133 -5 21 -3 22 60 22 36 0 69 5 72 10 9 15 45 12 51 -3z m3252 -201
c6 -27 -7 -66 -21 -66 -32 1 -38 16 -22 54 16 38 37 44 43 12z m-2364 -39 c6
-9 7 -19 3 -23 -9 -9 -37 15 -37 33 0 18 20 12 34 -10z m2481 -77 c9 -28 -3
-58 -24 -65 -23 -7 -36 -39 -51 -135 -14 -84 -57 -240 -70 -254 -9 -9 -26 45
-36 116 -5 38 -2 51 21 86 15 23 40 82 56 133 16 51 36 103 44 116 19 28 51
30 60 3z m-285 -4 c0 -18 -26 -40 -34 -27 -9 14 4 41 20 41 8 0 14 -6 14 -14z
m-2800 -16 c0 -11 -4 -20 -10 -20 -5 0 -10 9 -10 20 0 11 5 20 10 20 6 0 10
-9 10 -20z m-335 -184 c20 -44 45 -82 59 -92 15 -9 26 -24 26 -33 0 -9 7 -27
17 -40 12 -18 13 -23 2 -19 -8 2 -51 50 -96 106 -83 102 -95 130 -77 177 6 14
8 13 21 -5 8 -11 29 -54 48 -94z m415 -68 c9 -31 27 -72 39 -91 26 -43 26 -66
2 -109 -11 -18 -38 -80 -61 -138 -23 -58 -45 -108 -49 -112 -3 -4 -45 48 -92
115 l-86 122 94 104 c51 57 98 119 105 138 7 18 16 32 21 30 5 -1 17 -28 27
-59z m3004 -235 c9 -26 16 -61 16 -78 0 -18 15 -56 36 -91 81 -132 88 -155 88
-303 1 -92 -3 -135 -10 -138 -17 -6 -32 47 -50 176 -20 154 -27 184 -42 189
-9 3 -12 -20 -12 -87 0 -50 -4 -91 -9 -91 -33 0 -61 114 -61 246 0 118 10 224
20 224 5 0 15 -21 24 -47z m-2826 -55 c9 -9 6 -17 -14 -33 -19 -15 -29 -35
-35 -71 -12 -73 -10 -165 5 -199 9 -21 9 -39 2 -67 -8 -30 -6 -48 7 -85 19
-53 22 -83 8 -83 -14 0 -38 43 -50 87 -6 22 -35 74 -65 115 -90 125 -91 134
-26 140 32 3 35 7 55 63 42 121 80 166 113 133z m1442 -308 c21 -11 42 -64 34
-85 -8 -19 -35 -19 -82 1 -20 8 -55 19 -77 23 -48 8 -59 35 -21 52 19 9 29 9
39 0 11 -8 22 -8 48 4 41 17 37 17 59 5z m-290 -83 c19 -8 73 -18 120 -21 96
-7 142 -17 147 -33 2 -6 -23 -39 -56 -73 -50 -53 -63 -62 -83 -56 -12 4 -41
12 -63 18 -30 8 -58 30 -112 87 -40 42 -73 82 -73 90 0 17 71 11 120 -12z m51
-237 c9 0 36 -13 60 -30 24 -16 56 -30 70 -30 14 0 34 -9 44 -21 17 -17 17
-24 7 -52 -12 -30 -11 -34 17 -57 16 -14 40 -33 54 -42 14 -10 44 -56 66 -104
23 -47 56 -107 73 -132 45 -67 163 -187 233 -237 33 -24 79 -64 103 -89 23
-25 47 -46 52 -46 5 0 16 -13 25 -30 13 -26 21 -30 57 -30 56 0 94 -26 156
-108 29 -39 70 -82 91 -97 37 -25 111 -133 111 -162 0 -22 -69 -46 -113 -40
-73 10 -127 69 -127 140 0 57 -23 103 -55 111 -15 4 -62 2 -105 -5 -67 -9 -82
-9 -109 5 -46 24 -60 54 -72 152 -11 86 -30 144 -49 144 -15 0 -50 -51 -60
-89 -12 -46 -51 -85 -77 -77 -10 3 -40 25 -67 49 -43 37 -49 48 -48 79 2 60
-20 67 -73 24 -31 -26 -46 -33 -49 -24 -38 112 -35 149 17 205 36 39 42 52 42
88 0 58 -24 83 -87 91 -73 10 -78 19 -78 137 0 161 -26 171 -45 17 -9 -74 -13
-86 -34 -97 -14 -6 -39 -28 -57 -47 -33 -36 -64 -47 -64 -23 0 6 7 53 15 102
8 50 15 146 15 214 0 123 0 123 23 117 12 -3 29 -6 38 -6z m624 -192 c10 -87
14 -102 49 -153 l39 -56 -43 -92 c-25 -51 -49 -98 -56 -105 -8 -10 -26 3 -85
66 -79 83 -127 159 -116 183 4 8 13 23 19 33 7 11 28 44 46 74 27 43 38 53 55
48 11 -3 29 0 40 5 15 9 18 17 12 45 -7 38 0 57 18 51 7 -2 16 -44 22 -99z
m-237 -34 c18 -12 22 -24 20 -52 -4 -47 -17 -45 -45 4 -36 62 -25 83 25 48z
m958 -130 c14 -23 32 -75 41 -115 29 -136 18 -379 -18 -379 -20 0 -39 51 -48
131 -5 46 -19 119 -30 161 -17 68 -24 110 -47 283 l-5 40 41 -40 c23 -22 53
-59 66 -81z m288 -35 c36 -42 39 -64 27 -163 -7 -63 -18 -99 -41 -139 -19 -35
-30 -68 -30 -93 0 -62 -17 -78 -75 -71 -60 6 -77 26 -69 81 21 157 39 247 59
286 29 56 82 130 94 130 5 0 21 -14 35 -31z m-1419 -118 c-3 -12 -11 -21 -16
-21 -10 0 -12 43 -2 54 12 12 25 -11 18 -33z m-445 -130 c0 -6 -4 -13 -10 -16
-5 -3 -10 1 -10 9 0 9 5 16 10 16 6 0 10 -4 10 -9z m-240 -86 c0 -8 -4 -15 -9
-15 -13 0 -22 16 -14 24 11 11 23 6 23 -9z m1679 -15 c23 -17 47 -42 53 -55 7
-16 19 -25 35 -25 29 0 32 -39 4 -57 -24 -15 -142 -43 -180 -43 -39 0 -115 51
-130 88 -7 17 -24 38 -37 47 -13 8 -24 24 -24 35 0 18 7 20 78 21 42 1 88 5
102 9 43 14 56 11 99 -20z m307 -204 c6 -15 -38 -110 -56 -121 -11 -7 -15 117
-3 128 12 12 54 7 59 -7z m-135 -26 c12 -44 10 -165 -3 -183 -8 -11 -36 -20
-75 -25 l-63 -9 -30 54 c-18 32 -46 63 -70 78 -65 41 -61 46 88 85 127 33 144
33 153 0z m94 -246 c-9 -13 -20 -22 -25 -19 -15 9 -12 19 12 51 19 24 23 25
26 11 2 -10 -4 -29 -13 -43z m-170 -34 c3 -5 1 -10 -4 -10 -6 0 -11 5 -11 10
0 6 2 10 4 10 3 0 8 -4 11 -10z"/>
<path d="M4474 7599 c-10 -16 188 -231 201 -218 6 6 -61 113 -106 171 -30 38
-84 65 -95 47z"/>
<path d="M6630 7571 c0 -6 5 -13 10 -16 6 -3 10 1 10 9 0 9 -4 16 -10 16 -5 0
-10 -4 -10 -9z"/>
<path d="M3614 7541 c-45 -33 -152 -141 -140 -141 10 0 200 150 204 161 7 18
-26 8 -64 -20z"/>
<path d="M4155 7511 c-8 -15 30 -46 104 -85 36 -19 90 -53 120 -75 30 -23 56
-39 59 -37 14 15 -112 133 -198 185 -37 22 -75 27 -85 12z"/>
<path d="M3610 7460 c0 -5 11 -10 25 -10 14 0 25 5 25 10 0 6 -11 10 -25 10
-14 0 -25 -4 -25 -10z"/>
<path d="M5270 7399 c-73 -34 -120 -74 -120 -101 0 -27 35 -22 54 7 21 31 34
32 46 1 21 -56 91 -58 147 -4 41 40 44 78 7 107 -36 28 -57 26 -134 -10z m100
-19 c12 -7 12 -12 0 -35 -8 -15 -23 -31 -34 -37 -16 -9 -23 -6 -38 12 -22 28
-19 41 13 57 29 15 39 16 59 3z"/>
<path d="M8934 7396 c-7 -29 4 -69 17 -61 12 8 12 72 -1 80 -5 3 -12 -5 -16
-19z"/>
<path d="M9060 7342 c0 -5 11 -29 24 -53 13 -24 29 -71 36 -104 15 -84 39
-145 56 -145 18 0 18 9 0 46 -8 16 -19 63 -26 104 -12 81 -45 153 -73 158 -9
2 -17 -1 -17 -6z"/>
<path d="M4781 7225 c-78 -37 -170 -105 -229 -170 -60 -65 -192 -259 -192
-281 0 -25 18 -7 72 74 100 149 244 278 382 343 65 30 80 51 40 57 -10 1 -43
-9 -73 -23z"/>
<path d="M5900 6967 c0 -7 16 -36 35 -64 19 -29 47 -85 61 -125 15 -40 40 -92
58 -114 37 -49 135 -128 208 -168 115 -62 207 -147 293 -271 27 -38 78 -106
112 -150 35 -44 63 -85 63 -92 0 -6 14 -25 30 -40 27 -25 36 -50 79 -223 48
-195 87 -296 130 -334 12 -11 23 -17 26 -14 3 2 -13 54 -34 114 -21 60 -53
172 -70 249 -36 161 -76 253 -147 340 -27 33 -71 94 -99 135 -27 41 -101 127
-165 191 -93 94 -132 126 -204 165 -118 65 -172 114 -207 189 -16 33 -29 67
-29 75 0 24 -57 117 -82 134 -27 19 -58 21 -58 3z"/>
<path d="M6449 6876 c-10 -20 -8 -31 10 -59 11 -19 21 -42 21 -51 0 -12 9 -16
36 -16 45 0 75 -30 137 -138 58 -100 102 -144 223 -225 75 -50 109 -80 143
-126 39 -56 51 -66 74 -62 4 0 7 -11 7 -27 0 -15 12 -58 26 -97 41 -115 44
-132 58 -340 l13 -200 -39 -46 c-21 -26 -38 -50 -38 -54 0 -8 41 0 81 16 29
11 49 46 49 85 0 40 17 19 35 -43 22 -77 48 -124 110 -208 87 -116 92 -135 41
-135 -27 0 -48 -11 -93 -48 -84 -70 -97 -75 -164 -68 -68 8 -79 -7 -33 -43 49
-39 102 -24 203 58 60 49 123 76 159 69 9 -2 32 -32 50 -68 30 -59 32 -71 29
-137 -2 -39 -1 -76 2 -81 6 -10 33 -16 58 -13 20 2 4 176 -23 250 -26 69 -24
90 4 50 32 -47 84 -99 98 -99 21 0 17 13 -15 56 -38 53 -60 71 -98 79 -20 4
-33 13 -33 22 0 8 -20 37 -44 64 -26 29 -53 73 -65 107 -62 177 -67 187 -96
187 -34 0 -40 11 -60 131 l-18 102 31 67 c43 91 41 111 -6 58 -21 -24 -41 -43
-45 -43 -4 0 -12 11 -17 25 -14 37 -53 236 -47 242 3 2 22 0 44 -6 21 -6 51
-11 66 -11 24 0 28 4 25 22 -2 18 -12 24 -45 30 -23 4 -52 13 -65 20 -56 31
-147 105 -166 134 -11 18 -36 40 -56 50 -106 57 -197 119 -243 166 -48 49
-143 190 -143 211 0 6 28 7 69 3 59 -6 76 -4 115 15 25 11 43 25 40 30 -3 5
-58 9 -122 10 -161 1 -200 12 -230 67 -27 48 -38 52 -53 18z"/>
<path d="M3583 6840 c-35 -21 -41 -47 -23 -94 7 -21 16 -26 42 -26 43 0 148
-31 219 -64 57 -26 212 -66 259 -65 l25 0 -24 19 c-13 11 -62 32 -110 47 -128
39 -144 48 -136 82 10 45 -14 56 -119 56 -96 0 -100 2 -81 48 10 23 -11 22
-52 -3z m217 -100 c0 -5 -7 -10 -15 -10 -8 0 -15 5 -15 10 0 6 7 10 15 10 8 0
15 -4 15 -10z"/>
<path d="M4981 6827 c-21 -26 -41 -86 -31 -92 16 -10 60 41 60 69 0 30 -14 41
-29 23z"/>
<path d="M3878 6765 c-8 -19 -8 -29 0 -37 18 -18 42 -1 42 32 0 38 -26 41 -42
5z"/>
<path d="M2891 6462 c-14 -25 -14 -42 -1 -42 16 0 33 41 22 52 -7 7 -14 3 -21
-10z"/>
<path d="M7962 6354 c-67 -60 -77 -84 -37 -84 42 0 149 112 128 134 -14 14
-32 4 -91 -50z"/>
<path d="M4760 6390 c-12 -7 -12 -12 -2 -22 15 -15 16 -84 1 -93 -5 -4 -19 1
-29 10 -36 33 -69 -8 -37 -47 29 -37 76 -26 107 24 25 42 26 99 2 121 -21 20
-22 20 -42 7z"/>
<path d="M4342 5938 c-26 -35 -73 -91 -105 -125 -64 -67 -91 -81 -267 -133
-68 -20 -187 -72 -335 -145 -201 -98 -236 -119 -278 -164 -58 -62 -77 -104
-77 -170 0 -37 6 -56 23 -76 l22 -26 120 57 c111 53 126 57 208 62 92 5 110
18 46 35 -46 12 -168 4 -178 -11 -7 -12 -89 -39 -148 -49 -32 -5 -33 -4 -33
30 0 62 52 121 160 184 167 96 198 103 230 51 11 -18 22 -46 25 -63 3 -16 11
-66 17 -109 8 -45 18 -81 26 -84 28 -9 4 203 -33 291 -13 31 -13 36 4 51 28
25 135 65 261 98 131 33 176 57 241 125 49 51 137 174 140 195 7 56 -13 49
-69 -24z"/>
<path d="M4526 5968 c-24 -34 -20 -43 24 -63 82 -37 126 -120 197 -374 19 -69
43 -151 54 -181 l19 -55 -5 80 c-6 101 -76 399 -109 464 -23 44 -133 151 -156
151 -5 0 -16 -10 -24 -22z"/>
<path d="M2650 5730 c0 -5 5 -10 10 -10 6 0 10 5 10 10 0 6 -4 10 -10 10 -5 0
-10 -4 -10 -10z"/>
<path d="M4350 5455 c0 -9 11 -37 24 -64 14 -27 28 -71 32 -98 8 -65 -9 -74
-77 -38 -27 14 -59 25 -73 25 -13 0 -51 -20 -83 -44 -94 -69 -99 -70 -137 -46
-19 11 -58 25 -89 31 l-55 11 -7 94 c-5 69 -12 100 -25 117 -33 40 -40 11 -24
-93 28 -177 21 -163 90 -176 33 -6 81 -21 107 -34 39 -20 51 -22 72 -12 14 7
35 12 46 12 11 0 39 18 63 40 47 43 61 47 91 26 11 -7 31 -17 45 -21 14 -4 37
-19 53 -33 26 -25 27 -25 42 -6 14 18 14 27 -1 89 -7 28 2 75 15 75 14 0 29
-50 35 -115 7 -65 22 -85 64 -85 24 0 73 42 103 90 14 21 23 24 63 22 103 -4
159 -34 172 -89 29 -136 77 -228 125 -245 16 -5 34 -19 40 -29 9 -18 6 -19
-57 -17 -89 4 -94 -14 -11 -41 76 -26 123 -70 165 -156 66 -133 89 -250 123
-605 19 -202 21 -252 12 -355 l-11 -120 -77 -152 c-107 -212 -159 -286 -301
-433 -68 -70 -124 -133 -124 -140 0 -7 8 -19 18 -26 16 -12 15 -14 -8 -39 -42
-45 -52 -47 -150 -25 -118 26 -170 15 -170 -36 0 -30 52 -89 109 -126 33 -20
58 -28 91 -28 27 0 61 -8 85 -21 33 -18 51 -21 108 -16 58 4 76 10 121 41 30
20 67 39 82 42 16 3 58 25 94 49 36 24 83 51 105 61 47 19 54 23 89 48 25 18
27 18 46 1 19 -17 20 -16 44 38 17 39 34 60 55 72 40 20 51 13 51 -35 0 -29 5
-42 19 -50 29 -15 31 -14 31 33 0 56 44 127 92 150 51 24 141 46 244 59 82 10
95 10 118 -5 32 -21 45 -21 67 -1 16 15 19 13 34 -18 25 -47 44 -67 90 -90 22
-12 85 -64 140 -118 55 -53 123 -112 150 -131 73 -48 195 -177 293 -309 47
-63 96 -127 109 -141 13 -15 32 -41 41 -59 12 -24 40 -46 100 -80 124 -70 220
-177 301 -339 36 -71 116 -157 155 -167 14 -3 75 1 136 9 131 18 134 20 302
196 116 122 159 151 223 151 62 0 90 -20 218 -155 70 -73 136 -137 147 -140
23 -7 70 15 126 61 38 30 46 46 85 161 27 80 63 160 96 215 29 48 53 90 53 93
0 3 22 36 50 72 28 36 50 72 50 80 0 7 -11 19 -25 25 -32 14 -32 32 0 161 13
56 29 122 35 145 13 53 96 222 145 294 40 60 43 78 16 78 -33 0 -103 -92 -163
-211 -74 -150 -123 -351 -114 -469 l6 -75 -61 -90 c-78 -115 -99 -157 -139
-280 -18 -55 -39 -110 -47 -121 -16 -25 -66 -49 -86 -41 -7 3 -31 35 -53 72
-50 87 -129 157 -226 203 -43 20 -78 40 -78 44 0 4 18 20 41 35 30 19 58 28
107 32 54 5 67 9 70 24 6 30 -27 57 -67 57 -43 -1 -136 -37 -194 -76 -63 -42
-209 -191 -252 -257 -37 -55 -67 -72 -79 -44 -3 8 -11 4 -23 -13 -27 -38 -83
-88 -129 -116 -95 -57 -280 -30 -192 28 21 14 22 24 30 239 5 123 10 233 11
244 2 17 -3 19 -39 16 -46 -3 -54 5 -107 94 -29 49 -50 55 -55 13 -3 -23 23
-64 109 -170 22 -27 37 -112 25 -144 -6 -15 -8 -16 -24 0 -32 29 -49 20 -56
-29 -6 -49 -21 -85 -35 -85 -5 0 -18 16 -30 35 -11 20 -37 45 -56 56 -20 12
-42 34 -50 49 -13 25 -12 29 5 45 15 14 20 31 20 75 0 47 -5 64 -29 97 -33 46
-67 73 -92 73 -23 0 -59 -47 -59 -76 0 -31 11 -30 40 1 l24 25 24 -22 c30 -28
52 -77 52 -118 0 -25 -4 -30 -23 -30 -49 0 -183 84 -207 131 -8 14 -6 23 11
40 11 11 18 27 15 35 -8 22 -23 17 -30 -11 -12 -49 -43 -29 -86 59 -14 28 -41
75 -59 104 -36 55 -37 72 -2 50 18 -11 23 -11 31 2 6 10 4 17 -6 23 -24 14
-62 100 -89 201 -13 53 -31 108 -39 123 -20 39 -52 66 -71 60 -21 -9 -19 -30
5 -52 11 -10 28 -41 38 -69 27 -72 66 -236 58 -243 -3 -4 -43 30 -89 74 -45
44 -100 89 -122 101 -92 47 -198 170 -234 274 -45 125 -60 158 -99 215 -27 39
-52 64 -71 71 -24 8 -37 26 -66 89 -20 43 -41 103 -47 133 -15 83 -22 103 -37
108 -23 8 -8 -132 23 -208 32 -79 22 -90 -60 -65 -6 2 -13 48 -17 117 -8 149
-14 178 -39 178 -27 0 -31 -19 -13 -85 18 -69 19 -135 4 -188 -9 -33 -22 -46
-87 -88 -42 -27 -82 -49 -88 -49 -20 0 -136 -81 -193 -134 -123 -115 -145
-121 -187 -48 -15 26 -49 75 -76 109 l-49 62 45 78 c38 66 52 101 82 201 7 23
24 12 24 -15 l0 -28 20 25 c11 14 23 36 26 50 3 14 12 41 19 60 8 19 21 62 29
95 57 231 36 399 -89 705 -122 298 -191 418 -302 526 -86 83 -97 104 -120 224
l-6 35 24 -16 c59 -39 359 -465 493 -701 106 -186 132 -256 176 -470 24 -116
38 -145 64 -135 20 8 21 43 1 162 -30 190 -76 309 -181 478 -43 67 -106 169
-141 227 -77 125 -171 259 -250 357 -139 173 -209 252 -228 259 -14 5 -26 -2
-50 -30 l-31 -37 -109 3 -110 3 -3 -41 c-2 -26 -11 -49 -22 -59 -23 -20 -22
-21 -39 69 -13 70 -34 106 -61 106 -12 0 -35 21 -60 55 -40 53 -70 71 -70 40z
m1096 -1510 c8 -47 -4 -127 -19 -122 -13 4 -22 97 -12 134 8 34 23 28 31 -12z
m-140 -922 c20 -28 34 -59 32 -69 -5 -25 -67 -66 -90 -58 -14 4 -21 -2 -29
-26 -8 -22 -31 -44 -78 -75 -36 -24 -88 -69 -115 -100 -74 -86 -119 -115 -178
-115 -27 0 -59 5 -71 12 -12 7 -48 15 -81 19 -40 5 -71 16 -99 36 -62 43 -61
58 4 49 151 -19 189 -19 208 -2 18 16 20 16 41 -14 12 -16 25 -28 30 -25 4 2
9 31 12 63 3 46 13 75 48 136 25 43 57 92 71 109 14 18 34 46 43 64 9 18 41
58 72 90 l57 57 44 -49 c24 -28 60 -73 79 -102z m2137 -1190 c-8 -49 -13 -57
-25 -45 -8 8 -8 19 2 41 16 38 29 40 23 4z"/>
<path d="M5032 2818 c7 -21 42 -38 58 -27 13 8 12 11 -4 24 -23 18 -59 20 -54
3z"/>
<path d="M2929 5413 c-21 -56 -29 -122 -35 -283 -5 -117 -3 -162 4 -155 6 6
14 64 17 130 6 108 27 272 41 318 9 28 -16 19 -27 -10z"/>
<path d="M3081 5038 c-40 -122 -92 -774 -63 -791 7 -5 12 26 16 90 22 358 41
548 72 701 4 20 3 32 -4 32 -6 0 -15 -15 -21 -32z"/>
<path d="M6837 4953 c-4 -3 -7 -21 -7 -40 0 -38 23 -45 40 -13 16 31 -12 75
-33 53z"/>
<path d="M2818 4538 c-77 -20 -157 -119 -158 -194 0 -25 10 -41 45 -73 24 -22
51 -41 59 -41 29 0 100 105 94 138 -3 12 -14 1 -39 -35 l-35 -52 -30 18 c-55
34 -60 47 -36 96 38 78 115 119 171 91 54 -28 64 -79 36 -172 -17 -58 -19 -74
-5 -74 19 0 41 62 47 129 10 124 -51 195 -149 169z"/>
<path d="M7972 4509 c-36 -14 -21 -32 47 -55 34 -12 70 -29 81 -39 18 -17 21
-17 45 -1 41 27 27 47 -50 77 -77 30 -89 32 -123 18z"/>
<path d="M3320 4320 c0 -16 59 -49 115 -64 408 -115 460 -126 572 -125 185 2
296 12 301 28 5 15 -2 15 -270 -5 -86 -7 -88 -6 -97 17 -12 32 -167 93 -292
115 -77 13 -100 14 -131 3 -35 -11 -44 -10 -103 14 -70 29 -95 33 -95 17z
m493 -104 c34 -13 70 -26 80 -30 29 -9 20 -27 -10 -20 -57 14 -147 51 -151 62
-5 17 12 15 81 -12z"/>
<path d="M8061 4204 c-27 -34 -28 -64 -1 -64 37 0 66 76 34 87 -7 2 -21 -8
-33 -23z"/>
<path d="M4702 4015 c-18 -8 -47 -24 -63 -36 -16 -11 -55 -30 -87 -41 -31 -11
-71 -28 -89 -39 -36 -22 -168 -69 -194 -69 -10 0 -55 -16 -100 -36 -96 -42
-187 -59 -389 -73 -176 -12 -223 -5 -257 38 -24 31 -59 40 -97 25 -9 -3 -40
-41 -70 -83 -30 -42 -75 -97 -101 -123 -26 -25 -44 -51 -41 -57 9 -14 86 -14
123 0 15 5 44 21 63 34 31 21 50 24 180 30 166 7 251 20 295 42 16 9 82 27
146 39 64 13 154 37 200 54 46 17 138 51 204 74 66 24 129 47 140 51 31 12
163 97 203 131 21 18 32 36 28 42 -10 16 -54 14 -94 -3z"/>
<path d="M9352 3007 c-18 -21 11 -52 87 -92 38 -20 95 -58 127 -85 124 -104
125 -104 134 -90 25 41 -62 122 -254 239 -76 46 -79 47 -94 28z"/>
<path d="M4101 2926 c-8 -9 -11 -19 -7 -23 9 -9 29 13 24 27 -2 8 -8 7 -17 -4z"/>
<path d="M6240 2813 c0 -45 77 -163 107 -163 18 0 17 3 -13 63 -61 119 -94
155 -94 100z"/>
<path d="M3982 2768 c-15 -15 -16 -58 -1 -58 16 0 38 31 39 53 0 20 -20 23
-38 5z"/>
<path d="M9630 2671 c-87 -57 -303 -274 -298 -300 2 -9 14 -18 27 -19 19 -3
43 17 120 96 56 59 115 109 141 122 25 12 60 33 78 47 25 18 40 23 60 18 47
-11 174 -154 278 -311 110 -167 110 -164 27 -230 -62 -49 -143 -126 -143 -136
0 -17 28 -6 95 39 39 25 83 57 98 70 38 31 45 29 64 -14 44 -108 65 -226 73
-416 6 -174 15 -225 36 -204 9 9 10 386 1 430 -14 65 10 42 58 -57 25 -51 48
-96 52 -99 3 -4 14 -30 25 -59 78 -223 88 -450 26 -651 -20 -68 -20 -85 2 -72
16 10 57 103 65 149 4 20 12 36 18 36 6 0 8 -44 5 -130 -7 -156 -14 -173 -91
-195 -31 -9 -115 -56 -207 -115 -111 -72 -163 -100 -185 -100 -35 0 -55 15
-55 41 0 10 -15 30 -34 44 -44 34 -49 48 -26 78 21 27 170 104 209 109 34 4
46 43 21 68 -30 30 -62 25 -146 -23 -96 -53 -138 -89 -214 -182 -33 -41 -81
-89 -106 -107 -46 -33 -52 -53 -21 -72 14 -9 31 -4 87 27 44 24 77 36 89 32
21 -6 41 -52 41 -92 0 -43 36 -48 122 -19 82 29 92 31 83 16 -23 -37 -307
-171 -466 -221 -95 -29 -129 -48 -129 -71 0 -15 91 -3 176 23 169 51 436 206
771 445 29 21 56 35 59 31 3 -3 -1 -59 -10 -124 -8 -65 -21 -172 -27 -238 -6
-66 -14 -137 -16 -158 -3 -22 0 -44 6 -50 29 -29 64 67 76 209 3 43 13 117 20
164 26 155 37 359 32 569 l-5 206 -66 258 c-72 284 -96 348 -149 396 -19 18
-50 60 -67 94 -75 143 -263 447 -314 509 -31 37 -70 75 -88 84 -17 9 -56 36
-87 60 -74 58 -97 57 -191 -5z"/>
<path d="M3945 2634 c-24 -25 -13 -38 36 -44 41 -5 45 -8 57 -45 7 -22 16 -68
19 -102 10 -106 26 -74 21 42 -5 111 -19 145 -60 145 -11 0 -28 4 -38 10 -14
7 -23 6 -35 -6z"/>
<path d="M4307 2315 c-15 -9 -25 -20 -22 -25 4 -6 61 -10 128 -10 l121 0 -22
22 c-19 19 -35 23 -100 26 -55 2 -85 -2 -105 -13z"/>
<path d="M7796 2134 c-10 -14 -37 -75 -61 -137 -24 -62 -57 -142 -74 -179 -36
-78 -36 -78 -16 -78 17 0 75 85 75 109 0 9 7 30 16 46 27 50 104 237 104 251
0 23 -27 16 -44 -12z"/>
<path d="M5212 2113 c-15 -11 -62 -18 -152 -24 -124 -9 -312 -47 -334 -69 -6
-6 5 -25 32 -54 23 -25 42 -48 42 -52 0 -3 -17 -24 -37 -46 -40 -42 -95 -76
-285 -178 -147 -78 -178 -107 -178 -165 0 -46 19 -72 37 -54 18 18 31 3 68
-79 20 -42 54 -104 75 -138 41 -62 47 -83 30 -100 -6 -6 -15 -71 -20 -145 -6
-74 -21 -240 -35 -369 -33 -321 -40 -436 -27 -444 20 -12 20 -10 91 582 40
326 37 316 82 292 23 -13 24 -31 3 -87 -16 -41 -16 -44 2 -64 24 -26 22 -107
-6 -418 -26 -278 -26 -311 -1 -311 25 0 31 19 31 98 0 37 4 94 10 127 5 33 16
157 25 275 16 219 24 299 32 313 8 13 44 -25 60 -61 8 -18 27 -41 43 -50 39
-22 45 -41 20 -64 -11 -10 -20 -23 -20 -27 0 -5 -7 -47 -15 -95 -8 -48 -14
-117 -13 -154 1 -37 -2 -139 -6 -228 -6 -107 -6 -167 1 -179 10 -17 11 -17 23
5 7 13 15 62 17 109 2 48 8 127 14 176 5 50 13 117 16 151 3 33 11 67 17 76
17 24 87 68 106 68 10 0 23 7 30 15 10 12 9 20 -4 40 -10 15 -16 46 -16 80 0
31 -5 65 -11 76 -6 11 -63 54 -126 96 -177 114 -243 183 -278 288 -22 64 -58
126 -113 194 l-44 53 23 24 c13 12 94 61 179 107 85 47 180 103 211 126 32 23
62 41 68 41 21 0 11 50 -14 72 -14 12 -25 26 -25 30 0 19 111 59 191 69 129
16 229 50 229 79 0 14 -22 11 -48 -7z m-282 -1186 c0 -20 -25 1 -28 24 -2 23
-2 23 13 5 8 -11 15 -24 15 -29z m-40 -137 c0 -21 -15 -27 -25 -10 -7 12 2 30
16 30 5 0 9 -9 9 -20z"/>
<path d="M5491 1452 c-54 -27 -54 -46 1 -39 l45 6 -20 -65 c-18 -59 -18 -67
-4 -81 14 -14 21 -10 77 42 74 71 84 99 46 132 -33 28 -96 31 -145 5z"/>
<path d="M6944 1396 c1 -67 -2 -78 -29 -117 -35 -49 -65 -71 -72 -51 -6 16
-32 15 -39 -2 -10 -26 15 -56 46 -56 41 0 84 41 120 113 42 87 47 125 20 160
-36 46 -46 35 -46 -47z"/>
<path d="M4327 1423 c-4 -3 -7 -52 -7 -107 0 -56 -7 -175 -15 -266 -21 -234
-31 -550 -17 -550 6 0 14 5 17 10 11 18 25 11 25 -13 0 -41 -31 -129 -91 -260
-61 -134 -75 -181 -64 -216 7 -23 24 -28 29 -8 28 93 47 138 102 250 l65 132
-6 195 c-10 312 -11 474 -1 647 7 127 6 166 -4 178 -14 16 -23 19 -33 8z"/>
<path d="M6781 1336 c-24 -25 -26 -66 -4 -73 7 -3 19 12 27 31 8 20 20 36 25
36 6 0 11 7 11 15 0 23 -34 18 -59 -9z"/>
<path d="M9741 1296 c-9 -11 -9 -20 -2 -34 14 -26 28 -30 70 -21 48 11 57 23
32 48 -25 25 -82 28 -100 7z"/>
<path d="M5978 1118 c-29 -10 -35 -31 -18 -58 8 -13 13 -13 39 3 16 9 38 17
48 17 11 0 28 6 38 14 18 13 18 14 -3 25 -25 13 -67 13 -104 -1z"/>
<path d="M10126 1054 c-22 -21 -20 -31 9 -50 20 -13 28 -14 40 -4 18 15 19 42
3 58 -16 16 -33 15 -52 -4z"/>
<path d="M5745 819 c-17 -27 37 -229 82 -309 15 -25 52 -82 84 -126 73 -101
77 -112 94 -251 8 -63 17 -118 20 -123 9 -14 22 -12 28 4 7 17 -17 205 -32
254 -13 45 -52 109 -91 152 -52 57 -129 225 -136 298 l-7 62 31 0 c21 0 38 -9
55 -29 23 -28 108 -230 149 -356 29 -87 147 -321 184 -364 44 -50 54 -32 16
26 -66 99 -137 263 -222 509 -64 183 -93 242 -126 254 -34 13 -121 13 -129 -1z"/>
<path d="M7930 690 c-79 -8 -101 -13 -217 -54 -40 -14 -132 -37 -205 -51 -73
-14 -156 -36 -183 -49 -86 -39 -172 -50 -344 -42 -206 8 -221 11 -276 57 -66
55 -114 50 -67 -7 49 -59 85 -75 214 -89 68 -8 141 -19 163 -25 22 -5 69 -10
105 -10 38 0 77 -6 94 -15 43 -23 67 -19 168 26 185 81 213 91 416 140 114 27
219 54 234 60 32 13 47 47 27 60 -15 10 -20 9 -129 -1z"/>
<path d="M5036 682 c-11 -19 17 -27 98 -27 77 -1 79 -2 112 -38 30 -32 34 -43
34 -91 0 -78 36 -242 62 -279 32 -48 90 -107 105 -107 21 0 14 23 -15 52 -15
14 -42 52 -61 82 -30 50 -35 70 -47 177 -23 214 -36 230 -182 237 -64 3 -102
1 -106 -6z"/>
<path d="M4966 631 c-4 -5 -1 -33 5 -63 8 -36 10 -118 5 -258 -5 -174 -4 -202
7 -188 30 38 63 353 47 439 -12 61 -47 99 -64 70z"/>
<path d="M5163 524 c-9 -24 17 -124 33 -131 22 -8 29 4 28 47 -2 74 -43 130
-61 84z"/>
</g>
</svg>
