<?xml version="1.0" standalone="no"?>
<!DOCTYPE svg PUBLIC "-//W3C//DTD SVG 20010904//EN"
 "http://www.w3.org/TR/2001/REC-SVG-20010904/DTD/svg10.dtd">
<svg version="1.0" xmlns="http://www.w3.org/2000/svg"
 width="1227.000000pt" height="1280.000000pt" viewBox="0 0 1227.000000 1280.000000"
 preserveAspectRatio="xMidYMid meet">
<metadata>
Created by potrace 1.15, written by Peter Selinger 2001-2017
</metadata>
<g transform="translate(0.000000,1280.000000) scale(0.100000,-0.100000)"
fill="#2196f3" stroke="none">
<path d="M11780 12785 c-30 -8 -92 -33 -137 -55 -140 -69 -207 -168 -208 -310
0 -110 53 -177 191 -242 157 -73 299 -22 320 117 17 119 -58 170 -155 105 -51
-35 -70 -37 -102 -11 -20 16 -24 28 -24 74 0 69 37 127 108 171 41 25 61 30
131 34 101 5 186 -16 223 -56 14 -15 39 -55 56 -90 37 -78 34 -112 -18 -214
-73 -142 -99 -174 -178 -213 -40 -19 -112 -46 -161 -60 l-89 -25 -156 35
c-332 76 -517 102 -621 90 -137 -17 -271 -95 -359 -208 -52 -69 -115 -196
-136 -277 -27 -105 -5 -289 41 -334 14 -14 20 -12 61 19 28 21 57 35 74 35 35
0 49 21 79 115 93 298 318 404 706 333 159 -29 347 -31 422 -4 127 44 284 181
341 298 65 133 96 332 67 431 -23 79 -120 182 -208 222 -77 35 -184 43 -268
20z"/>
<path d="M10154 11878 c-48 -45 -103 -147 -124 -233 -6 -27 -12 -97 -11 -155
1 -182 29 -272 102 -332 48 -40 190 -115 256 -137 38 -12 45 -12 68 3 17 11
26 25 25 39 -3 38 -1 45 19 52 27 8 36 41 18 68 -8 12 -44 55 -80 95 -169 189
-223 333 -191 520 9 51 13 100 10 108 -10 25 -46 15 -92 -28z"/>
<path d="M11005 11717 c-69 -18 -109 -41 -156 -89 -50 -52 -84 -109 -100 -168
-11 -40 -10 -52 8 -101 12 -30 24 -79 28 -110 9 -73 16 -84 44 -70 27 15 106
112 151 186 43 70 134 157 202 191 30 15 78 28 122 33 40 5 83 14 95 20 20 11
21 14 8 34 -8 12 -40 35 -71 51 -52 27 -68 30 -169 33 -69 1 -131 -3 -162 -10z"/>
<path d="M11190 11334 c-107 -28 -210 -122 -245 -223 -29 -86 -19 -111 46
-111 16 0 38 -9 49 -20 11 -11 22 -20 25 -20 2 0 36 40 75 89 100 127 152 165
264 195 79 20 89 31 52 61 -56 45 -163 57 -266 29z"/>
<path d="M10650 11283 c-89 -74 -107 -253 -26 -253 28 0 100 60 115 98 7 16
11 61 9 103 l-3 74 -31 3 c-22 2 -40 -5 -64 -25z"/>
<path d="M10825 11132 c-41 -26 -128 -120 -150 -163 -32 -60 -19 -219 18 -219
5 0 26 19 46 42 20 23 62 70 94 104 l57 63 2 81 c0 44 1 86 2 93 2 19 -36 19
-69 -1z"/>
<path d="M10125 11050 c-18 -29 80 -66 154 -58 55 5 47 22 -21 46 -67 24 -123
29 -133 12z"/>
<path d="M11378 11040 c-104 -18 -214 -93 -252 -174 -9 -19 -16 -57 -16 -85 0
-49 3 -55 50 -102 28 -28 56 -49 62 -47 6 2 29 33 50 69 72 121 176 198 318
237 35 9 65 22 67 29 6 17 -83 59 -152 72 -64 12 -60 12 -127 1z"/>
<path d="M9750 11013 c0 -27 34 -78 72 -106 49 -38 166 -93 267 -127 99 -34
179 -38 388 -20 164 13 183 29 112 91 -41 35 -42 36 -26 60 23 32 21 46 -7 64
-22 15 -40 15 -165 4 -167 -14 -418 1 -539 32 -92 23 -102 24 -102 2z"/>
<path d="M10948 10941 c-68 -43 -127 -100 -149 -142 -36 -71 -17 -229 27 -229
9 0 34 16 55 35 38 34 42 35 118 35 44 0 82 3 84 8 3 4 -6 32 -19 63 -13 32
-28 98 -35 150 -6 52 -13 97 -16 102 -7 12 -17 9 -65 -22z"/>
<path d="M10490 10736 c-123 -35 -227 -120 -280 -230 -60 -126 -89 -298 -55
-326 13 -11 32 4 128 97 153 150 213 177 430 198 111 11 122 39 47 119 -31 33
-50 62 -50 77 0 34 -10 46 -53 64 -43 18 -104 18 -167 1z"/>
<path d="M10117 10690 c-76 -48 -60 -80 39 -80 33 0 52 8 97 43 31 23 57 48
57 55 0 8 -21 12 -73 12 -64 0 -79 -4 -120 -30z"/>
<path d="M11440 10711 c-75 -24 -150 -91 -150 -134 0 -41 69 -137 99 -137 9 0
25 17 36 37 49 93 116 139 225 158 72 12 81 26 38 58 -22 16 -46 21 -125 23
-54 2 -109 0 -123 -5z"/>
<path d="M10941 10581 c-40 -40 -39 -151 2 -213 12 -18 72 -72 132 -120 198
-157 220 -196 213 -381 -3 -105 -6 -116 -38 -177 -62 -115 -230 -274 -381
-358 -64 -36 -189 -85 -197 -78 -2 3 9 21 27 41 27 31 45 93 24 83 -5 -1 -46
-22 -93 -46 -82 -41 -210 -76 -254 -70 -17 3 -14 8 22 35 53 38 92 89 92 120
0 28 -19 30 -51 4 -70 -54 -189 -91 -294 -91 l-67 0 79 58 c136 102 136 118 1
74 -161 -53 -282 -66 -372 -41 l-39 11 59 32 c118 63 164 112 164 175 0 37
-18 41 -58 12 -52 -36 -135 -73 -210 -92 -85 -21 -138 -24 -179 -8 l-28 10 48
24 c59 28 98 64 137 126 48 74 35 122 -20 76 -75 -64 -376 -169 -394 -138 -4
5 22 34 57 63 74 62 117 114 117 140 0 24 -18 23 -60 -6 -19 -13 -94 -48 -166
-78 -177 -76 -274 -94 -274 -53 0 15 66 65 160 120 108 63 141 103 77 92 -19
-3 -126 -35 -240 -72 -428 -138 -589 -161 -483 -69 50 43 92 62 179 80 113 23
147 34 147 46 0 7 -37 9 -122 5 -96 -4 -147 -12 -233 -36 -159 -46 -348 -109
-440 -147 -92 -39 -85 -38 -85 -20 0 29 44 66 132 112 108 55 148 83 148 101
0 18 -4 18 -131 -26 -267 -90 -340 -127 -479 -243 -45 -38 -88 -68 -96 -68
-44 0 19 81 122 157 35 26 64 51 64 56 0 19 -88 -1 -165 -39 -97 -47 -163
-107 -343 -312 -73 -84 -136 -151 -139 -148 -3 2 5 33 16 67 37 105 4 90 -52
-24 -51 -102 -97 -246 -106 -331 -8 -70 1 -286 15 -371 16 -98 131 -278 218
-342 77 -57 190 -114 281 -142 74 -23 115 -22 150 5 29 22 12 40 -79 79 -116
50 -211 117 -247 172 -41 66 -68 144 -79 230 -12 96 -18 103 -47 67 l-25 -29
7 104 c11 172 45 266 145 409 53 74 70 87 70 52 0 -32 25 -23 54 20 14 22 52
65 84 96 56 56 187 154 204 154 5 0 7 -13 3 -30 -6 -26 -4 -30 14 -30 12 0 53
16 92 35 82 42 224 91 290 100 44 7 47 6 53 -20 6 -23 11 -26 31 -21 125 32
405 60 405 41 0 -3 -5 -14 -12 -25 -7 -10 -10 -21 -8 -23 3 -3 75 -9 160 -15
134 -8 163 -13 211 -36 30 -14 100 -35 155 -47 128 -27 169 -41 169 -59 0 -8
5 -18 10 -22 6 -4 92 -25 192 -48 100 -22 204 -47 233 -56 53 -16 59 -34 10
-34 -16 0 -31 -4 -34 -9 -18 -29 90 -51 258 -52 67 -1 135 -5 151 -9 l30 -7
-30 -12 c-16 -6 -36 -14 -42 -16 -20 -7 -15 -23 9 -36 22 -12 279 -7 378 7 37
5 43 4 33 -7 -28 -29 -16 -42 35 -34 53 7 419 125 499 161 89 39 233 144 329
239 78 78 98 104 137 185 79 164 108 333 78 462 -32 140 -124 321 -201 400
-47 46 -68 60 -124 77 -89 27 -169 28 -195 2z"/>
<path d="M10532 10425 c-44 -13 -103 -54 -134 -90 -23 -26 -23 -55 0 -55 47 1
151 34 201 65 31 19 62 35 68 35 6 0 19 7 28 16 40 41 -66 60 -163 29z"/>
<path d="M10731 10385 c-66 -31 -179 -142 -213 -210 -51 -101 -72 -211 -45
-234 15 -12 29 1 117 111 57 73 97 105 175 139 42 19 68 23 169 23 70 1 121 5
123 11 1 6 -17 23 -42 38 -40 26 -55 41 -122 120 -30 36 -88 36 -162 2z"/>
<path d="M10863 10170 c-57 -12 -96 -34 -127 -70 -25 -31 -34 -60 -18 -60 4 0
46 13 92 30 47 16 132 35 189 42 106 13 131 27 91 48 -27 15 -174 21 -227 10z"/>
<path d="M10998 10071 c-62 -20 -128 -57 -128 -72 0 -5 42 -9 99 -7 90 1 102
-1 143 -25 28 -16 52 -40 62 -61 18 -38 21 -123 6 -176 -15 -51 4 -59 33 -14
62 95 75 236 28 302 -46 65 -142 87 -243 53z"/>
<path d="M11393 9570 c-66 -114 -192 -238 -353 -345 -171 -114 -371 -215 -426
-215 -13 0 -78 -14 -146 -30 -106 -26 -134 -30 -203 -25 -51 4 -123 1 -200 -9
-65 -9 -128 -16 -139 -16 -19 0 -19 1 2 23 12 13 22 26 22 29 0 2 -69 8 -152
12 -189 8 -302 27 -333 56 -26 25 -108 40 -217 40 -78 0 -89 5 -66 28 21 21
-11 33 -72 26 l-55 -7 23 25 c12 13 22 27 22 30 0 3 -21 1 -47 -3 -27 -5 -104
-12 -173 -16 l-125 -8 -3 -56 c-2 -43 1 -59 15 -71 10 -9 77 -32 149 -52 72
-19 166 -49 209 -66 84 -33 107 -33 98 -1 -3 12 -2 21 1 21 18 0 81 -33 136
-70 59 -40 127 -70 158 -70 12 0 10 6 -8 25 -31 33 -21 32 92 -9 103 -38 159
-47 165 -29 2 6 -15 23 -39 38 l-43 26 35 -6 c19 -3 98 -14 175 -25 160 -22
212 -36 319 -85 43 -19 81 -35 86 -35 5 0 10 19 12 43 l3 42 91 -3 c107 -4
196 5 221 23 23 17 13 26 -34 34 -34 6 -23 10 92 35 218 48 260 65 200 80 -14
4 -25 10 -25 14 0 4 51 33 114 65 62 32 129 72 147 88 l34 30 -30 -5 c-16 -2
-39 -8 -50 -12 -11 -4 32 43 96 104 147 141 265 309 257 365 -2 18 -9 11 -35
-33z"/>
<path d="M8430 9459 c0 -32 24 -65 60 -84 60 -31 107 -11 94 39 -8 32 -47 54
-109 63 -43 5 -45 4 -45 -18z"/>
<path d="M8615 9447 c-8 -19 13 -107 31 -134 40 -62 136 9 108 81 -14 37 -129
81 -139 53z"/>
<path d="M7790 9430 c-123 -23 -218 -76 -320 -179 -86 -87 -137 -166 -174
-271 -28 -79 -30 -94 -29 -220 1 -221 47 -347 157 -430 69 -52 138 -80 194
-79 51 0 133 27 139 45 2 6 -16 19 -39 29 -121 51 -146 66 -185 105 -23 23
-55 71 -73 106 -75 153 -42 388 78 551 64 86 209 172 335 200 103 22 324 22
399 0 62 -19 140 -75 191 -139 61 -75 41 -185 -45 -244 -35 -24 -51 -29 -104
-29 -80 0 -109 22 -100 75 3 19 7 44 8 55 4 30 -55 57 -113 52 -128 -11 -243
-124 -225 -222 8 -41 74 -117 130 -150 82 -48 213 -66 318 -44 105 22 245 106
320 193 60 68 82 223 45 318 -34 88 -173 183 -367 249 -93 32 -98 33 -295 35
-110 2 -220 -1 -245 -6z"/>
<path d="M8800 9344 l0 -86 43 7 c90 15 129 54 103 104 -16 30 -77 61 -121 61
-25 0 -25 -1 -25 -86z"/>
<path d="M8990 9351 c0 -21 -3 -53 -6 -70 -6 -29 -5 -31 25 -31 50 0 110 29
117 57 9 33 -17 58 -71 72 -63 16 -65 15 -65 -28z"/>
<path d="M9172 9322 c-20 -39 -35 -113 -25 -123 26 -26 133 23 133 61 0 27
-31 59 -68 69 -26 8 -34 6 -40 -7z"/>
<path d="M9333 9282 c-10 -6 -32 -77 -33 -105 0 -4 28 -7 61 -5 69 3 86 18 76
60 -4 16 -20 32 -41 42 -38 18 -46 19 -63 8z"/>
<path d="M9486 9198 c-8 -13 -18 -35 -21 -50 -8 -30 1 -33 65 -28 54 4 67 45
24 79 -34 27 -50 26 -68 -1z"/>
<path d="M7930 9149 c-108 -39 -130 -44 -130 -30 0 6 -7 11 -15 11 -50 0 -175
-109 -231 -202 -82 -135 -122 -323 -69 -323 16 0 21 9 27 50 15 103 137 226
277 280 40 15 98 47 130 71 32 24 78 53 102 64 55 25 133 26 176 2 17 -9 49
-27 70 -38 75 -42 159 -40 183 6 15 28 -5 67 -50 98 -34 24 -39 24 -192 19
-127 -3 -158 -2 -162 9 -8 20 -20 18 -116 -17z"/>
<path d="M9601 9129 c-16 -46 -15 -49 23 -49 49 0 66 9 66 34 0 30 -18 46 -51
46 -21 0 -29 -7 -38 -31z"/>
<path d="M9740 9114 c-28 -72 2 -96 59 -48 l31 26 10 -26 c7 -20 17 -26 39
-26 17 0 31 6 35 15 9 23 -29 55 -66 55 -18 1 -44 7 -58 15 -34 20 -39 19 -50
-11z"/>
<path d="M9392 8760 c-33 -14 -24 -31 32 -61 97 -53 176 -138 162 -174 -6 -16
-24 -12 -196 46 -113 38 -118 39 -261 39 -154 0 -219 -11 -199 -35 6 -8 25
-17 41 -20 17 -4 29 -8 27 -10 -2 -2 -64 -8 -139 -14 -179 -13 -206 -24 -133
-53 l37 -15 -73 -7 c-92 -8 -206 -34 -245 -54 l-30 -16 30 -6 c30 -7 30 -7 5
-13 -14 -3 -52 -11 -85 -18 -33 -6 -82 -22 -110 -34 -27 -13 -75 -26 -105 -30
-118 -16 -195 -51 -272 -123 -62 -59 -52 -60 147 -21 146 29 364 85 490 125
233 75 551 147 725 163 170 16 446 -18 681 -84 177 -50 189 -52 189 -26 0 39
27 23 84 -52 32 -42 51 -47 59 -15 6 20 10 19 60 -28 30 -27 81 -64 114 -82
89 -50 216 -163 274 -245 28 -39 76 -121 106 -181 l55 -110 1 -230 c1 -247 -8
-311 -67 -513 l-24 -82 52 -48 c28 -27 67 -61 86 -76 29 -22 33 -29 24 -44 -9
-15 -30 -19 -108 -23 -93 -5 -115 -13 -116 -43 0 -13 86 -47 149 -58 81 -15
155 1 271 57 137 66 185 99 236 165 48 63 104 162 104 185 0 23 -27 16 -50
-13 -40 -52 -145 -155 -172 -169 -65 -34 -138 -7 -138 50 0 42 29 85 135 201
120 132 161 188 205 279 55 115 88 256 60 256 -5 0 -18 -17 -29 -38 -32 -63
-111 -161 -159 -197 -68 -53 -122 -47 -122 13 0 9 44 109 99 222 54 113 115
246 135 297 53 137 71 326 34 370 -24 29 -34 11 -52 -94 -33 -196 -71 -278
-154 -335 -62 -43 -98 -51 -139 -32 -20 10 -36 26 -39 41 -4 13 6 86 21 161
25 122 27 148 21 255 -4 65 -16 152 -26 192 -20 78 -54 155 -70 155 -5 0 -8
-56 -7 -127 2 -113 -1 -133 -20 -173 -33 -68 -77 -110 -115 -110 -22 0 -59 57
-104 163 -64 150 -91 202 -137 258 -67 82 -236 204 -251 181 -3 -5 6 -32 19
-61 14 -29 30 -80 36 -114 10 -52 9 -68 -4 -99 -9 -21 -23 -38 -31 -38 -25 0
-73 48 -136 135 -33 46 -80 100 -103 120 -79 68 -222 125 -314 125 -50 0 -54
-10 -15 -36 38 -25 100 -93 122 -134 25 -48 35 -106 20 -115 -15 -9 -104 46
-198 123 -104 85 -239 152 -318 158 -32 2 -70 -1 -82 -6z"/>
<path d="M6824 8556 c-3 -9 -4 -77 -2 -153 3 -124 7 -145 32 -203 15 -36 32
-69 36 -74 10 -10 163 63 168 80 1 7 -29 49 -68 95 -82 97 -129 173 -137 224
-6 40 -20 54 -29 31z"/>
<path d="M9163 8388 c-31 -15 -36 -35 -13 -58 37 -37 89 -17 93 35 2 27 -1 30
-28 32 -16 1 -40 -3 -52 -9z"/>
<path d="M9310 8385 c-10 -12 -10 -19 -2 -27 16 -16 76 3 80 25 3 13 -4 17
-31 17 -19 0 -40 -7 -47 -15z"/>
<path d="M9457 8393 c-15 -14 -6 -31 23 -43 34 -14 60 -8 60 14 0 26 -64 48
-83 29z"/>
<path d="M9630 8382 c-22 -8 -30 -25 -18 -39 18 -22 118 -15 118 8 0 18 -73
41 -100 31z"/>
<path d="M8987 8354 c-20 -11 -27 -22 -25 -37 3 -19 10 -22 56 -25 60 -4 75
12 48 53 -19 28 -39 31 -79 9z"/>
<path d="M8843 8333 c-71 -35 -38 -86 51 -81 50 3 51 3 48 33 -4 35 -28 65
-51 64 -9 0 -30 -7 -48 -16z"/>
<path d="M9320 8281 c24 -49 17 -51 -60 -21 -82 32 -180 21 -102 -12 24 -10
17 -13 -68 -19 -105 -7 -200 -29 -257 -58 -21 -10 -73 -28 -116 -40 -91 -25
-121 -39 -159 -74 -15 -14 -44 -31 -65 -37 -59 -19 -234 -107 -268 -134 -16
-13 -26 -28 -22 -32 5 -5 47 2 95 15 784 211 860 224 1252 225 172 0 274 -4
315 -13 247 -53 572 -186 740 -301 89 -62 115 -89 157 -165 35 -62 66 -81 59
-35 -9 64 -141 309 -204 378 -29 31 -47 42 -69 42 -22 0 -42 13 -80 50 -49 48
-82 63 -90 38 -7 -21 -37 0 -46 33 -13 52 -32 48 -32 -5 0 -27 -5 -46 -11 -46
-6 0 -32 18 -57 41 -74 65 -177 122 -206 115 -16 -4 -40 2 -67 16 -23 12 -65
23 -93 24 -28 2 -70 10 -93 18 -63 22 -62 2 2 -39 30 -20 55 -40 55 -45 0 -10
-115 28 -239 79 -103 43 -123 41 -78 -7 l22 -25 -40 8 c-22 4 -65 17 -95 30
-30 12 -65 26 -78 30 l-23 7 21 -41z"/>
<path d="M8693 8290 c-35 -21 -44 -58 -20 -78 33 -27 127 -25 127 3 0 19 -51
95 -64 95 -6 0 -26 -9 -43 -20z"/>
<path d="M7808 8250 c-312 -104 -469 -227 -696 -546 -131 -182 -215 -277 -241
-272 -23 5 -26 87 -5 151 9 29 51 124 94 213 60 124 95 182 154 255 42 52 76
97 76 102 0 4 -12 4 -27 1 -113 -27 -215 -93 -375 -243 -150 -141 -216 -236
-379 -544 -52 -98 -104 -190 -115 -204 l-21 -27 -17 31 c-48 94 5 410 110 650
96 221 28 232 -112 18 -105 -162 -132 -233 -264 -685 -145 -496 -156 -530
-180 -545 -14 -9 -47 20 -67 58 -32 64 -25 322 13 471 9 34 36 114 61 179 25
64 43 120 40 123 -20 20 -138 -128 -210 -264 -61 -115 -99 -234 -137 -422 -33
-164 -47 -196 -98 -220 -17 -8 -32 -19 -32 -23 0 -7 184 -97 199 -97 3 0 7 87
7 193 2 272 33 429 114 577 26 47 25 30 -5 -72 -14 -48 -30 -133 -36 -190 -16
-157 5 -532 33 -565 7 -8 55 -45 108 -83 52 -37 113 -87 135 -111 53 -58 131
-168 145 -205 l12 -29 13 25 c8 14 39 84 70 155 30 72 69 153 85 180 l30 50 0
-65 c0 -70 8 -110 20 -110 5 0 20 37 35 83 15 45 38 105 52 132 28 56 132 199
140 192 2 -3 -5 -39 -16 -79 -25 -87 -26 -108 -8 -108 8 0 27 30 42 68 26 60
46 84 196 235 93 92 173 167 179 167 13 0 -12 -50 -56 -111 -78 -108 -9 -91
78 19 28 35 71 104 96 155 25 51 47 87 49 80 2 -7 -12 -60 -32 -119 -20 -58
-34 -108 -31 -111 8 -8 62 55 137 160 66 92 115 136 166 152 22 6 21 3 -12
-67 -34 -70 -43 -108 -27 -108 4 0 38 25 76 55 128 102 179 123 127 53 -17
-23 -31 -50 -31 -60 0 -27 37 -22 79 11 50 39 110 68 178 86 84 22 89 20 54
-20 -17 -20 -31 -44 -31 -55 0 -18 3 -17 78 6 98 30 110 31 105 1 -9 -48 15
-51 159 -23 73 14 189 33 258 41 69 9 131 22 138 29 13 13 1 40 -80 178 -92
159 -110 351 -41 451 35 51 130 129 213 176 88 50 91 66 9 57 -141 -16 -246
-66 -414 -200 -167 -132 -212 -160 -239 -150 -25 10 -19 61 15 125 35 65 202
234 279 283 25 15 67 41 93 57 26 16 45 34 42 39 -9 14 -91 12 -150 -4 -83
-22 -206 -73 -274 -113 -35 -21 -130 -99 -210 -173 -80 -74 -160 -145 -178
-158 -66 -47 -103 -16 -103 84 0 100 47 181 192 330 65 66 146 141 180 165
161 115 157 137 -14 79z"/>
<path d="M8528 8244 c-18 -9 -28 -23 -28 -38 0 -27 14 -41 53 -50 45 -11 67 1
67 35 0 65 -34 85 -92 53z"/>
<path d="M8367 8172 c-22 -24 -21 -38 3 -62 22 -22 79 -27 97 -9 24 24 -28 89
-70 89 -8 0 -21 -8 -30 -18z"/>
<path d="M8216 8141 c-28 -31 -14 -53 31 -49 35 3 38 6 38 33 0 25 -4 31 -26
33 -15 2 -32 -5 -43 -17z"/>
<path d="M8068 8111 c-27 -25 -31 -33 -22 -48 15 -24 50 -28 80 -9 26 18 32
54 12 74 -19 19 -35 15 -70 -17z"/>
<path d="M7277 8082 c-38 -41 -40 -82 -4 -82 21 0 87 55 87 73 0 3 -13 13 -29
21 -27 14 -29 14 -54 -12z"/>
<path d="M7911 8071 c-57 -53 -19 -108 45 -66 21 13 25 23 22 53 -4 48 -25 52
-67 13z"/>
<path d="M7155 8064 c-14 -15 -25 -33 -25 -41 0 -20 25 -26 49 -13 23 12 54
64 44 74 -14 14 -45 4 -68 -20z"/>
<path d="M7743 8035 c-20 -20 -33 -42 -31 -52 5 -26 56 -48 87 -37 23 8 26 15
29 67 3 56 2 57 -24 57 -16 0 -39 -13 -61 -35z"/>
<path d="M9330 8033 c-92 -7 -349 -45 -480 -71 l-135 -27 60 -6 c33 -4 168 -7
300 -8 260 -1 327 -10 429 -55 32 -14 77 -29 99 -33 26 -4 41 -12 44 -24 7
-25 32 -29 174 -29 118 0 189 -11 189 -30 0 -4 -21 -26 -47 -48 -42 -35 -46
-42 -34 -56 11 -13 11 -22 3 -40 -12 -26 0 -46 27 -46 8 0 29 -5 48 -12 29
-11 39 -9 93 17 92 44 93 49 28 106 -30 26 -60 61 -67 76 -15 36 -61 67 -147
100 -126 47 -113 52 90 28 146 -18 177 -28 134 -44 -16 -6 -28 -15 -28 -21 0
-5 12 -12 28 -16 72 -16 111 -26 156 -41 l50 -16 -29 -23 c-36 -29 -31 -35 60
-64 101 -31 181 -77 226 -128 21 -25 39 -49 39 -53 0 -5 -22 -9 -49 -9 -58 0
-74 -15 -34 -32 80 -34 116 -86 51 -74 -120 23 -147 17 -90 -19 36 -24 81 -66
94 -89 9 -17 6 -18 -41 -11 -61 8 -65 -3 -19 -42 80 -68 106 -100 118 -143 15
-54 6 -70 -43 -84 -20 -6 -46 -19 -58 -29 -25 -22 -17 -35 46 -72 66 -38 80
-34 103 28 79 211 83 497 8 645 -44 87 -179 205 -326 285 -159 87 -471 187
-644 206 -88 10 -320 12 -426 4z"/>
<path d="M7177 7902 c-43 -32 -71 -68 -58 -76 11 -7 55 27 82 65 29 41 20 45
-24 11z"/>
<path d="M7636 7849 c-55 -9 -94 -33 -115 -71 -51 -90 110 -70 218 27 23 21
41 41 41 46 0 11 -76 10 -144 -2z"/>
<path d="M3525 7825 c-104 -27 -266 -84 -423 -149 -340 -139 -539 -281 -897
-640 -179 -179 -227 -237 -212 -252 3 -4 37 12 74 34 79 47 156 80 268 115
110 35 147 40 143 23 -2 -8 -50 -65 -107 -127 -115 -126 -150 -176 -222 -318
-68 -133 -64 -149 20 -87 70 52 156 92 266 124 172 50 313 68 209 27 -85 -34
-164 -79 -201 -113 -48 -45 -31 -52 58 -22 102 35 281 52 479 47 160 -4 280
-20 280 -37 0 -4 -55 -10 -122 -12 -125 -5 -234 -31 -268 -64 -18 -17 -30 -16
200 -19 203 -2 249 -12 450 -95 118 -49 132 -52 243 -59 117 -8 151 -16 106
-25 -68 -14 -138 -15 -244 -6 -137 13 -155 7 -107 -38 41 -39 56 -41 257 -48
135 -5 180 -3 218 9 26 8 47 12 47 8 0 -11 -82 -87 -108 -100 -12 -7 -37 -9
-56 -6 -22 5 -36 3 -41 -5 -12 -20 14 -28 114 -34 145 -9 270 -25 326 -42 54
-15 82 -30 75 -38 -3 -2 -70 -7 -150 -11 -80 -4 -162 -11 -182 -16 -56 -14
-48 -35 16 -43 111 -13 262 -83 326 -151 30 -32 16 -32 -72 0 -75 27 -132 33
-126 13 3 -7 31 -31 64 -54 69 -48 183 -175 212 -236 35 -76 44 -80 205 -89
212 -11 267 -27 326 -94 26 -30 31 -43 31 -88 -1 -102 -67 -192 -165 -223 -47
-15 -64 -16 -117 -6 -104 19 -140 62 -98 115 28 35 67 36 80 2 12 -31 42 -33
70 -5 45 45 13 104 -65 116 -107 16 -165 -12 -208 -100 -36 -73 -37 -147 -3
-197 29 -43 128 -97 235 -129 130 -40 261 -9 396 93 119 90 193 224 202 367
10 145 -54 228 -257 335 -120 64 -124 80 -11 50 169 -45 350 -148 481 -273 41
-40 78 -72 82 -72 12 0 65 88 89 147 l21 53 -27 32 c-65 80 -182 169 -296 227
-169 88 -414 184 -489 193 -14 2 -25 9 -25 18 0 34 267 3 410 -47 110 -39 323
-148 397 -204 38 -28 75 -49 85 -47 19 4 113 123 113 144 0 17 -171 146 -307
230 -54 33 -147 80 -208 103 -222 85 -250 98 -253 113 -6 32 128 77 229 78
165 0 511 -160 613 -285 42 -51 56 -56 56 -20 0 92 -227 319 -420 419 -110 57
-351 130 -593 180 -129 27 -190 52 -195 78 -6 32 38 41 223 49 99 4 186 8 193
8 47 3 -55 69 -155 101 -35 10 -174 33 -310 50 -268 32 -333 45 -333 66 0 19
68 83 112 105 100 51 298 67 418 34 102 -28 120 -30 120 -12 0 57 -213 147
-450 189 -161 28 -457 35 -650 14 -125 -13 -147 -13 -159 -1 -12 12 -12 20 4
54 28 63 110 137 200 182 116 57 190 73 302 66 91 -6 116 0 89 22 -43 36 -412
76 -552 60 -80 -9 -119 -19 -444 -121 -177 -56 -210 -63 -210 -48 0 27 46 96
106 160 77 81 159 136 281 186 48 20 101 43 117 51 28 15 29 16 11 29 -28 20
-108 16 -210 -11z"/>
<path d="M2768 7764 c-69 -36 -135 -74 -147 -85 -11 -10 -33 -19 -48 -19 -40
0 -63 -19 -123 -100 -54 -74 -70 -83 -52 -31 13 36 2 47 -30 30 -41 -21 -59
-43 -100 -116 -21 -39 -46 -77 -55 -84 -14 -12 -15 -10 -9 19 11 45 -10 42
-61 -10 -48 -51 -65 -81 -88 -166 -10 -34 -22 -65 -26 -68 -5 -3 -9 20 -9 50
0 31 -4 56 -9 56 -14 0 -81 -78 -92 -108 -6 -15 -15 -58 -21 -96 -12 -84 -24
-119 -39 -110 -8 5 -9 30 -5 80 4 46 3 74 -3 74 -13 0 -74 -76 -95 -118 -10
-20 -21 -79 -27 -150 -10 -117 -20 -162 -38 -162 -18 0 -33 70 -26 120 5 36 4
50 -5 50 -20 0 -79 -71 -108 -130 -23 -49 -26 -66 -25 -150 0 -52 2 -103 4
-112 2 -9 0 -18 -5 -20 -17 -5 -46 58 -53 111 -3 31 -10 50 -17 48 -6 -2 -26
-25 -43 -51 -31 -45 -33 -54 -33 -131 0 -103 -10 -205 -21 -205 -13 0 -23 42
-22 98 1 28 -3 52 -7 52 -16 0 -86 -101 -139 -199 -28 -52 -68 -115 -88 -140
-62 -76 -176 -206 -185 -209 -19 -8 -6 48 22 91 17 26 30 52 30 57 0 43 -108
-63 -173 -169 -41 -68 -53 -81 -55 -63 -2 12 6 47 18 78 11 31 18 59 15 62 -3
3 -19 -8 -36 -24 -35 -33 -75 -109 -109 -206 -13 -38 -28 -68 -33 -68 -5 0 -6
8 -2 18 4 9 9 33 12 52 6 34 5 34 -13 18 -43 -38 -85 -127 -114 -240 -30 -119
-48 -238 -36 -238 32 0 159 120 234 221 70 93 192 200 192 168 0 -6 -23 -44
-51 -85 -49 -71 -79 -102 -186 -191 -31 -25 -66 -69 -88 -108 -83 -149 -165
-200 -211 -130 -14 22 -13 27 10 73 46 90 45 179 -1 102 -17 -29 -43 -41 -43
-20 0 20 -20 9 -35 -20 -9 -18 -23 -30 -35 -30 -27 0 -62 -51 -119 -171 -67
-142 -102 -257 -108 -356 -3 -46 -3 -83 0 -83 3 0 18 21 33 46 l27 46 46 -45
c55 -54 109 -83 124 -68 7 7 1 20 -17 42 -79 94 -64 166 18 85 49 -50 166
-106 166 -80 0 3 -20 29 -44 58 -46 53 -66 92 -66 127 0 28 26 23 48 -9 24
-34 98 -77 107 -62 3 5 -7 29 -24 53 -63 90 -45 125 27 53 73 -74 125 -76 84
-5 -26 45 -40 133 -24 143 6 4 18 -7 27 -24 16 -30 59 -59 71 -47 3 3 0 28 -6
55 -16 61 -9 82 26 82 23 0 25 3 20 26 -16 62 -17 83 -7 120 10 38 58 101 68
90 3 -3 -3 -25 -12 -51 -10 -25 -15 -48 -12 -51 3 -3 35 12 72 34 36 22 84 43
105 47 45 8 63 24 50 45 -6 8 -10 19 -10 24 0 8 89 4 130 -5 17 -4 19 35 5 85
l-8 29 59 -6 c32 -3 67 -8 77 -12 33 -14 18 31 -24 69 -22 21 -39 45 -37 54 5
27 62 52 152 69 47 9 86 20 86 25 0 13 -64 38 -96 38 -42 0 -23 23 45 51 34
14 67 31 72 36 18 18 -28 27 -123 25 -49 -1 -88 2 -88 8 0 24 135 101 230 130
44 14 62 26 88 61 154 207 313 389 338 389 18 0 18 -3 -6 -50 -25 -49 -99
-140 -209 -255 -78 -82 -84 -90 -62 -93 41 -6 162 62 232 130 83 82 147 177
249 368 46 85 99 184 118 219 19 35 65 96 103 136 104 109 94 120 -49 50 -176
-85 -297 -182 -442 -355 -114 -135 -143 -168 -138 -155 3 6 53 92 113 193 121
204 268 406 432 592 134 153 441 452 582 569 181 148 213 182 179 181 -7 0
-70 -30 -140 -66z"/>
<path d="M8105 7774 c-63 -22 -82 -34 -94 -61 -13 -28 -15 -90 -2 -97 11 -7
143 87 175 125 15 17 24 35 20 40 -8 13 -52 10 -99 -7z"/>
<path d="M8759 7776 c-186 -29 -294 -80 -333 -160 -15 -30 -19 -61 -19 -145 0
-131 7 -150 132 -332 50 -73 91 -143 91 -155 0 -40 -32 -47 -265 -56 -190 -7
-223 -11 -245 -27 -48 -35 -33 -45 90 -58 483 -51 538 -64 877 -207 241 -101
261 -100 151 11 l-62 63 23 31 c24 32 24 33 6 66 -20 36 -59 69 -120 101 -57
29 -235 174 -337 275 -143 141 -209 246 -164 263 21 8 283 -64 361 -100 88
-41 127 -84 123 -135 -3 -35 -4 -36 -49 -39 -75 -5 -212 56 -166 74 9 3 25 1
36 -5 30 -17 37 6 11 34 -41 43 -114 44 -129 2 -13 -35 8 -75 55 -108 50 -34
216 -115 255 -124 24 -6 27 -3 32 32 4 21 7 58 7 83 0 60 24 158 51 210 17 32
19 46 12 63 -23 48 -248 154 -390 183 -43 9 -80 19 -83 21 -11 12 221 -9 314
-28 125 -25 146 -35 225 -98 52 -42 71 -51 102 -51 22 0 48 -5 59 -12 17 -11
24 -8 51 17 17 17 42 49 56 73 39 66 27 82 -110 147 -160 76 -241 96 -417 100
-90 3 -178 -1 -231 -9z"/>
<path d="M9793 7752 c-106 -38 -180 -107 -242 -229 -22 -43 -49 -91 -60 -108
-27 -39 -26 -64 4 -109 64 -94 74 -130 54 -196 -9 -31 -9 -43 4 -66 61 -113
77 -150 77 -175 0 -23 -5 -29 -21 -29 -42 0 -59 18 -59 64 0 55 -25 87 -84
110 -43 16 -48 23 -97 119 -43 84 -52 112 -53 157 0 37 5 63 17 80 16 23 23
60 12 60 -18 0 -67 -34 -99 -71 -70 -77 -80 -113 -84 -299 l-4 -164 62 -57 62
-58 -3 -58 -3 -58 74 -52 c125 -89 125 -88 125 -197 l0 -94 87 -125 c106 -150
151 -239 213 -417 57 -162 83 -216 130 -265 l35 -38 72 6 c47 4 81 13 98 25
58 43 91 247 72 452 -21 217 -12 320 39 467 11 32 22 94 24 140 4 89 24 140
70 183 15 14 35 42 46 62 10 20 34 49 53 63 19 14 46 43 60 65 32 49 61 69
117 78 38 6 44 11 47 34 6 52 -96 98 -217 98 l-65 0 -63 -64 c-34 -36 -74 -89
-88 -119 -30 -62 -80 -125 -90 -115 -4 4 0 34 9 66 9 32 16 74 16 93 0 20 11
58 25 85 18 36 25 65 25 110 0 55 2 62 30 82 18 14 33 37 40 62 21 78 93 129
203 145 42 6 48 9 45 28 -6 40 -70 62 -183 62 -113 0 -150 -13 -290 -100 l-74
-46 6 -89 c6 -86 5 -91 -22 -126 -26 -34 -27 -38 -16 -92 20 -102 10 -187 -29
-234 -26 -32 -40 -15 -50 63 -4 35 -13 76 -20 90 -9 20 -9 39 -1 77 12 59 3
98 -36 154 -26 39 -26 39 -10 89 13 41 14 60 5 103 -6 28 -8 64 -4 79 4 16 41
64 82 109 41 44 73 85 71 91 -6 19 -88 18 -144 -1z"/>
<path d="M10136 7714 c-23 -22 -6 -39 29 -30 18 5 25 12 23 24 -4 23 -32 27
-52 6z"/>
<path d="M7533 7668 c-22 -10 -30 -37 -17 -51 8 -8 61 12 75 30 10 12 10 16
-2 24 -18 11 -28 10 -56 -3z"/>
<path d="M10222 7654 c-26 -18 -28 -30 -7 -38 23 -8 45 4 45 24 0 27 -13 31
-38 14z"/>
<path d="M10346 7435 c-7 -20 11 -27 56 -23 21 2 33 8 33 18 0 22 -80 27 -89
5z"/>
<path d="M10367 7364 c-4 -4 -7 -18 -7 -31 0 -20 5 -23 41 -23 38 0 40 1 37
28 -2 22 -9 28 -33 30 -17 2 -34 0 -38 -4z"/>
<path d="M10293 7317 c-6 -12 -25 -49 -42 -81 -21 -40 -31 -73 -31 -102 0 -55
16 -57 60 -7 56 64 74 132 48 188 -14 31 -20 31 -35 2z"/>
<path d="M10372 7248 c-19 -19 -14 -38 12 -48 39 -14 66 -2 66 31 0 26 -3 29
-33 29 -18 0 -38 -5 -45 -12z"/>
<path d="M10494 6840 c-32 -12 -131 -127 -159 -184 -19 -37 -25 -66 -25 -113
0 -49 -8 -84 -35 -153 -35 -89 -35 -91 -35 -249 l0 -159 64 -60 c36 -33 95
-85 133 -115 37 -29 75 -62 83 -72 14 -17 13 -18 -15 -11 -61 14 -113 18 -118
10 -8 -13 9 -32 88 -98 38 -32 82 -75 99 -95 31 -39 70 -118 80 -165 l7 -29
-27 18 c-83 54 -122 69 -143 56 -12 -8 -9 -16 15 -43 48 -55 174 -314 174
-358 0 -18 -24 -10 -64 20 -21 16 -42 27 -47 24 -11 -7 14 -86 44 -136 33 -56
70 -90 137 -127 l55 -31 -51 0 c-45 0 -58 5 -110 45 -32 24 -65 45 -71 45 -22
0 -14 -48 17 -110 l30 -59 0 -213 0 -213 -26 38 c-14 21 -29 35 -34 32 -18
-11 -21 -85 -6 -144 21 -84 59 -155 113 -212 25 -27 43 -49 39 -49 -12 0 -68
31 -123 68 -83 55 -88 36 -27 -117 18 -46 45 -99 60 -118 14 -19 24 -36 22
-38 -8 -8 -83 17 -125 41 -55 32 -55 24 -3 -105 34 -83 40 -110 40 -170 0 -39
-4 -71 -9 -71 -5 0 -33 27 -61 61 -38 43 -59 59 -74 57 -19 -3 -21 -8 -16 -58
7 -78 4 -410 -5 -467 -7 -48 -7 -48 -25 -26 -19 24 -60 163 -60 206 0 15 -4
27 -9 27 -19 0 -29 -71 -35 -244 -3 -98 -7 -181 -10 -184 -12 -11 -36 22 -52
70 l-16 50 -18 -27 c-29 -45 -31 -81 -15 -286 18 -227 18 -246 6 -234 -19 21
-91 173 -99 210 l-8 38 -19 -29 c-13 -21 -21 -57 -26 -129 -4 -55 -10 -113
-14 -130 -10 -40 -63 -140 -85 -160 -17 -16 -19 -14 -25 39 -4 31 -5 70 -1 86
8 42 -8 37 -29 -7 -10 -21 -62 -101 -115 -178 -54 -77 -107 -160 -119 -183
-13 -24 -24 -42 -27 -40 -2 3 1 30 7 62 7 31 9 59 6 63 -21 21 -75 -79 -138
-254 -26 -75 -51 -138 -54 -142 -16 -15 -25 33 -23 116 2 50 0 95 -4 99 -12
11 -35 -13 -110 -114 -38 -52 -91 -115 -116 -140 -59 -57 -151 -127 -158 -120
-3 3 13 36 36 73 47 76 64 115 51 115 -5 0 -49 -34 -97 -75 -49 -41 -120 -90
-159 -109 -81 -39 -215 -89 -215 -79 0 3 24 31 52 61 51 54 54 79 6 48 -13 -8
-53 -26 -90 -40 -37 -13 -92 -41 -122 -60 -31 -20 -56 -33 -56 -29 0 4 7 27
16 50 19 48 15 58 -15 48 -32 -10 -168 -102 -219 -148 -26 -23 -57 -50 -69
-61 l-22 -18 6 56 c4 36 2 56 -5 56 -6 0 -34 -21 -64 -46 -29 -25 -73 -55 -98
-66 -76 -33 -243 -89 -258 -86 -8 2 7 26 42 67 58 67 65 81 42 81 -25 0 -170
-52 -246 -88 -41 -20 -79 -38 -84 -40 -6 -3 4 15 22 38 18 24 32 48 32 52 0
32 -150 -30 -247 -103 -29 -21 -55 -39 -58 -39 -3 0 -5 10 -5 23 0 31 35 95
76 137 40 42 42 50 11 50 -28 0 -107 -47 -207 -123 -103 -79 -108 -77 -60 25
34 71 36 90 15 108 -13 11 -31 6 -105 -29 -49 -24 -113 -46 -143 -50 -62 -8
-127 -3 -127 10 0 5 41 29 90 54 50 25 89 49 86 54 -3 4 -47 11 -98 14 -51 4
-127 14 -168 23 -55 12 -99 14 -167 9 -80 -5 -93 -4 -93 9 0 16 67 54 133 75
20 7 37 16 37 21 0 13 -184 23 -277 16 -97 -7 -102 -1 -40 55 55 51 43 59 -92
59 -116 0 -118 4 -34 49 25 14 48 31 50 38 5 15 -97 53 -142 53 -19 0 -75 -18
-126 -40 -50 -22 -123 -49 -161 -60 -39 -11 -73 -22 -75 -24 -11 -11 10 -24
54 -36 68 -16 143 -59 143 -81 0 -30 -45 -56 -108 -63 -67 -8 -132 -44 -170
-96 -35 -47 -24 -60 50 -60 73 0 130 -14 148 -35 10 -13 8 -25 -15 -68 -42
-81 -63 -149 -80 -265 -17 -115 -13 -187 11 -196 15 -6 20 2 59 108 35 96 147
205 253 245 115 44 252 13 252 -57 0 -14 -21 -71 -47 -126 l-48 -101 0 -165
c1 -164 18 -297 48 -360 22 -46 32 -21 39 99 8 136 26 193 90 291 52 79 117
126 286 210 133 67 205 83 261 60 49 -20 47 -40 -13 -168 -64 -137 -99 -250
-121 -394 -21 -138 -32 -393 -17 -402 17 -10 29 21 42 109 7 44 26 123 42 175
80 252 179 358 452 485 174 82 337 127 400 111 53 -13 52 -38 -8 -159 -123
-251 -200 -567 -152 -633 8 -10 17 -16 21 -13 3 4 17 51 30 104 28 114 68 183
201 350 106 132 302 330 399 403 126 95 275 152 395 152 55 0 83 -31 77 -84
-9 -70 -129 -220 -231 -288 -85 -58 -162 -139 -235 -249 -67 -100 -141 -239
-141 -265 0 -34 36 -6 66 51 61 116 168 197 527 400 81 46 177 105 214 131
120 86 420 402 502 530 38 58 76 86 163 121 56 23 65 24 88 11 62 -34 65 -131
7 -253 -79 -165 -160 -259 -340 -391 -159 -117 -227 -173 -227 -185 0 -19 34
-8 129 41 298 153 558 409 686 675 18 39 57 140 86 225 104 307 155 379 238
335 46 -23 66 -89 66 -215 -1 -125 -25 -220 -85 -340 -44 -87 -47 -100 -26
-100 19 0 138 128 170 183 85 144 113 385 86 731 -10 134 -1 205 35 276 24 48
68 100 83 100 13 0 192 -139 192 -149 0 -19 90 -108 144 -143 50 -32 106 -50
106 -34 0 3 -20 44 -44 93 -40 79 -92 218 -185 491 -59 173 -63 415 -9 521 27
51 78 92 107 84 12 -3 33 -35 56 -86 131 -286 149 -313 234 -356 50 -26 101
-36 101 -21 0 7 -22 42 -49 79 -110 148 -126 211 -141 574 -14 333 -26 423
-91 692 -37 151 -37 182 -4 195 37 14 65 -1 125 -67 136 -148 192 -244 216
-369 24 -124 24 -126 36 -122 7 3 21 22 32 44 19 36 21 56 21 254 l0 215 -33
78 c-41 100 -125 252 -215 390 -75 115 -81 140 -52 196 19 39 48 40 113 7 126
-64 275 -252 327 -413 9 -29 20 -53 25 -53 13 0 23 146 17 240 -9 118 -37 203
-96 286 -53 75 -181 203 -301 301 -94 77 -150 149 -157 203 -7 51 6 56 89 36
128 -33 292 -127 365 -210 40 -45 57 -76 92 -159 25 -60 44 -54 36 11 -25 187
-150 413 -310 559 -58 54 -105 82 -317 189 -220 111 -249 128 -246 147 7 53
141 59 299 13 162 -47 277 -116 339 -202 61 -86 66 -32 5 60 -102 154 -325
321 -540 406 -205 81 -218 127 -36 133 42 1 114 -2 161 -6 l85 -9 -19 21 c-34
38 -273 178 -331 194 -11 3 -29 2 -41 -3z"/>
<path d="M1455 6768 c-90 -94 -144 -169 -230 -323 -37 -66 -83 -144 -101 -172
-98 -153 -49 59 55 237 91 155 85 171 -20 61 -82 -85 -146 -181 -225 -337
-103 -202 -149 -344 -112 -344 6 0 39 27 74 60 57 55 66 60 107 60 41 0 49 4
84 44 21 24 48 61 58 83 11 21 35 62 52 91 18 29 51 88 72 131 56 110 144 261
210 361 75 112 73 108 60 116 -7 4 -41 -24 -84 -68z"/>
<path d="M7493 6794 c-3 -9 7 -40 23 -70 26 -48 28 -56 17 -94 -9 -34 -8 -44
5 -56 34 -35 152 19 171 79 21 64 -19 114 -112 142 -65 19 -96 19 -104 -1z"/>
<path d="M7750 6797 c0 -8 5 -39 11 -69 11 -52 10 -60 -15 -111 -43 -92 -29
-115 48 -77 120 58 157 113 123 185 -25 52 -167 113 -167 72z"/>
<path d="M7945 6749 c27 -51 85 -57 85 -8 0 23 -29 39 -70 39 l-31 0 16 -31z"/>
<path d="M8096 6723 c15 -66 9 -145 -14 -190 -31 -60 -29 -66 21 -61 91 10
166 92 152 164 -9 51 -57 100 -109 113 -61 15 -59 16 -50 -26z"/>
<path d="M7211 6742 c-18 -13 -8 -28 40 -58 31 -19 38 -29 35 -47 -3 -12 -8
-52 -11 -89 l-7 -68 32 0 c97 0 195 120 159 195 -26 52 -62 70 -152 73 -45 1
-88 -1 -96 -6z"/>
<path d="M8456 6689 c-9 -33 -24 -225 -18 -231 13 -13 74 25 105 63 16 21 31
54 34 76 5 37 2 43 -28 66 -43 32 -87 44 -93 26z"/>
<path d="M8353 6644 c-11 -16 -35 -58 -54 -93 -18 -35 -51 -83 -74 -107 -48
-52 -141 -109 -193 -119 -20 -3 -123 -47 -229 -96 -105 -49 -194 -89 -197 -89
-15 0 -3 24 31 61 20 22 94 74 166 117 71 42 139 86 151 97 25 23 81 150 91
208 10 51 -14 50 -43 -2 -42 -73 -104 -112 -282 -176 -143 -51 -176 -69 -271
-150 -84 -72 -236 -235 -266 -286 -40 -68 -41 -12 -1 111 51 158 105 225 243
299 96 51 132 77 122 87 -23 23 -275 -103 -377 -189 -120 -101 -166 -165 -201
-282 -56 -183 -82 -259 -107 -315 l-25 -55 -9 45 c-23 113 17 282 103 432 79
141 63 173 -28 53 -73 -97 -157 -264 -202 -402 -36 -110 -45 -152 -86 -373
-27 -145 -69 -280 -88 -280 -14 0 -1 239 18 315 18 72 18 85 4 85 -19 0 -99
-186 -115 -266 -8 -43 -21 -200 -29 -348 -17 -309 -23 -384 -36 -391 -14 -9
-42 105 -48 198 -3 48 -10 88 -16 90 -25 6 -37 -105 -44 -423 -7 -286 -10
-332 -28 -385 -22 -67 -26 -62 -38 46 -7 61 -29 107 -39 79 -3 -8 -12 -55 -21
-104 -26 -145 -65 -236 -164 -381 -94 -139 -134 -212 -200 -367 -60 -140 -54
-172 12 -69 44 68 117 154 125 147 2 -3 -9 -27 -26 -53 -17 -26 -42 -84 -57
-128 -15 -44 -40 -105 -55 -135 -38 -76 -267 -368 -362 -462 -43 -43 -78 -81
-78 -84 0 -4 16 -4 35 -1 19 3 35 4 35 2 0 -7 -274 -231 -346 -283 -139 -101
-264 -149 -454 -171 -144 -17 -152 -23 -96 -65 25 -19 43 -21 179 -23 84 -1
159 -2 167 -3 25 -3 -88 -39 -248 -81 -145 -37 -160 -39 -305 -39 -83 0 -158
-4 -166 -9 -19 -12 134 -86 228 -110 86 -21 75 -31 -34 -31 -88 0 -233 27
-408 76 -71 19 -131 33 -134 30 -9 -8 11 -33 49 -64 84 -67 189 -222 150 -222
-5 0 -52 39 -104 88 -61 55 -136 111 -204 151 -60 36 -143 91 -184 124 -80 63
-116 84 -126 74 -13 -13 28 -97 87 -178 32 -45 59 -86 59 -91 0 -17 -82 36
-145 95 -86 78 -153 210 -190 375 -47 205 -59 227 -83 157 -13 -41 -32 -225
-32 -324 0 -76 -10 -71 -36 19 -15 53 -19 96 -18 230 0 140 5 192 32 342 37
201 38 218 17 218 -29 0 -58 -66 -129 -285 l-26 -80 5 63 c14 181 145 432 360
688 89 105 165 246 165 305 0 21 -4 39 -10 39 -5 0 -10 -4 -10 -8 0 -10 -150
-125 -155 -120 -3 2 16 33 42 69 26 35 104 154 173 264 151 239 202 316 206
312 2 -1 -4 -31 -13 -64 -28 -103 -16 -99 152 42 67 57 112 103 121 125 9 19
18 78 21 130 5 93 -2 131 -42 223 -14 33 14 17 79 -44 75 -69 126 -160 126
-221 0 -41 21 -61 42 -40 16 16 12 144 -7 232 -34 160 -126 395 -193 492 -17
25 -67 84 -111 133 -45 48 -79 90 -76 93 15 15 143 -104 231 -214 18 -21 35
-36 40 -31 4 4 -6 35 -22 70 -102 217 -319 433 -513 512 -106 43 -354 95 -456
95 l-35 0 0 -62 c0 -35 -9 -104 -19 -155 -16 -75 -27 -103 -65 -158 -25 -37
-44 -71 -41 -75 3 -5 28 -16 55 -25 38 -13 57 -27 82 -61 48 -66 68 -57 68 33
0 39 2 44 15 33 31 -26 67 -121 67 -180 0 -31 4 -63 9 -71 12 -21 36 44 45
121 3 36 10 72 14 79 14 26 30 -58 31 -164 1 -55 5 -134 8 -175 l7 -75 23 48
c12 27 30 80 39 118 10 38 20 69 24 69 24 0 20 -161 -9 -323 -8 -48 -13 -91
-10 -94 16 -15 37 6 105 103 21 32 5 -160 -23 -271 -57 -225 -196 -416 -352
-484 -134 -58 -239 -38 -304 59 -40 60 -52 111 -47 210 8 154 66 219 203 228
l74 5 6 -39 c9 -53 13 -64 23 -64 13 0 22 66 15 103 -10 49 -80 112 -142 127
-142 34 -282 -48 -360 -210 -34 -72 -36 -80 -36 -180 1 -199 66 -293 265 -381
69 -30 83 -33 173 -32 53 1 95 -2 92 -7 -3 -4 -35 -20 -72 -36 -89 -36 -233
-45 -315 -19 -80 26 -152 79 -197 146 -53 79 -103 219 -105 292 l-1 58 -22
-25 c-61 -71 -56 -297 9 -439 39 -85 104 -146 203 -194 l75 -35 138 4 c135 3
138 3 116 -15 -103 -81 -365 -113 -472 -58 -50 26 -124 99 -167 166 -46 72
-60 79 -52 26 9 -72 90 -223 144 -271 85 -75 110 -83 270 -89 78 -3 144 -9
148 -13 4 -3 -47 -23 -112 -43 -65 -21 -140 -48 -167 -62 -65 -33 -148 -113
-191 -183 -68 -113 -127 -351 -111 -454 9 -55 26 -106 36 -106 12 0 19 23 35
133 21 140 80 261 171 352 48 49 59 44 29 -14 -164 -324 -180 -659 -45 -927
50 -99 100 -165 100 -132 0 9 -10 60 -21 114 -13 62 -23 153 -26 241 -5 126
-3 149 16 213 12 40 25 69 29 65 4 -3 9 -88 13 -188 7 -221 11 -235 143 -467
51 -91 99 -176 106 -190 7 -13 19 -71 26 -128 13 -108 24 -136 46 -114 10 10
13 65 13 210 -1 196 -1 197 -33 286 -17 49 -30 91 -28 93 4 4 89 -148 138
-248 15 -31 46 -122 68 -202 63 -230 89 -276 200 -362 71 -55 218 -145 237
-145 27 0 12 30 -31 60 -54 39 -91 89 -149 205 -61 122 -77 181 -77 289 0 96
6 100 34 23 26 -69 92 -154 229 -292 111 -111 131 -126 217 -168 180 -87 455
-158 455 -117 0 10 -31 25 -93 46 -109 37 -179 82 -264 173 -85 90 -158 201
-133 201 13 0 75 -37 218 -129 84 -54 177 -112 207 -129 104 -58 333 -126 495
-147 33 -4 76 0 125 11 88 19 180 52 180 63 0 5 -62 11 -137 14 -192 8 -379
64 -508 153 -35 23 -81 52 -104 63 -49 25 -62 43 -24 32 16 -5 102 -31 193
-59 186 -57 276 -72 423 -72 204 0 389 39 554 115 122 56 91 70 -82 35 -55
-11 -156 -23 -225 -26 -118 -6 -132 -4 -242 25 -122 32 -261 81 -292 104 -16
12 -2 13 91 9 172 -7 630 32 743 64 30 9 114 41 185 71 119 52 136 56 199 55
58 -2 67 0 56 12 -45 55 -285 69 -485 27 -129 -26 -309 -39 -319 -23 -4 7 15
15 51 22 32 7 114 34 183 60 138 53 177 62 390 85 127 14 154 20 215 50 39 19
108 65 155 103 153 124 156 144 17 93 -149 -54 -206 -68 -317 -74 l-105 -6
125 60 c113 56 133 69 211 148 89 90 149 187 149 242 0 60 -40 45 -102 -38
-84 -111 -275 -239 -344 -231 -28 3 -27 4 26 34 141 80 217 169 379 443 55 92
119 187 143 210 64 65 147 101 231 101 83 0 90 18 18 49 -57 24 -138 27 -191
7 -19 -7 -44 -17 -55 -20 -38 -14 84 92 162 141 l78 48 112 0 c83 -1 113 2
113 11 0 21 -51 54 -109 70 -101 27 -99 22 -35 94 141 162 251 395 228 486 -9
34 -25 26 -52 -26 -40 -80 -95 -170 -103 -170 -13 0 112 341 226 617 88 213
71 238 -50 74 -44 -60 -81 -105 -83 -100 -6 15 65 251 103 339 36 87 70 147
139 245 22 30 37 58 34 61 -10 9 -62 -22 -117 -72 -28 -25 -54 -44 -58 -41 -9
10 65 132 147 243 104 139 106 154 7 84 -70 -48 -74 -36 -22 66 63 127 174
228 327 298 66 31 105 42 237 64 95 16 50 52 -76 60 -45 2 -83 8 -83 12 0 4
22 17 50 29 169 73 483 29 575 -81 23 -27 26 -39 22 -72 -9 -67 -68 -95 -104
-49 -15 19 -47 13 -51 -9 -4 -23 53 -58 96 -58 98 0 210 128 188 215 -4 15
-30 52 -59 82 l-52 56 35 -8 c60 -12 157 -64 188 -100 58 -65 71 -194 27 -259
-21 -30 -22 -38 -10 -42 22 -9 59 19 95 71 64 93 74 148 40 215 -31 60 -6 50
70 -27 45 -47 80 -96 112 -158 73 -143 82 -184 74 -355 -6 -129 -4 -153 14
-219 57 -204 140 -297 409 -456 146 -87 175 -113 198 -178 27 -77 24 -291 -5
-408 -23 -95 -90 -258 -135 -332 -20 -34 -27 -55 -23 -72 9 -36 -17 -89 -68
-139 -36 -34 -46 -51 -46 -76 0 -18 -5 -72 -12 -121 -10 -78 -9 -92 6 -134 20
-50 77 -115 102 -115 13 0 14 7 8 43 -13 69 -8 109 18 129 33 25 36 23 43 -29
20 -145 61 -215 156 -262 89 -44 176 -40 100 5 -38 23 -70 82 -78 142 -5 46
-3 52 25 82 29 30 30 34 18 59 -10 18 -13 62 -12 143 1 99 4 120 19 135 18 17
19 17 32 -1 21 -29 29 -101 17 -169 l-10 -62 38 -32 c41 -36 74 -103 84 -175
9 -60 37 -95 100 -124 55 -26 120 -31 161 -12 33 15 32 25 -7 46 -18 9 -45 30
-61 45 -29 27 -29 30 -23 95 10 96 10 95 -18 137 -15 22 -26 52 -26 72 0 19
-6 46 -14 61 -19 36 -25 184 -9 189 16 6 69 -51 82 -89 6 -15 16 -41 22 -57 7
-19 23 -33 49 -44 34 -13 41 -21 51 -60 16 -66 38 -82 113 -82 109 1 211 66
232 149 5 22 3 32 -11 42 -15 11 -24 10 -56 -6 -50 -26 -64 -25 -86 6 -10 14
-32 44 -49 68 -17 23 -34 58 -38 77 -8 38 -25 62 -76 101 -33 26 -35 29 -36
100 -2 61 -18 124 -99 383 -132 422 -162 523 -170 569 -9 52 -41 81 -104 95
-95 20 -131 62 -131 151 0 66 17 105 83 187 30 38 73 97 96 132 47 74 51 65
27 -61 -19 -94 -36 -133 -86 -197 -23 -29 -39 -55 -37 -58 16 -16 131 41 184
90 18 17 35 29 37 26 7 -7 -59 -164 -83 -198 -26 -37 -26 -39 4 -71 14 -15 34
-49 44 -76 14 -35 25 -50 41 -52 19 -3 20 -7 13 -35 -17 -66 -6 -134 33 -217
49 -105 59 -113 80 -64 27 65 64 243 76 372 22 224 -22 505 -106 677 -71 148
-267 395 -393 497 -196 158 -448 277 -721 339 -289 65 -634 18 -997 -137 -209
-89 -351 -179 -482 -308 -51 -49 -93 -85 -93 -79 0 19 83 136 143 199 95 102
338 280 478 350 160 81 337 120 592 130 342 14 612 -38 872 -169 122 -61 186
-103 335 -222 278 -223 414 -405 505 -677 53 -158 68 -279 62 -483 -8 -237
-33 -378 -124 -687 l-46 -158 12 -102 c17 -136 23 -152 82 -226 57 -72 64 -71
98 7 23 54 71 232 71 264 0 28 13 12 25 -31 26 -91 44 -18 44 181 l1 137 41
-27 c44 -29 100 -36 121 -15 10 10 9 18 -4 40 -59 95 -62 105 -62 192 0 89 11
294 20 368 5 37 8 41 20 31 8 -7 27 -32 41 -56 22 -37 24 -51 19 -93 -7 -56 4
-65 30 -25 23 35 14 163 -20 272 -32 107 -92 257 -123 311 -14 24 -22 46 -19
49 8 8 108 -53 158 -97 25 -22 60 -62 78 -90 18 -27 37 -47 42 -44 18 11 0
105 -31 169 -43 87 -90 136 -204 214 -101 69 -217 175 -205 187 8 8 169 -38
270 -78 43 -16 100 -45 128 -64 60 -41 64 -27 12 37 -53 67 -82 88 -226 163
-71 36 -163 89 -205 117 -76 51 -76 51 -136 171 -60 120 -92 158 -137 158 -22
0 -68 21 -68 30 0 4 20 11 45 14 l45 7 0 52 c0 94 -3 97 -79 97 -70 0 -248 24
-259 35 -13 13 25 24 107 30 119 9 116 8 119 32 5 32 -39 69 -101 84 -72 18
-168 14 -327 -11 -191 -30 -245 -16 -178 46 49 45 262 115 371 122 42 2 80 8
82 13 15 23 -114 59 -215 59 -100 0 -188 -26 -368 -107 -125 -57 -157 -68
-214 -71 -87 -5 -88 7 -8 82 53 48 72 59 155 85 52 16 129 37 172 47 43 9 87
21 98 27 18 10 18 10 -5 19 -49 19 -201 21 -278 4 -94 -20 -155 -48 -283 -131
-108 -69 -286 -161 -295 -152 -3 3 21 25 53 50 128 100 172 175 180 311 3 47
1 91 -4 101 -9 16 -12 14 -30 -11z"/>
<path d="M8616 6623 c-15 -101 -14 -108 20 -111 38 -4 102 21 110 43 10 26
-16 73 -51 89 -55 26 -72 21 -79 -21z"/>
<path d="M7020 6643 c-8 -3 -35 -14 -59 -24 -51 -22 -46 -38 20 -58 48 -14 69
-53 69 -126 0 -86 27 -105 87 -59 60 46 96 147 73 205 -22 52 -125 85 -190 62z"/>
<path d="M10575 6600 c-9 -15 13 -40 35 -40 22 0 44 25 35 40 -3 5 -19 10 -35
10 -16 0 -32 -5 -35 -10z"/>
<path d="M8844 6586 c-13 -33 0 -61 29 -64 28 -3 57 12 57 29 0 17 -40 49 -60
49 -11 0 -23 -6 -26 -14z"/>
<path d="M6765 6509 c-50 -25 -72 -46 -60 -57 6 -5 32 -15 58 -22 51 -14 84
-45 93 -89 16 -77 42 -90 86 -43 55 59 62 107 23 165 -46 68 -122 85 -200 46z"/>
<path d="M6616 6330 c-90 -35 -117 -84 -51 -95 19 -3 50 -7 69 -10 29 -5 40
-15 67 -58 37 -61 47 -69 71 -56 33 18 51 146 27 191 -13 24 -67 48 -106 48
-15 -1 -50 -9 -77 -20z"/>
<path d="M2253 6310 c-35 -14 -28 -36 22 -70 25 -17 45 -35 45 -40 0 -5 12
-22 26 -39 19 -22 45 -36 97 -52 40 -11 83 -28 96 -36 l23 -15 -42 -43 c-23
-24 -39 -48 -36 -54 11 -17 75 -31 175 -38 l94 -6 -5 61 c-12 123 -123 266
-245 312 -64 25 -213 37 -250 20z"/>
<path d="M2021 6244 c-18 -23 -61 -139 -61 -165 0 -36 98 -24 208 26 45 21 52
28 52 53 0 34 -38 74 -92 96 -54 23 -83 20 -107 -10z"/>
<path d="M2726 6261 c-3 -4 22 -39 55 -77 103 -118 128 -196 100 -315 -8 -36
-7 -38 73 -118 45 -45 89 -81 98 -81 44 0 138 209 138 307 0 98 -80 202 -185
241 -110 41 -266 65 -279 43z"/>
<path d="M5302 6151 c-29 -15 -31 -19 -19 -30 27 -22 221 -94 257 -95 32 -1
35 1 38 31 5 48 -12 69 -73 92 -69 26 -157 27 -203 2z"/>
<path d="M3230 6146 c0 -8 11 -38 25 -68 51 -110 17 -286 -76 -392 l-30 -35
26 -7 c15 -4 75 -3 133 0 106 7 107 8 145 44 50 48 95 116 108 164 33 124
-108 268 -293 302 -30 5 -38 4 -38 -8z"/>
<path d="M6408 6129 c-32 -16 -58 -34 -58 -39 0 -5 -13 -25 -30 -43 l-30 -34
83 -7 c131 -11 197 -57 216 -149 10 -45 27 -44 52 5 29 56 32 156 5 211 -43
88 -135 110 -238 56z"/>
<path d="M2320 6055 c-170 -32 -306 -96 -450 -211 -88 -71 -196 -134 -229
-134 -8 0 21 35 65 78 97 94 194 218 194 246 0 15 -29 -1 -143 -77 -72 -49
-159 -97 -208 -117 -110 -44 -179 -78 -179 -89 0 -5 16 -15 35 -21 46 -15 44
-34 -5 -65 -65 -41 -55 -58 45 -70 28 -3 63 -9 80 -12 l29 -5 -38 -20 c-79
-41 -13 -94 171 -139 l96 -23 -34 -29 c-19 -16 -65 -50 -104 -77 -87 -60 -138
-112 -133 -136 2 -11 18 -24 38 -30 l35 -12 -25 -11 c-14 -5 -63 -20 -110 -32
-118 -30 -138 -42 -142 -81 -3 -31 -6 -33 -49 -39 -52 -8 -135 -47 -162 -77
-12 -13 -17 -32 -15 -54 3 -29 0 -33 -22 -36 -98 -10 -113 -15 -149 -47 -21
-19 -46 -53 -56 -75 -16 -36 -29 -46 -91 -76 -44 -21 -82 -47 -96 -66 -13 -17
-47 -54 -76 -82 -28 -28 -52 -58 -52 -67 0 -23 21 -39 51 -39 45 0 184 48 204
70 18 20 18 21 -13 32 -18 7 -32 16 -32 20 0 16 67 41 130 48 72 9 196 28 250
38 41 8 51 35 20 52 -12 6 -55 14 -95 17 -94 7 -107 15 -77 45 21 21 32 23
175 26 83 2 175 4 202 5 28 0 87 -3 133 -7 72 -8 82 -7 82 7 0 28 -80 64 -204
92 l-120 28 23 18 c28 23 46 23 239 3 148 -16 155 -16 280 5 70 11 144 21 164
21 71 0 56 44 -21 61 -23 5 -115 13 -204 19 -160 9 -197 14 -197 30 0 13 49
29 190 60 161 36 216 53 261 75 58 30 182 164 232 252 46 81 66 102 128 136
39 21 29 36 -27 43 -48 6 -61 -2 -192 -123 -114 -105 -163 -133 -244 -143 -56
-6 -78 2 -39 15 11 3 93 76 182 161 269 259 316 289 449 289 92 0 204 -30 263
-69 47 -32 95 -101 113 -164 31 -105 -9 -221 -97 -279 -56 -37 -152 -45 -189
-15 -24 20 -25 20 -6 41 11 12 25 21 33 21 16 0 17 12 1 28 -19 19 -46 14 -80
-17 -25 -22 -32 -37 -32 -64 0 -70 72 -117 178 -117 76 0 141 29 213 94 62 56
98 126 114 223 10 60 9 78 -5 120 -37 112 -149 254 -245 311 -47 28 -147 51
-222 52 -26 0 -86 -7 -135 -15 -122 -21 -207 -65 -319 -165 -110 -99 -189
-162 -232 -184 -35 -17 -93 -22 -93 -7 0 16 346 336 405 375 70 47 176 92 271
116 82 20 93 25 78 40 -17 17 -88 19 -164 5z"/>
<path d="M5696 6044 c-3 -8 -6 -36 -6 -61 0 -39 5 -50 33 -77 19 -17 60 -44
91 -60 55 -27 58 -27 77 -10 22 20 25 67 6 101 -20 36 -112 98 -173 117 -15 5
-24 2 -28 -10z"/>
<path d="M3646 5954 c-3 -8 -6 -50 -6 -92 0 -104 -26 -160 -109 -231 -52 -45
-59 -56 -49 -68 30 -36 279 10 326 60 24 25 52 97 52 134 0 36 -34 95 -78 135
-74 66 -125 90 -136 62z"/>
<path d="M6213 5896 c-47 -22 -133 -97 -133 -116 0 -5 45 -10 99 -12 95 -3
101 -4 131 -33 18 -16 49 -55 69 -85 42 -63 82 -77 115 -41 45 49 41 147 -9
219 -62 90 -167 116 -272 68z"/>
<path d="M10227 5800 c-23 -19 -27 -29 -27 -75 0 -30 4 -56 9 -59 31 -20 74
49 69 108 -4 47 -16 53 -51 26z"/>
<path d="M3925 5740 c-3 -5 -15 -35 -26 -67 -39 -113 -87 -170 -161 -188 -39
-10 -35 -33 9 -52 54 -22 247 -15 286 11 80 54 72 167 -18 275 -27 31 -76 43
-90 21z"/>
<path d="M6141 5664 c-96 -34 -208 -123 -278 -221 -67 -94 -205 -397 -248
-544 -75 -256 -108 -355 -132 -403 -34 -67 -109 -146 -139 -146 -13 0 -24 5
-24 10 0 6 25 57 55 113 60 114 128 304 147 415 11 63 10 85 -4 153 -17 83
-45 150 -64 156 -7 2 -13 -33 -17 -104 -7 -120 -45 -288 -84 -371 -14 -30 -56
-85 -99 -130 -80 -82 -79 -83 -49 26 14 52 12 82 -6 82 -5 0 -34 -24 -65 -54
-54 -54 -102 -79 -176 -91 -45 -7 -47 -18 -13 -85 14 -28 22 -50 17 -50 -4 0
-38 34 -75 75 -85 94 -116 111 -168 96 -54 -16 -120 -95 -159 -187 -38 -92
-70 -213 -70 -266 0 -35 4 -41 34 -53 31 -13 35 -20 41 -62 12 -94 33 -113
122 -113 42 0 45 2 39 23 -3 12 -8 67 -11 122 -5 80 -2 110 12 150 15 41 23
51 45 53 37 4 79 -20 142 -82 98 -99 135 -216 102 -329 -17 -60 -33 -70 -76
-47 -49 26 -79 132 -45 160 31 26 3 80 -41 80 -36 0 -44 -20 -44 -104 0 -87
15 -131 64 -196 15 -19 31 -51 36 -71 8 -29 18 -40 51 -55 67 -30 86 -50 114
-123 30 -81 45 -97 73 -82 35 19 86 158 107 294 9 59 25 33 25 -41 0 -95 -15
-176 -61 -339 -47 -163 -48 -201 -5 -222 38 -18 131 0 207 40 60 32 153 109
170 141 18 34 -4 42 -51 18 -66 -33 -121 -51 -142 -44 -28 8 -22 24 15 36 156
55 286 162 367 304 54 95 130 279 130 317 0 54 -19 35 -109 -108 -84 -134
-191 -237 -259 -251 -48 -10 -41 10 38 101 39 44 70 84 70 89 0 5 -15 5 -32 1
-58 -14 -92 -11 -96 7 -4 19 35 58 57 58 29 0 135 57 188 100 93 77 175 215
212 360 10 41 28 138 40 216 27 178 51 266 106 381 24 50 41 94 38 97 -10 10
-60 -23 -92 -59 -71 -81 -100 -142 -181 -375 -103 -301 -117 -329 -205 -415
-99 -98 -173 -140 -244 -140 -49 0 -56 2 -56 20 0 14 22 33 79 67 118 70 167
124 231 253 58 118 89 226 100 355 17 205 67 422 130 564 60 135 180 277 283
334 l41 22 27 -35 c24 -32 26 -39 16 -71 -9 -29 -8 -36 5 -41 21 -8 39 18 53
77 15 63 0 96 -55 126 -56 31 -102 36 -154 18z"/>
<path d="M10285 5579 c-22 -23 -70 -61 -107 -85 -38 -24 -68 -51 -68 -59 0
-23 75 -67 122 -72 53 -5 103 20 136 67 32 47 29 97 -8 148 -17 23 -31 42 -33
42 -2 0 -21 -19 -42 -41z"/>
<path d="M2634 5539 c-71 -9 -145 -34 -235 -81 -95 -48 -125 -78 -209 -203
-115 -171 -159 -200 -375 -250 -66 -15 12 -28 209 -36 132 -5 217 -13 249 -23
40 -13 47 -13 47 -1 0 16 -62 82 -100 107 -25 17 -25 17 27 17 28 1 104 -8
168 -19 139 -24 125 -23 125 -6 0 8 -27 37 -59 65 -72 62 -80 87 -49 150 32
64 76 91 149 91 48 0 63 -5 89 -27 37 -31 47 -27 93 30 42 52 48 113 13 154
-29 35 -62 42 -142 32z"/>
<path d="M7440 5505 c-10 -13 -10 -19 4 -33 23 -27 20 -59 -8 -78 -14 -8 -64
-22 -113 -30 -152 -24 -196 -36 -255 -65 -96 -48 -211 -169 -185 -195 3 -3 14
0 26 7 39 25 34 -3 -19 -106 -29 -58 -51 -108 -48 -111 5 -4 93 89 157 166
l21 25 -6 -31 c-3 -17 -2 -34 4 -38 13 -8 68 37 132 107 29 31 56 57 61 57 5
0 9 -11 9 -25 0 -46 25 -33 146 70 48 41 91 75 96 75 4 0 7 -10 5 -22 -5 -49
87 -23 148 42 17 17 51 43 78 57 26 15 47 32 47 39 0 13 -119 65 -190 82 -90
22 -97 22 -110 7z"/>
<path d="M7978 5508 c-3 -7 -2 -24 2 -38 7 -30 38 -34 54 -7 9 15 7 22 -13 38
-27 22 -37 24 -43 7z"/>
<path d="M4150 5486 c0 -8 -21 -37 -46 -65 -45 -51 -70 -63 -156 -76 -21 -3
-40 -11 -44 -17 -10 -16 75 -90 137 -118 l50 -24 44 22 c58 28 97 94 103 172
4 49 1 60 -23 88 -27 33 -65 43 -65 18z"/>
<path d="M1168 5480 c-25 -15 -22 -32 8 -61 24 -22 33 -24 127 -22 l102 1 -47
-18 c-88 -33 -211 -143 -327 -292 -53 -68 -94 -100 -143 -112 -15 -3 -29 -15
-33 -25 -3 -11 -16 -21 -28 -23 -14 -2 -29 -17 -40 -40 -14 -28 -25 -38 -43
-38 -18 0 -24 -5 -24 -23 0 -34 -18 -54 -85 -91 -47 -26 -60 -38 -60 -57 0
-27 -30 -46 -87 -55 -44 -8 -45 -12 -17 -48 12 -15 20 -28 18 -29 -2 -2 -17
-7 -34 -13 -22 -7 -29 -15 -27 -31 2 -18 -3 -21 -48 -25 -61 -6 -68 -12 -46
-37 27 -29 12 -41 -43 -34 -56 6 -71 -7 -41 -37 11 -11 20 -22 20 -25 0 -3
-22 -5 -50 -5 -27 0 -50 -4 -50 -8 0 -11 50 -57 77 -71 28 -14 171 -14 228 0
24 6 51 19 60 29 16 18 14 20 -24 46 -23 14 -41 28 -41 30 0 7 96 113 320 354
131 140 278 302 327 360 50 58 120 129 157 158 63 52 187 122 214 122 7 0 29
7 49 15 l36 15 -28 22 c-53 42 -152 70 -260 75 -62 2 -107 0 -117 -7z"/>
<path d="M1206 5353 c-4 -9 -2 -21 3 -26 14 -14 42 10 34 29 -7 19 -29 18 -37
-3z"/>
<path d="M6095 5354 c-16 -8 -42 -27 -57 -41 -32 -31 -75 -109 -65 -119 4 -4
30 -2 58 4 28 7 74 12 103 12 50 0 85 -16 162 -75 20 -14 27 0 32 60 4 48 1
61 -22 96 -15 22 -41 49 -59 59 -39 24 -110 26 -152 4z"/>
<path d="M10368 5342 c-76 -30 -82 -44 -43 -90 33 -39 77 -57 104 -43 38 21
56 153 21 158 -8 1 -45 -10 -82 -25z"/>
<path d="M8225 5301 c-13 -28 -26 -65 -27 -83 -3 -27 1 -34 18 -36 26 -4 94
57 94 84 0 23 -36 84 -50 84 -5 0 -21 -22 -35 -49z"/>
<path d="M1077 5319 c-9 -32 -8 -79 3 -104 7 -19 9 -18 19 8 7 17 18 27 31 27
27 0 49 45 31 63 -10 9 -15 9 -24 -4 -9 -15 -13 -14 -32 9 l-22 25 -6 -24z"/>
<path d="M1488 5301 c-108 -46 -230 -133 -310 -222 -82 -90 -134 -162 -120
-167 19 -6 168 90 189 123 16 24 39 39 84 56 34 14 65 31 69 39 34 75 53 98
111 138 35 23 68 47 73 52 19 19 -29 10 -96 -19z"/>
<path d="M8342 5258 c3 -56 5 -63 25 -66 46 -7 50 62 6 110 -27 30 -34 20 -31
-44z"/>
<path d="M7965 5296 c-17 -12 -18 -18 -6 -72 19 -83 19 -84 35 -84 16 0 56 96
56 134 0 36 -49 49 -85 22z"/>
<path d="M4270 5243 c-30 -58 -72 -87 -162 -114 -37 -12 -71 -25 -74 -31 -9
-14 117 -135 149 -143 39 -10 107 2 145 26 42 25 62 73 65 154 2 56 -1 68 -28
107 -43 60 -64 60 -95 1z"/>
<path d="M7811 5226 c-15 -18 -4 -64 21 -79 23 -15 66 0 84 29 15 22 15 27 2
40 -23 23 -91 30 -107 10z"/>
<path d="M7620 5215 c-9 -11 -7 -28 10 -81 14 -40 20 -79 17 -98 -12 -74 30
-69 82 10 52 79 33 151 -47 174 -47 13 -47 13 -62 -5z"/>
<path d="M952 5173 c-7 -2 -17 -13 -22 -23 -8 -15 -6 -21 9 -30 36 -19 75 17
50 46 -12 15 -16 16 -37 7z"/>
<path d="M8225 5094 c-90 -100 -199 -191 -203 -169 -4 16 50 95 92 134 40 37
34 51 -21 51 -58 0 -75 -13 -162 -122 -86 -108 -94 -106 -61 14 25 92 26 121
3 116 -18 -3 -67 -73 -133 -188 -27 -49 -56 -79 -146 -151 -62 -49 -115 -89
-118 -89 -16 0 0 26 64 102 75 88 75 97 4 83 -36 -6 -116 -79 -254 -230 -73
-80 -89 -73 -46 21 27 58 59 103 138 193 26 30 48 63 48 73 0 18 -2 17 -39 -1
-21 -11 -53 -32 -70 -47 -40 -33 -250 -314 -309 -411 -57 -96 -74 -107 -65
-45 3 19 30 70 59 114 29 45 51 85 48 90 -9 14 -64 -24 -108 -74 -56 -65 -106
-150 -156 -266 -73 -169 -147 -315 -185 -364 -69 -89 -11 -50 120 83 217 218
330 306 610 474 276 165 413 223 714 301 324 83 322 82 360 196 45 133 22 157
-63 64 -87 -95 -105 -91 -61 14 25 59 33 110 17 110 -5 0 -40 -34 -77 -76z"/>
<path d="M7428 5154 c-29 -9 -27 -31 8 -85 19 -29 34 -60 34 -69 0 -27 30 -60
54 -60 47 0 85 76 67 133 -17 50 -52 79 -103 83 -24 1 -50 0 -60 -2z"/>
<path d="M815 5123 c-38 -19 -85 -63 -85 -79 0 -22 33 -26 53 -5 18 17 22 18
53 5 39 -17 49 -7 40 41 -9 47 -25 57 -61 38z"/>
<path d="M6038 5097 c-84 -24 -192 -137 -161 -168 23 -23 98 -12 183 26 46 20
95 35 109 33 23 -3 26 -7 26 -45 0 -52 13 -65 56 -61 33 3 34 5 36 48 3 53
-28 123 -69 153 -34 25 -116 31 -180 14z"/>
<path d="M10445 5070 c-23 -15 -48 -20 -102 -20 -88 0 -92 -10 -33 -74 52 -57
108 -73 160 -48 42 20 65 75 52 125 -10 39 -35 44 -77 17z"/>
<path d="M7254 5065 c-9 -22 14 -79 40 -104 30 -28 60 -21 81 19 20 39 19 56
-5 80 -25 25 -107 29 -116 5z"/>
<path d="M7113 5010 c-29 -12 -29 -35 2 -85 14 -22 25 -47 25 -56 0 -28 33
-61 52 -54 50 19 76 131 40 175 -20 24 -84 35 -119 20z"/>
<path d="M4399 4953 c-8 -9 -34 -29 -58 -45 -39 -24 -55 -28 -117 -28 -75 0
-104 -6 -104 -21 0 -14 62 -81 104 -111 27 -19 51 -28 78 -28 42 0 108 23 120
43 11 17 10 207 -1 207 -5 0 -15 -8 -22 -17z"/>
<path d="M6958 4924 c-28 -8 -27 -28 3 -95 16 -35 29 -72 29 -82 0 -27 19 -57
34 -57 23 0 75 67 82 106 9 46 -4 82 -36 105 -26 19 -84 31 -112 23z"/>
<path d="M6845 4830 c-4 -6 -4 -23 -1 -38 6 -25 -2 -48 -34 -98 -12 -20 -11
-25 13 -54 15 -17 27 -40 27 -51 0 -31 18 -22 45 25 52 88 54 142 8 196 -25
31 -47 38 -58 20z"/>
<path d="M10433 4818 c-27 -7 -33 -13 -33 -37 0 -32 27 -61 57 -61 28 0 65 43
61 71 -4 28 -40 39 -85 27z"/>
<path d="M10210 4807 c0 -16 32 -47 48 -47 19 0 14 38 -7 50 -27 14 -41 13
-41 -3z"/>
<path d="M5860 4773 c-23 -9 -30 -24 -30 -68 0 -93 24 -108 52 -34 31 81 23
119 -22 102z"/>
<path d="M6091 4722 c-5 -10 -13 -45 -16 -78 l-7 -60 57 -22 c31 -12 61 -20
66 -16 24 14 -1 116 -39 157 -30 33 -50 39 -61 19z"/>
<path d="M8265 4710 c-214 -51 -559 -183 -718 -275 -131 -76 -445 -286 -527
-352 -78 -64 -277 -263 -322 -323 -14 -19 -54 -105 -87 -191 -47 -119 -75
-176 -121 -240 -33 -46 -60 -89 -60 -96 0 -11 89 -49 141 -60 24 -4 31 1 54
38 36 58 221 239 265 261 19 9 91 43 160 76 128 60 250 142 250 168 0 19 -10
18 -45 -7 -50 -34 -138 -75 -185 -87 -25 -6 -84 -20 -131 -31 -47 -11 -111
-31 -142 -45 -32 -14 -57 -22 -57 -18 0 14 175 180 248 236 87 66 215 145 303
186 111 51 174 62 339 58 l147 -3 74 -38 c92 -47 185 -116 222 -164 43 -58 36
-156 -16 -211 -34 -37 -75 -54 -108 -47 -35 8 -51 34 -59 95 -5 41 -9 47 -48
67 -53 26 -70 22 -132 -34 -39 -35 -53 -57 -66 -99 -50 -174 84 -307 295 -292
159 12 338 175 386 352 17 63 17 69 0 138 -47 196 -100 264 -255 328 -133 55
-222 73 -355 74 -133 0 -201 -13 -345 -68 -50 -18 -90 -30 -90 -27 0 6 50 38
150 94 59 33 187 85 275 110 98 28 482 37 595 13 144 -30 265 -117 320 -229
69 -142 56 -377 -28 -500 -48 -69 -154 -159 -270 -228 -129 -76 -170 -112
-193 -165 -15 -32 -16 -48 -8 -76 12 -46 77 -105 125 -114 53 -10 193 2 235
19 92 40 215 158 285 274 74 124 136 379 138 573 1 120 0 127 -27 176 -99 178
-234 278 -522 386 l-130 49 60 -5 c34 -3 117 -22 185 -42 69 -20 136 -39 150
-41 14 -3 -31 34 -100 82 -148 103 -154 108 -117 101 15 -3 39 -8 53 -12 26
-5 27 -4 20 37 -9 55 -57 153 -76 156 -8 1 -69 -11 -135 -27z"/>
<path d="M10277 4663 c-26 -25 13 -112 60 -136 112 -58 217 -33 242 58 19 70
-10 97 -74 70 -46 -19 -117 -19 -170 0 -46 17 -49 17 -58 8z"/>
<path d="M4396 4648 c-13 -7 -52 -9 -118 -4 -113 7 -115 5 -66 -68 37 -56 101
-106 135 -106 32 0 78 25 97 52 19 26 21 109 4 126 -15 15 -27 15 -52 0z"/>
<path d="M6723 4583 c-29 -20 -29 -36 3 -91 22 -37 28 -42 40 -31 17 19 39
102 31 122 -8 21 -45 21 -74 0z"/>
<path d="M1679 4449 c-37 -11 -85 -52 -91 -79 -2 -11 9 -14 64 -11 63 3 70 1
96 -26 19 -19 31 -43 35 -73 4 -25 12 -66 19 -91 9 -39 8 -53 -5 -88 -10 -23
-17 -59 -17 -81 0 -33 -7 -46 -43 -83 -26 -25 -46 -57 -50 -75 -9 -43 -31 -40
-53 6 -16 30 -19 60 -19 161 0 100 -3 125 -15 131 -8 5 -34 16 -58 26 -51 21
-102 74 -137 145 l-26 51 -47 -7 c-207 -29 -337 -109 -380 -234 -27 -77 -6
-92 55 -38 50 44 84 67 101 67 7 0 39 -25 71 -55 32 -30 75 -61 97 -68 26 -9
44 -24 53 -43 8 -16 29 -46 47 -67 27 -30 34 -45 34 -80 0 -26 10 -60 26 -90
35 -67 30 -91 -20 -95 -66 -6 -119 22 -190 100 -38 42 -66 65 -71 59 -13 -22
-85 -51 -123 -51 -22 0 -56 7 -77 16 -44 18 -53 12 -78 -52 -9 -23 -30 -63
-47 -90 -17 -27 -40 -79 -51 -116 -20 -64 -20 -71 -5 -114 22 -64 64 -134 81
-134 21 0 27 15 37 103 5 48 15 88 24 98 14 16 19 16 60 2 25 -8 59 -13 77
-10 20 3 45 -3 67 -14 19 -11 54 -19 77 -19 32 0 45 -5 53 -20 6 -11 29 -34
51 -49 37 -28 39 -30 22 -46 -15 -15 -30 -17 -113 -12 -52 3 -105 9 -116 12
-19 6 -23 2 -29 -34 -4 -22 -20 -61 -37 -86 -29 -43 -30 -49 -24 -113 10 -97
21 -123 74 -174 68 -66 119 -98 158 -98 43 0 43 11 0 63 -51 63 -70 105 -55
123 6 8 24 14 39 14 16 0 42 12 60 26 30 26 33 26 84 15 85 -19 103 -2 67 61
-45 77 -35 222 24 347 42 88 91 138 172 176 51 25 73 29 178 32 170 6 161 2
169 70 10 89 34 155 78 213 l41 54 -19 34 c-14 27 -18 53 -16 120 1 48 4 103
8 123 5 34 2 38 -49 77 -100 77 -247 117 -338 91z"/>
<path d="M6041 4441 c-6 -10 -13 -47 -17 -83 l-6 -64 40 -12 c23 -7 55 -24 72
-38 43 -37 60 -26 60 38 -1 69 -28 129 -72 156 -43 27 -64 28 -77 3z"/>
<path d="M4205 4409 c-4 -12 -4 -42 0 -67 17 -113 63 -164 129 -142 63 21 127
106 130 174 1 28 -2 31 -24 28 -109 -14 -121 -14 -163 7 -54 26 -64 26 -72 0z"/>
<path d="M10340 4362 c0 -58 2 -62 30 -77 45 -23 69 -18 111 24 37 36 52 82
31 95 -4 2 -44 7 -90 11 l-82 8 0 -61z"/>
<path d="M10190 4170 c0 -38 44 -135 73 -162 45 -42 104 -39 156 8 43 38 81
106 81 143 0 20 -3 22 -27 16 -66 -16 -95 -16 -162 -1 -95 22 -121 21 -121 -4z"/>
<path d="M5981 4118 c-39 -83 -38 -92 15 -132 26 -20 51 -36 55 -36 17 0 29
40 29 94 0 44 -5 60 -26 85 -14 17 -32 31 -39 31 -7 0 -22 -19 -34 -42z"/>
<path d="M4103 4095 c-108 -20 -167 -42 -231 -90 -107 -78 -186 -199 -180
-277 l3 -41 96 91 c99 93 159 132 203 132 45 0 55 -10 62 -62 9 -66 23 -78 93
-78 50 0 61 -4 86 -30 36 -38 84 -60 128 -60 83 0 113 -40 53 -69 -50 -23
-204 -42 -296 -35 l-85 6 -18 -50 c-21 -60 -64 -100 -118 -108 -49 -8 -59 -25
-87 -149 -51 -221 -54 -368 -12 -457 23 -50 99 -128 125 -128 19 0 19 4 -1 60
-12 34 -15 67 -11 130 6 94 33 226 49 236 5 3 20 -4 34 -17 21 -19 27 -21 47
-10 12 6 35 32 51 56 15 25 31 45 34 46 4 1 26 2 48 3 53 3 88 26 123 80 l27
43 64 -19 64 -20 76 37 c82 40 125 44 125 10 0 -19 -23 -39 -171 -145 -36 -26
-52 -47 -65 -82 -9 -26 -33 -69 -53 -95 -123 -165 -137 -202 -144 -376 -4
-127 -4 -128 26 -190 32 -64 115 -167 126 -156 4 3 1 38 -6 76 -10 59 -9 83 4
149 22 111 56 193 94 232 27 27 39 32 78 32 55 0 86 25 116 93 11 24 41 61 67
84 35 29 53 54 66 91 17 51 40 82 58 82 21 0 21 -36 0 -99 -12 -36 -25 -96
-28 -133 -5 -56 -2 -72 15 -101 20 -34 20 -35 1 -63 -10 -16 -21 -49 -24 -74
-23 -182 -45 -239 -122 -321 -25 -27 -43 -52 -40 -55 3 -4 22 -3 41 0 100 19
333 246 421 411 23 43 25 57 20 103 -5 40 -1 71 16 128 l22 75 -26 27 c-23 24
-27 37 -27 85 0 32 7 87 16 122 15 60 15 67 0 90 -9 14 -38 36 -65 50 -51 25
-54 31 -66 100 -8 47 -30 75 -60 75 -35 0 -52 22 -59 74 -7 58 -33 90 -85 107
-40 13 -51 24 -51 55 0 34 -41 63 -105 75 -69 13 -110 31 -119 54 -3 9 -6 36
-6 60 0 55 -16 65 -99 65 l-60 0 -12 40 -12 40 -81 -1 c-45 0 -113 -7 -153
-14z"/>
<path d="M10244 3926 c-3 -8 2 -29 11 -46 16 -31 16 -33 -5 -55 -12 -13 -38
-27 -58 -32 -46 -11 -51 -28 -13 -47 42 -22 114 -20 161 4 46 23 90 91 90 138
l0 32 -64 0 c-36 0 -76 4 -91 10 -20 7 -27 7 -31 -4z"/>
<path d="M5915 3767 c-49 -107 -41 -151 17 -89 39 41 51 70 43 108 -9 50 -32
43 -60 -19z"/>
<path d="M3543 3763 c-25 -37 -25 -188 0 -258 20 -58 104 -175 149 -206 41
-30 57 -18 86 62 26 74 46 94 100 102 43 7 78 38 68 62 -3 9 -22 23 -42 31
-37 16 -56 14 -161 -17 -88 -27 -151 42 -161 174 -3 37 -8 70 -13 73 -4 2 -16
-8 -26 -23z"/>
<path d="M10084 3695 c-9 -21 3 -77 22 -103 20 -29 85 -62 121 -62 55 0 116
57 138 129 7 23 7 23 -53 16 -46 -5 -75 -2 -129 14 -84 25 -92 26 -99 6z"/>
<path d="M1745 3616 c-141 -45 -219 -128 -276 -295 -25 -71 -24 -105 5 -166
23 -50 61 -93 72 -82 3 3 10 40 15 82 13 119 64 203 116 193 10 -2 26 -20 36
-41 19 -41 68 -77 105 -77 13 0 40 -13 60 -30 20 -16 55 -36 77 -43 l40 -14
-3 -69 -3 -69 51 -60 c37 -44 49 -66 46 -81 -7 -27 10 -42 66 -58 53 -16 64
-12 85 27 8 18 44 69 79 114 35 45 64 85 64 90 0 4 -27 39 -59 76 -38 44 -67
90 -82 129 -19 51 -30 65 -68 89 -128 78 -155 112 -170 218 l-6 46 -80 17
c-97 20 -118 20 -170 4z"/>
<path d="M10063 3493 c-3 -16 -7 -49 -7 -75 -1 -38 4 -52 27 -76 33 -34 95
-57 130 -48 31 7 124 90 132 117 11 33 -10 44 -100 50 -69 4 -90 10 -122 32
-48 33 -51 33 -60 0z"/>
<path d="M9960 3324 c-15 -18 -25 -103 -16 -139 4 -14 25 -39 48 -55 74 -54
158 -34 214 49 32 49 27 77 -10 60 -38 -18 -89 -2 -137 40 -63 54 -84 64 -99
45z"/>
<path d="M4306 3210 c-49 -33 -67 -40 -108 -40 l-49 0 -34 -72 -35 -73 43 -20
c23 -12 57 -32 75 -45 29 -21 34 -22 58 -10 53 29 156 179 170 247 6 29 3 34
-20 43 -37 14 -34 15 -100 -30z"/>
<path d="M1651 3227 c-19 -24 -41 -86 -41 -118 0 -66 135 -204 224 -229 54
-15 107 -7 131 20 17 19 17 23 2 82 -9 35 -18 74 -19 88 -3 21 -20 33 -103 75
-55 28 -116 60 -135 73 -41 26 -44 26 -59 9z"/>
<path d="M5585 3207 l-37 -37 21 -29 c12 -17 28 -46 36 -65 9 -20 20 -36 25
-36 34 0 43 142 11 181 l-19 23 -37 -37z"/>
<path d="M3614 3191 c-57 -35 -98 -103 -158 -261 -19 -51 -40 -98 -45 -103
-14 -14 -14 126 -1 198 5 28 13 71 16 98 7 46 6 47 -20 47 -58 0 -173 -154
-219 -293 -38 -117 -21 -374 34 -524 34 -89 116 -201 244 -329 108 -109 190
-171 216 -162 4 2 -8 39 -27 83 -63 141 -67 158 -67 315 0 165 12 235 93 532
52 192 74 313 64 356 -15 62 -69 80 -130 43z"/>
<path d="M5456 3105 c-26 -18 -61 -46 -77 -61 l-29 -28 26 -27 c29 -30 54
-104 55 -163 0 -23 4 -49 8 -59 6 -17 11 -14 44 22 57 63 80 117 80 186 0 68
-16 125 -41 148 -15 13 -22 12 -66 -18z"/>
<path d="M9523 2985 c3 -19 17 -57 31 -86 16 -31 26 -67 26 -95 0 -49 11 -55
49 -28 22 16 23 21 18 94 -6 95 -15 113 -67 134 -58 23 -63 21 -57 -19z"/>
<path d="M6410 2989 c-23 -41 15 -199 76 -320 62 -124 208 -221 454 -302 181
-60 270 -71 519 -64 340 9 525 45 850 166 195 73 410 164 469 197 47 28 51 43
23 83 -11 14 -27 52 -36 84 -9 31 -21 57 -26 57 -5 0 -48 -17 -96 -37 -80 -34
-98 -37 -200 -41 -62 -2 -113 -8 -113 -13 0 -5 26 -22 58 -38 l57 -30 -40 0
c-57 -1 -157 24 -215 54 -58 30 -60 30 -60 9 0 -9 33 -50 73 -92 39 -41 64
-72 54 -69 -10 4 -89 11 -175 17 -213 13 -269 20 -308 36 -44 18 -53 2 -17
-32 31 -30 118 -74 146 -74 9 0 17 -4 17 -10 0 -5 -19 -10 -42 -10 -47 0 -128
34 -220 93 -31 21 -62 37 -68 37 -28 0 2 -65 67 -143 48 -58 18 -59 -79 -1
-31 19 -71 48 -89 65 -39 36 -59 32 -59 -15 0 -50 16 -85 57 -124 l37 -34 -34
7 c-63 14 -294 97 -366 132 -39 19 -86 50 -105 69 -18 19 -37 34 -41 34 -4 0
-8 -15 -8 -32 0 -38 30 -94 68 -125 14 -12 24 -25 20 -28 -9 -9 -149 89 -198
139 -24 25 -48 46 -52 46 -17 0 -7 -63 17 -110 14 -28 21 -50 15 -50 -29 0
-165 228 -155 260 3 10 1 21 -5 25 -20 12 -40 -17 -52 -76 l-12 -60 -23 38
c-21 34 -23 51 -23 161 0 122 0 123 -26 132 -14 6 -47 10 -74 10 -40 0 -51 -4
-60 -21z"/>
<path d="M10030 2973 c-42 -54 -3 -80 68 -44 42 21 60 56 35 65 -38 15 -82 6
-103 -21z"/>
<path d="M5230 2909 c-30 -65 -30 -72 7 -131 13 -21 28 -58 35 -83 16 -58 35
-56 67 8 44 88 38 173 -16 237 -39 47 -59 40 -93 -31z"/>
<path d="M3990 2925 c-25 -26 -32 -97 -12 -117 15 -15 97 -14 116 1 23 20 29
66 12 99 -25 49 -78 57 -116 17z"/>
<path d="M4739 2897 c-21 -14 -40 -38 -49 -64 -20 -55 -45 -81 -92 -95 -81
-24 -73 -50 29 -99 74 -35 112 -35 129 1 41 85 46 107 34 142 -10 27 -10 43
-1 68 25 72 9 87 -50 47z"/>
<path d="M9795 2835 c-22 -8 -41 -15 -42 -15 -2 0 -3 -6 -3 -14 0 -26 52 -65
115 -86 60 -20 65 -20 102 -5 43 18 93 62 93 82 0 7 -12 15 -27 19 -16 3 -51
12 -80 20 -64 18 -107 17 -158 -1z"/>
<path d="M6222 2770 c-50 -12 -80 -45 -84 -94 -2 -34 -7 -42 -25 -44 -29 -4
-30 -34 -3 -102 12 -31 18 -61 14 -76 -5 -20 1 -32 35 -65 45 -42 148 -98 219
-119 63 -19 52 -33 -22 -25 -38 4 -66 3 -69 -3 -8 -11 72 -56 128 -71 22 -7
112 -18 199 -27 88 -8 161 -16 163 -18 2 -2 -9 -11 -24 -21 -46 -30 -153 -137
-153 -153 0 -18 10 -15 138 43 97 45 110 48 215 54 62 4 113 6 115 5 2 -1 -23
-18 -55 -37 -72 -44 -98 -71 -115 -121 -9 -27 -27 -49 -57 -70 -57 -40 -81
-86 -81 -154 0 -49 3 -55 45 -98 62 -62 85 -58 100 16 14 68 31 100 89 168 25
30 46 61 46 70 0 34 22 94 41 113 33 33 42 24 35 -36 -3 -30 -4 -55 -1 -55 2
0 11 21 18 48 12 39 18 47 38 47 25 0 27 -7 15 -70 -5 -27 -4 -28 8 -12 8 11
18 36 21 58 7 41 24 50 45 24 9 -11 9 -22 1 -46 -6 -18 -11 -37 -11 -43 1 -21
24 29 29 63 7 37 18 46 40 32 12 -8 13 -16 3 -47 -7 -23 -8 -43 -2 -53 8 -14
9 -14 15 2 9 22 28 22 63 0 22 -15 25 -15 15 -2 -15 18 -8 29 19 29 10 0 22
-10 27 -22 l8 -22 12 22 c17 31 98 32 124 1 10 -11 21 -18 24 -15 3 3 0 12 -6
20 -10 11 -9 16 5 24 22 12 54 4 54 -16 0 -9 7 -6 21 12 11 14 25 26 30 26 12
0 12 -57 -1 -65 -55 -34 95 -30 200 5 42 14 66 18 68 11 5 -16 22 -14 22 2 0
16 32 47 48 47 7 0 12 -13 12 -29 0 -17 5 -33 11 -36 16 -11 22 1 10 22 -14
27 5 60 57 100 61 47 75 44 57 -8 -17 -48 -19 -95 -5 -104 5 -3 26 17 46 45
41 57 59 56 51 -4 -6 -45 3 -30 25 44 12 43 20 50 161 144 81 54 149 97 151
95 2 -2 -18 -40 -45 -84 -27 -43 -49 -83 -49 -87 0 -33 78 25 223 164 l77 75
0 -59 c0 -32 4 -58 10 -58 12 0 45 51 104 166 25 50 58 102 73 115 l26 24 -7
-25 c-17 -58 -18 -145 -3 -165 15 -19 16 -19 34 14 19 35 53 80 116 155 21 25
36 49 33 55 -4 5 -30 17 -59 27 -28 9 -95 39 -147 66 -91 46 -97 48 -140 38
-25 -6 -146 -60 -270 -120 -252 -122 -375 -167 -578 -210 -354 -75 -700 -80
-972 -14 -189 46 -349 97 -395 126 -27 17 -73 44 -101 60 -82 45 -164 140
-268 311 -17 28 -28 30 -84 17z"/>
<path d="M9229 2749 c-35 -38 -37 -72 -4 -104 44 -45 98 -21 111 47 5 31 2 41
-20 62 -33 34 -52 33 -87 -5z"/>
<path d="M9680 2701 c-13 -25 -13 -67 1 -92 15 -30 89 -79 117 -79 45 0 102
23 140 56 47 41 37 53 -49 64 -71 9 -99 19 -144 49 -37 26 -51 26 -65 2z"/>
<path d="M5123 2574 c-18 -31 -33 -61 -33 -68 0 -6 17 -29 38 -49 35 -34 40
-36 52 -22 31 38 20 195 -14 195 -6 0 -26 -25 -43 -56z"/>
<path d="M4010 2594 c-45 -19 -73 -23 -157 -24 l-102 0 -20 -55 c-25 -67 -27
-151 -5 -183 78 -111 287 -36 370 134 29 60 27 84 -8 125 l-23 26 -55 -23z"/>
<path d="M9517 2485 c-39 -39 2 -111 78 -137 95 -32 176 -16 234 46 20 21 22
28 11 41 -7 8 -27 15 -44 15 -17 0 -51 10 -76 21 -62 29 -180 38 -203 14z"/>
<path d="M9361 2412 c-16 -16 -35 -47 -41 -70 -12 -37 -11 -45 11 -88 36 -72
66 -89 152 -89 60 0 80 5 124 29 57 31 73 53 45 63 -77 26 -145 69 -187 116
-65 71 -70 74 -104 39z"/>
<path d="M5985 2409 c-9 -27 24 -63 48 -53 21 8 22 23 1 52 -19 28 -41 28 -49
1z"/>
<path d="M4971 2396 c-24 -25 -20 -48 13 -75 19 -16 46 21 46 66 0 41 -26 45
-59 9z"/>
<path d="M4097 2322 c-56 -57 -206 -133 -309 -156 -56 -13 -23 -77 62 -122 26
-14 57 -19 120 -19 76 0 90 3 134 29 26 15 65 45 86 66 44 44 94 141 86 167
-8 24 -70 63 -110 70 -26 4 -37 -1 -69 -35z"/>
<path d="M9202 2288 c-30 -33 -72 -128 -72 -164 0 -47 51 -120 95 -134 51 -17
137 -6 202 25 73 36 82 67 20 80 -92 20 -177 100 -177 168 0 25 -17 47 -35 47
-6 0 -21 -10 -33 -22z"/>
<path d="M5992 2278 c-18 -24 -110 -227 -104 -232 23 -24 88 10 129 67 30 41
44 50 116 77 26 9 27 11 13 31 -38 54 -129 88 -154 57z"/>
<path d="M4296 2181 c-14 -27 -48 -77 -76 -111 -27 -35 -50 -69 -50 -77 0 -19
83 -17 122 3 41 21 126 101 144 136 20 38 18 75 -5 88 -11 5 -40 10 -65 10
-45 0 -46 -1 -70 -49z"/>
<path d="M8987 2149 c-45 -37 -83 -100 -93 -154 -3 -22 -12 -47 -19 -55 -21
-25 -26 -55 -12 -75 13 -16 14 -15 9 13 -6 42 6 40 53 -8 21 -22 55 -45 74
-51 64 -22 165 -10 254 28 34 15 37 19 37 59 0 24 -4 46 -10 49 -6 4 -10 -5
-10 -20 0 -33 -30 -31 -45 3 -11 24 -31 31 -22 7 10 -24 -11 -27 -33 -5 -11
11 -26 20 -34 20 -33 0 -86 111 -86 181 0 48 -13 49 -63 8z"/>
<path d="M6124 2111 c-68 -42 -103 -117 -83 -178 25 -77 89 -147 118 -129 6 4
18 31 27 61 8 30 20 57 25 61 6 3 14 17 19 30 11 27 61 62 103 71 50 10 27 46
-53 82 -56 26 -116 26 -156 2z"/>
<path d="M8739 1961 c-26 -27 -50 -62 -54 -79 -10 -49 12 -109 57 -154 l40
-40 94 4 c79 3 98 7 115 25 26 25 20 38 -22 47 -75 15 -139 86 -139 154 0 53
-12 92 -28 92 -9 0 -37 -22 -63 -49z"/>
<path d="M6350 1964 c-19 -8 -43 -16 -54 -18 -26 -4 -51 -83 -41 -133 7 -39
105 -148 126 -141 7 2 18 29 24 59 6 30 16 63 22 75 17 31 87 76 106 68 13 -5
17 0 17 21 0 14 -4 35 -10 45 -21 39 -125 52 -190 24z"/>
<path d="M8386 1922 c-10 -31 -33 -64 -61 -92 -50 -49 -65 -88 -65 -169 0 -49
3 -57 39 -92 39 -39 39 -39 120 -39 44 0 81 3 81 6 0 3 -15 23 -33 45 -43 49
-57 97 -57 191 0 41 -5 79 -11 85 -8 8 -7 25 4 62 19 65 4 67 -17 3z"/>
<path d="M6830 1910 c-8 -34 -9 -55 -3 -61 7 -7 12 10 17 47 8 73 2 80 -14 14z"/>
<path d="M8172 1935 c-14 -30 -16 -99 -3 -75 9 16 24 100 18 100 -2 0 -9 -11
-15 -25z"/>
<path d="M6720 1944 c0 -3 7 -21 16 -40 18 -37 39 -48 24 -11 -6 12 -13 30
-16 40 -6 16 -24 25 -24 11z"/>
<path d="M8534 1928 c-4 -13 -18 -39 -31 -59 -49 -74 -37 -217 20 -254 51 -32
198 -27 205 8 2 9 -18 44 -44 77 -46 58 -48 63 -55 148 -4 48 -8 88 -8 90 -1
2 -13 -6 -27 -17 -35 -28 -48 -26 -40 4 8 31 -10 33 -20 3z"/>
<path d="M8445 1889 c-4 -12 -2 -26 4 -32 8 -8 11 -2 11 21 0 37 -6 41 -15 11z"/>
<path d="M6635 1860 c-61 -7 -83 -19 -124 -65 -36 -41 -40 -78 -14 -132 21
-44 94 -93 140 -93 l33 0 0 63 c0 56 5 71 41 131 54 90 39 108 -76 96z"/>
<path d="M8100 1784 c-82 -69 -81 -150 2 -271 l29 -43 64 0 c40 0 65 4 65 11
0 6 -14 31 -32 57 -29 42 -32 54 -35 137 -2 49 -6 100 -9 113 -6 31 -44 29
-84 -4z"/>
<path d="M7070 1772 c-70 -38 -107 -155 -67 -216 23 -34 89 -65 139 -66 l38 0
-6 59 c-9 81 1 123 42 176 19 25 32 50 29 55 -11 18 -137 12 -175 -8z"/>
<path d="M7376 1775 c-70 -25 -146 -119 -146 -181 0 -71 94 -142 201 -151 71
-7 81 6 55 76 -24 67 -20 102 19 177 20 38 33 74 31 81 -7 17 -109 16 -160 -2z"/>
<path d="M7928 1770 c-45 -14 -107 -53 -124 -78 -9 -13 -16 -43 -16 -67 0
-103 94 -195 184 -180 48 8 58 28 28 60 -30 32 -42 100 -29 172 19 105 16 111
-43 93z"/>
<path d="M7618 1750 c-48 -26 -84 -73 -99 -133 -12 -43 -11 -49 7 -74 40 -54
99 -86 164 -91 90 -7 94 -3 69 60 -27 66 -29 160 -5 206 9 18 14 37 11 42 -11
17 -108 10 -147 -10z"/>
</g>
</svg>
