<?xml version="1.0" standalone="no"?>
<!DOCTYPE svg PUBLIC "-//W3C//DTD SVG 20010904//EN"
 "http://www.w3.org/TR/2001/REC-SVG-20010904/DTD/svg10.dtd">
<svg version="1.0" xmlns="http://www.w3.org/2000/svg"
 width="1280.000000pt" height="1140.000000pt" viewBox="0 0 1280.000000 1140.000000"
 preserveAspectRatio="xMidYMid meet">
<metadata>
Created by potrace 1.15, written by Peter Selinger 2001-2017
</metadata>
<g transform="translate(0.000000,1140.000000) scale(0.100000,-0.100000)"
fill="#2196f3" stroke="none">
<path d="M7720 11360 c25 -22 48 -40 52 -40 12 0 153 -194 179 -245 34 -70 34
-161 -1 -230 -23 -45 -29 -50 -75 -60 -27 -6 -60 -17 -71 -25 -27 -16 -70 -81
-85 -127 -15 -45 -6 -76 36 -122 30 -33 33 -40 20 -51 -20 -16 -19 -54 2 -121
22 -71 22 -238 -1 -384 -18 -113 -75 -397 -82 -404 -2 -2 -40 31 -86 73 -45
42 -117 100 -160 128 -63 42 -78 56 -79 77 0 14 -8 46 -18 71 -17 40 -17 47
-3 80 18 44 12 141 -14 196 -46 100 -214 222 -374 273 -76 24 -180 41 -180 30
0 -4 26 -22 59 -39 35 -19 93 -66 145 -118 125 -126 133 -142 114 -224 -10
-41 -15 -48 -35 -48 -47 0 -91 -27 -112 -69 -31 -60 -28 -118 10 -169 23 -32
27 -42 15 -42 -23 0 -21 -57 5 -133 53 -156 -10 -560 -161 -1032 -39 -121 -94
-303 -143 -470 -19 -67 -25 -75 -116 -162 -88 -85 -110 -100 -261 -179 -90
-47 -195 -106 -233 -132 -83 -55 -178 -157 -259 -274 -33 -48 -97 -127 -142
-175 -83 -88 -84 -88 -192 -127 -242 -87 -434 -179 -604 -290 -52 -35 -132
-84 -177 -111 -49 -29 -125 -89 -191 -151 l-110 -104 -61 0 -60 0 -41 60 -40
59 28 15 c16 8 34 21 40 29 10 12 8 16 -10 21 -13 3 -35 6 -50 6 -20 0 -28 7
-37 31 -6 18 -11 33 -11 35 0 1 19 12 43 23 47 23 177 126 177 140 0 15 -136
33 -215 29 -67 -3 -74 -2 -79 17 -12 43 -7 53 32 59 56 10 102 27 102 37 0 11
-73 49 -125 64 -34 10 -41 17 -48 49 -11 43 -4 66 19 66 20 0 196 74 231 97
l25 17 -23 9 c-13 5 -79 6 -146 3 l-123 -6 1 32 c1 54 11 66 84 102 39 19 62
35 53 35 -9 1 -40 6 -68 12 -47 10 -50 12 -50 43 0 30 3 33 47 44 46 13 253
132 310 178 48 40 20 46 -173 41 l-172 -5 -6 60 c-4 33 -6 61 -4 63 2 1 39 21
83 44 95 49 133 77 122 88 -5 4 -58 8 -118 8 -123 0 -110 -10 -124 95 l-7 45
84 57 c163 111 165 134 14 125 -56 -3 -111 -9 -123 -12 -17 -6 -25 -1 -37 24
l-16 31 92 69 c92 68 268 239 268 259 0 6 -4 13 -9 17 -11 6 -16 5 -265 -59
-99 -25 -187 -46 -196 -46 -10 0 -25 12 -35 26 -17 26 -17 26 34 78 28 28 51
55 51 59 0 14 -41 7 -99 -17 l-58 -23 -27 33 c-14 18 -26 35 -26 37 0 3 16 28
35 56 35 52 74 156 63 167 -10 9 -95 -32 -151 -72 -43 -31 -51 -34 -64 -21
-13 13 -11 20 13 57 27 40 29 52 31 152 3 97 1 108 -15 108 -26 0 -111 -53
-172 -107 l-55 -50 -59 35 c-52 31 -58 37 -52 61 3 14 12 58 20 96 9 39 16 89
16 113 0 40 -1 42 -21 30 -18 -12 -118 -137 -144 -183 -10 -16 -13 -16 -48 -2
-20 9 -37 20 -37 26 0 5 11 52 25 103 25 94 32 168 16 168 -16 0 -167 -165
-180 -198 -15 -36 -10 -36 -103 -11 -37 10 -38 11 -38 57 l-1 47 -39 -44 c-22
-24 -40 -42 -41 -40 0 2 -2 33 -4 69 -2 36 -8 76 -13 90 -9 25 -10 24 -40 -24
-17 -27 -36 -63 -42 -80 -9 -30 -12 -31 -55 -28 -39 4 -45 7 -45 26 0 31 -28
124 -40 131 -13 8 -32 -32 -45 -95 -15 -71 -38 -79 -53 -18 -13 48 -71 150
-89 156 -19 6 -31 -36 -39 -132 -4 -48 -10 -88 -13 -90 -3 -2 -23 -7 -43 -11
-36 -7 -37 -6 -61 42 -14 26 -34 56 -45 66 -20 18 -20 18 -32 -18 -6 -20 -10
-57 -8 -83 1 -26 -1 -49 -7 -50 -5 -2 -23 30 -40 72 -17 42 -38 85 -48 97 -22
26 -21 30 43 118 55 76 85 136 95 194 9 47 -6 49 -34 4 -11 -18 -48 -56 -83
-84 -83 -68 -166 -150 -208 -207 -19 -25 -40 -46 -46 -46 -13 0 -124 -109
-124 -122 0 -6 -9 -8 -20 -5 -16 4 -20 0 -20 -18 0 -24 -31 -50 -72 -60 -21
-5 -27 -1 -38 25 -18 42 -34 33 -38 -22 -2 -38 -9 -51 -39 -79 l-36 -32 -23
28 c-20 25 -24 27 -30 12 -3 -10 -3 -32 0 -50 8 -34 8 -129 0 -136 -3 -4 -21
4 -65 27 -16 8 -15 -28 2 -64 10 -21 18 -44 19 -50 0 -6 9 -19 20 -29 30 -27
25 -44 -33 -114 -43 -53 -80 -81 -217 -167 -156 -98 -167 -103 -224 -106 -53
-3 -62 -6 -73 -28 -28 -59 -43 -99 -43 -119 0 -11 -15 -53 -34 -93 -98 -208
-101 -230 -46 -307 17 -22 30 -45 30 -50 0 -18 32 -41 57 -41 26 0 27 12 8 62
-3 8 6 25 19 37 l25 24 60 -27 c65 -29 161 -46 161 -28 0 5 -21 24 -47 41 -46
29 -92 80 -61 68 7 -3 38 -11 69 -18 54 -12 57 -14 63 -47 4 -26 0 -43 -16
-64 -19 -27 -52 -118 -43 -118 2 0 19 10 38 23 19 13 72 35 119 50 109 35 156
67 247 167 82 91 145 141 242 194 79 43 281 116 322 116 68 0 100 30 182 170
61 106 91 145 132 175 23 16 48 43 55 58 9 19 26 31 51 39 21 6 43 20 48 30 6
11 21 18 37 18 16 0 33 5 39 11 8 8 21 8 49 -1 28 -10 39 -10 42 -2 2 7 21 0
47 -18 44 -30 75 -38 75 -20 0 6 18 1 40 -10 21 -11 45 -20 53 -20 8 0 30 -16
50 -35 20 -19 45 -35 56 -35 12 0 33 -19 56 -51 28 -39 39 -48 49 -40 11 9 19
-1 40 -45 23 -47 29 -54 42 -44 19 16 27 8 39 -43 8 -35 14 -41 32 -39 22 3
27 -7 35 -88 2 -19 8 -24 25 -23 21 2 21 2 7 -55 -19 -82 -19 -85 16 -77 37 8
38 -3 10 -93 -28 -89 -27 -104 8 -100 24 3 27 0 23 -22 -1 -13 -21 -58 -42
-98 -21 -41 -39 -83 -39 -94 0 -17 5 -20 30 -14 46 9 39 -17 -40 -139 -66
-101 -93 -160 -83 -177 2 -5 15 -8 29 -8 14 0 24 -6 24 -14 0 -8 -28 -56 -62
-107 -92 -140 -107 -189 -58 -189 35 0 24 -44 -33 -127 -94 -136 -105 -168
-61 -179 23 -6 26 -10 21 -40 -3 -18 -23 -59 -45 -91 -78 -115 -87 -148 -47
-163 14 -5 25 -14 25 -19 0 -10 -39 -44 -119 -103 -64 -48 -72 -64 -41 -87 30
-23 24 -32 -65 -96 -73 -52 -85 -73 -56 -97 12 -9 21 -20 21 -25 0 -5 -22 -25
-50 -46 -27 -20 -54 -46 -60 -57 -9 -17 -7 -22 15 -32 27 -12 29 -16 16 -37
-7 -10 -38 6 -137 72 -233 153 -336 256 -404 402 -21 44 -48 90 -61 102 -13
12 -67 44 -119 73 l-95 52 -110 -22 c-60 -12 -118 -23 -127 -25 -10 -2 -28 11
-43 31 -28 37 -55 43 -110 23 -48 -18 -121 12 -130 52 -10 43 -31 50 -105 32
-41 -9 -86 -13 -121 -9 -46 4 -61 2 -80 -13 -13 -10 -38 -21 -55 -25 -80 -18
-165 -101 -180 -175 -6 -29 -5 -33 9 -28 13 5 13 0 -4 -36 -19 -44 -26 -127
-10 -127 5 0 19 13 30 29 28 39 101 72 141 65 34 -7 33 -5 20 -59 -9 -40 -4
-85 9 -85 4 0 14 11 21 25 8 14 29 35 47 46 33 21 35 21 54 3 18 -16 25 -17
77 -5 31 7 78 18 104 24 l48 11 44 -46 c54 -57 157 -108 218 -108 24 0 60 -9
81 -20 20 -11 52 -20 71 -20 30 0 34 -3 39 -34 3 -19 22 -75 41 -124 49 -122
48 -160 -4 -209 -22 -21 -40 -41 -40 -45 0 -5 16 -8 35 -8 60 0 132 46 162
103 l14 29 53 -76 c88 -126 211 -269 332 -386 67 -63 110 -112 102 -114 -98
-29 -192 -68 -278 -116 -189 -106 -311 -157 -492 -209 -173 -49 -173 -49 -328
-49 -126 -1 -168 -5 -225 -22 -91 -26 -101 -26 -142 11 -29 24 -41 29 -62 23
-32 -9 -43 -8 -106 5 -46 10 -63 22 -85 61 -7 13 -16 12 -73 -3 -36 -9 -88
-17 -115 -17 -34 0 -57 -6 -74 -19 -13 -11 -36 -23 -50 -26 -35 -9 -95 -60
-115 -98 -8 -17 -27 -40 -41 -51 -47 -37 -78 -145 -53 -185 7 -11 13 -7 25 17
15 29 51 62 68 62 4 0 5 -20 2 -44 -4 -26 -2 -52 6 -66 l12 -23 13 29 c7 17
24 37 38 46 23 16 26 16 41 -1 16 -18 20 -18 112 6 l95 25 36 -33 c59 -52 136
-80 244 -90 54 -5 114 -16 134 -25 31 -13 46 -13 87 -4 59 15 68 9 102 -64 14
-29 46 -81 72 -116 57 -77 69 -134 35 -164 -31 -28 -28 -50 7 -41 43 11 91 45
108 76 8 16 19 67 25 113 11 93 3 123 -48 177 -24 26 -24 28 -9 58 29 56 43
58 371 64 427 7 603 39 854 157 69 32 140 60 156 62 27 3 30 0 30 -25 -1 -21
5 -29 22 -33 13 -4 23 -9 23 -13 0 -3 9 -12 21 -19 18 -12 24 -11 44 8 l23 21
21 -62 c29 -85 67 -149 91 -149 10 0 22 5 25 10 13 21 25 8 41 -47 29 -103 78
-168 99 -133 12 19 33 10 43 -17 6 -16 20 -60 32 -100 33 -107 91 -168 128
-131 12 12 16 5 55 -102 36 -96 89 -150 150 -150 25 0 32 -8 62 -75 19 -41 51
-109 70 -151 44 -95 82 -144 145 -185 l49 -32 -45 -37 c-62 -51 -139 -143
-179 -215 -19 -33 -48 -73 -64 -89 -21 -20 -34 -46 -42 -83 -16 -69 -3 -128
53 -243 34 -70 57 -101 132 -175 113 -112 148 -130 486 -244 275 -93 233 -72
548 -276 56 -37 102 -73 102 -81 0 -32 -91 -376 -121 -455 -108 -289 -129
-361 -129 -454 -1 -131 -10 -168 -40 -177 -36 -9 -124 -26 -205 -39 -65 -10
-94 -20 -245 -86 -30 -13 -73 -41 -95 -62 -142 -135 -205 -201 -205 -216 0
-13 3 -14 21 -3 12 7 31 19 43 25 30 18 102 17 109 -1 5 -12 39 -13 204 -9
179 4 212 8 343 38 288 67 324 75 327 71 3 -2 -9 -19 -25 -37 -16 -19 -36 -48
-45 -65 -15 -30 -18 -31 -66 -26 -48 4 -53 3 -89 -34 -21 -22 -44 -49 -52 -62
-11 -18 -32 -27 -84 -38 -85 -18 -156 -55 -216 -113 -25 -25 -64 -58 -88 -73
-45 -29 -92 -109 -92 -155 0 -32 13 -29 43 11 14 18 40 39 57 46 28 12 32 11
47 -9 12 -19 22 -22 48 -17 l32 6 -10 -45 c-6 -25 -7 -48 -3 -52 4 -5 27 14
51 42 24 27 45 48 47 45 2 -3 8 -14 14 -25 20 -36 86 -32 165 9 38 20 71 36
74 36 3 0 5 -11 5 -25 0 -35 17 -31 42 11 l21 36 18 -23 c15 -20 26 -24 66
-22 26 1 81 14 120 28 40 14 95 25 122 25 68 0 88 9 192 90 50 38 99 70 108
70 10 0 65 -16 122 -36 102 -35 147 -39 202 -18 13 5 22 -4 38 -40 11 -25 24
-46 28 -46 25 0 29 110 6 154 -8 15 -15 44 -15 62 0 76 -41 131 -126 170 -61
29 -80 64 -89 169 -7 81 -16 114 -57 209 -27 62 -30 78 -26 144 5 69 11 85
111 285 58 117 117 238 131 269 l25 58 38 -16 c21 -9 55 -32 76 -50 53 -49 71
-46 65 10 -9 80 -36 115 -138 183 -102 69 -246 197 -338 301 l-60 68 31 52 32
53 50 -6 c28 -3 69 -17 92 -31 51 -30 53 -30 53 0 0 59 -73 120 -166 137 -41
8 -248 89 -242 94 2 2 89 -1 193 -6 105 -5 219 -6 255 -3 149 15 330 89 460
189 l61 47 52 -32 c79 -47 219 -163 510 -417 144 -126 303 -262 352 -302 202
-162 587 -386 1100 -641 985 -488 1701 -735 2290 -790 61 -5 189 -10 285 -10
115 0 203 -6 255 -16 111 -21 493 -30 610 -15 74 10 121 25 259 84 146 62 173
77 201 112 61 75 125 200 299 581 229 503 311 675 417 880 49 94 89 180 89
191 0 28 -19 43 -55 43 -43 0 -55 -12 -121 -120 -32 -52 -142 -226 -245 -387
-103 -160 -233 -370 -289 -465 -152 -260 -314 -478 -374 -503 -55 -23 -224
-36 -322 -24 -744 83 -1321 254 -1994 589 -143 71 -598 319 -634 345 -17 13
-17 18 -6 65 7 28 10 53 8 55 -3 3 -23 -11 -45 -30 -23 -19 -44 -35 -48 -35
-6 0 -168 94 -184 106 -2 2 2 17 8 35 15 42 7 47 -29 21 -16 -12 -31 -22 -34
-22 -8 0 -215 131 -220 139 -3 4 1 29 9 56 8 26 15 61 15 77 l0 28 -48 -24
c-26 -13 -58 -33 -72 -44 l-24 -20 -39 26 c-32 21 -37 30 -32 50 23 93 19 98
-50 58 l-41 -25 -115 80 c-112 79 -114 81 -111 115 l4 35 -31 -15 c-28 -15
-31 -15 -56 7 l-27 22 58 112 c32 62 55 115 52 118 -10 10 -56 -17 -142 -84
-66 -50 -82 -59 -95 -49 -57 44 -123 103 -141 127 l-20 29 30 71 c32 78 47
141 34 141 -4 0 -43 -27 -86 -60 -42 -33 -79 -56 -82 -52 -3 4 11 48 30 96 20
48 33 90 30 94 -4 3 -35 -22 -69 -56 l-63 -62 -68 69 -68 69 56 73 c65 86 72
110 24 81 -93 -55 -150 -84 -155 -78 -4 3 3 24 15 45 32 57 27 65 -22 32 l-43
-30 -26 27 c-24 25 -25 30 -13 48 37 53 126 298 113 311 -11 10 -72 -43 -158
-137 -45 -49 -87 -90 -93 -90 -6 1 -24 11 -39 24 l-28 22 21 48 c21 50 25 76
12 76 -4 0 -24 -11 -44 -25 -20 -14 -39 -25 -40 -25 -2 0 10 44 28 98 42 126
49 162 33 162 -13 0 -68 -55 -147 -145 l-51 -60 -46 24 c-38 20 -44 27 -38 45
8 23 7 90 -2 144 -5 29 -8 32 -22 20 -9 -7 -37 -40 -61 -73 l-45 -60 6 45 c14
108 30 330 24 337 -20 19 -126 -120 -184 -242 -40 -86 -65 -94 -52 -17 19 117
8 136 -54 94 -24 -17 -56 -45 -70 -61 l-25 -30 -40 16 -41 16 38 56 c39 58 55
91 44 91 -3 0 -44 -27 -90 -61 -105 -74 -124 -73 -87 8 70 152 116 267 121
300 l6 37 -63 -45 c-35 -24 -105 -83 -155 -132 -51 -48 -95 -87 -97 -87 -2 0
-2 27 0 60 2 33 1 60 -3 60 -4 0 -35 -28 -71 -61 -63 -61 -64 -62 -89 -45 -14
9 -25 20 -25 25 0 5 16 33 36 62 39 58 114 202 114 219 0 20 -24 9 -124 -57
-55 -38 -104 -69 -108 -71 -3 -2 0 18 8 44 8 26 12 49 10 52 -3 2 -25 -10 -50
-27 l-45 -31 79 163 c89 183 120 259 120 288 0 19 -4 18 -42 -13 -23 -18 -88
-76 -143 -128 -55 -52 -115 -108 -133 -124 l-33 -31 -24 30 c-13 17 -24 33
-25 36 0 3 34 56 75 118 64 96 87 141 71 141 -8 0 -85 -34 -160 -71 -117 -58
-119 -56 -42 63 60 93 126 220 126 243 0 24 -16 18 -72 -30 -59 -51 -114 -79
-172 -90 l-38 -6 6 55 c9 65 2 69 -47 26 -19 -16 -37 -30 -40 -30 -7 0 -67 82
-67 91 0 4 25 22 55 39 42 24 97 40 247 71 186 39 197 43 310 104 64 35 161
91 215 126 170 108 246 148 474 250 246 109 241 108 414 89 129 -15 356 -74
407 -106 23 -15 85 -58 137 -96 53 -39 113 -79 134 -89 40 -21 52 -41 108
-189 35 -94 36 -72 3 70 l-26 110 30 30 c17 17 46 67 64 112 18 45 53 127 78
182 40 88 49 101 72 104 49 6 186 -39 305 -101 65 -33 143 -73 173 -89 30 -15
78 -33 106 -41 51 -12 52 -14 133 -134 45 -67 86 -125 92 -128 11 -7 7 3 -66
168 -44 97 -47 109 -33 125 27 31 37 58 77 214 37 150 76 258 91 258 12 0 78
-77 114 -133 54 -85 96 -174 96 -206 0 -16 11 -71 25 -123 13 -52 27 -126 30
-164 11 -130 16 -158 26 -143 5 8 9 75 9 149 l1 135 58 -145 c84 -212 101
-264 101 -321 0 -91 43 -239 64 -218 3 3 1 30 -4 60 -6 30 -18 122 -26 204 -8
83 -24 188 -35 235 -28 118 -89 420 -89 441 0 10 13 21 32 28 28 10 41 7 112
-23 45 -19 110 -42 146 -52 69 -18 104 -46 163 -132 l28 -39 -10 -99 c-6 -54
-8 -100 -5 -103 29 -29 64 187 84 524 13 212 13 324 -2 417 -6 43 -9 81 -5 84
3 4 27 10 53 15 l47 9 76 -68 c118 -105 179 -170 302 -321 122 -148 179 -238
337 -530 106 -193 119 -235 138 -418 7 -66 24 -77 24 -15 0 20 -9 91 -20 157
-11 66 -20 148 -20 181 0 34 -9 144 -20 245 -24 218 -26 289 -10 428 14 132
31 171 89 220 l47 40 64 -16 c41 -11 85 -32 124 -59 34 -24 93 -62 131 -86 45
-27 110 -83 185 -159 63 -64 127 -124 141 -133 21 -13 29 -32 49 -118 13 -57
27 -107 32 -113 15 -17 8 60 -12 133 -16 58 -20 102 -20 237 0 161 1 167 32
249 l32 84 75 26 c92 32 100 32 226 0 88 -22 128 -25 335 -30 129 -3 257 -10
284 -16 27 -6 132 -43 235 -83 l186 -73 0 -130 c0 -118 1 -129 17 -121 19 10
33 50 47 134 28 172 21 380 -19 620 -11 66 -27 172 -35 235 -14 109 -18 121
-78 240 -35 69 -150 280 -257 470 -646 1151 -1039 1772 -1105 1746 -20 -7 -45
3 -45 19 0 31 -61 63 -177 94 -563 153 -857 257 -1186 422 -167 84 -329 176
-617 352 -278 170 -395 230 -495 253 -38 9 -75 18 -81 19 -7 2 -15 26 -19 53
-5 40 -2 64 15 111 90 246 -131 559 -460 650 -41 12 -77 21 -80 21 -3 -1 15
-19 40 -40z m-5873 -2066 c-2 -3 -16 0 -31 5 -34 14 -34 42 2 88 l27 37 3 -63
c2 -35 1 -65 -1 -67z m-547 -884 c-20 -18 -38 -26 -43 -21 -14 14 1 31 28 31
13 0 27 5 30 10 3 6 9 10 13 10 4 -1 -9 -14 -28 -30z m-63 -37 c3 -7 -24 -33
-58 -58 -48 -35 -65 -43 -75 -34 -8 6 -14 18 -14 25 0 16 56 47 70 39 6 -3 10
0 10 7 0 33 58 51 67 21z m-139 -108 c2 -2 -11 -13 -28 -25 -30 -21 -33 -22
-48 -6 -16 16 -16 18 2 31 16 12 59 12 74 0z m-120 -67 c15 -18 -8 -65 -49
-105 l-34 -32 -33 20 c-53 34 -36 71 23 49 33 -13 40 -8 26 18 -8 15 -6 24 10
41 22 24 42 27 57 9z m89 -95 c-3 -3 -11 -2 -17 2 -9 6 -9 10 1 16 14 8 27 -7
16 -18z m4040 -6470 c-9 -43 -21 -114 -27 -158 -14 -97 -30 -167 -41 -179 -5
-6 -18 11 -30 38 -17 40 -20 59 -14 105 7 59 57 226 82 275 13 26 16 27 30 13
15 -14 15 -23 0 -94z"/>
</g>
</svg>
